<?xml version="1.0" encoding="UTF-8" standalone="no"?>
<!-- Created with Inkscape (http://www.inkscape.org/) -->

<svg
   width="95.861488mm"
   height="106.8757mm"
   viewBox="0 0 95.861488 106.8757"
   version="1.1"
   id="svg5"
   inkscape:version="1.1.1 (3bf5ae0d25, 2021-09-20)"
   sodipodi:docname="dessin_v2.svg"
   xmlns:inkscape="http://www.inkscape.org/namespaces/inkscape"
   xmlns:sodipodi="http://sodipodi.sourceforge.net/DTD/sodipodi-0.dtd"
   xmlns="http://www.w3.org/2000/svg"
   xmlns:svg="http://www.w3.org/2000/svg">
  <sodipodi:namedview
     id="namedview7"
     pagecolor="#ffffff"
     bordercolor="#999999"
     borderopacity="1"
     inkscape:pageshadow="0"
     inkscape:pageopacity="0"
     inkscape:pagecheckerboard="0"
     inkscape:document-units="mm"
     showgrid="false"
     inkscape:zoom="0.36168631"
     inkscape:cx="-175.5665"
     inkscape:cy="346.98576"
     inkscape:window-width="1920"
     inkscape:window-height="1001"
     inkscape:window-x="-9"
     inkscape:window-y="-9"
     inkscape:window-maximized="1"
     inkscape:current-layer="layer1" />
  <defs
     id="defs2" />
  <g
     inkscape:label="Calque 1"
     inkscape:groupmode="layer"
     id="layer1"
     transform="translate(-55.946108,-64.338015)">
    <g
       id="g1565"
       transform="matrix(1.0343347,0,0,1.030829,2.1762492,-30.482752)">
      <ellipse
         style="fill:#e6e6e6;fill-opacity:1;stroke:#000000;stroke-width:1;stroke-miterlimit:4;stroke-dasharray:none;paint-order:stroke markers fill"
         id="path10523"
         cx="98.324654"
         cy="143.82465"
         rx="45.839684"
         ry="51.339684" />
      <g
         id="g1153"
         transform="matrix(0.10160394,0,0,0.09339103,68.946997,97.108957)"
         style="fill:#d52e2e;fill-opacity:1;stroke:#000000;stroke-width:1.89211;stroke-miterlimit:4;stroke-dasharray:none;stroke-opacity:1">
        <polyline
           fill="none"
           stroke="#000000"
           stroke-width="3.9237"
           stroke-linejoin="round"
           points="245.218,608.016 240.863,637.635   232.151,667.254 221.697,686.419 207.323,703.407 193.385,713.86 177.704,720.395 163.33,723.879 148.521,726.492 130.662,727.363   111.932,725.621 94.073,723.008 74.037,721.701 31.786,726.492 "
           id="polyline1016"
           style="fill:#d52e2e;fill-opacity:1;stroke:#000000;stroke-width:1.89211;stroke-miterlimit:4;stroke-dasharray:none;stroke-opacity:1" />
        <g
           id="g1022"
           style="fill:#d52e2e;fill-opacity:1;stroke:#000000;stroke-width:1.89211;stroke-miterlimit:4;stroke-dasharray:none;stroke-opacity:1">
          <path
             fill="#ffffff"
             d="m 338.214,261.441 c 39.493,29.619 150.718,98.925 180.892,205.055 13.91,48.927 17.318,100.802 19.928,151.415 2.595,50.34 -7.293,120.431 4.337,153.01 11.63,32.579 73.129,61.079 52.486,83.195 -10.357,4.884 -21.159,9.73 -30.518,9.011 -14.113,-1.085 -24.87,-11.688 -36.94,-19.048 -21.66,-13.207 -47.206,-14.149 -71.712,-11.427 -51.076,5.676 -100.765,25.667 -150.631,37.433 -26.04,6.144 -46.975,1.914 -72.599,-1.159 -27.314,-3.275 -55.301,-3.316 -82.77,-4.053 -11.455,-0.307 -18.229,-1.29 -29.688,-0.873 -5.547,0.202 -13.597,-1.012 -21.298,0.744 C 92,866.5 79.202,874.6 73.5,876.5 53.687,883.104 37.841,890.461 19.348,875.587 9.5,868 10,858.5 19.178,847.319 c 5.484,-6.995 24.432,-24.305 26.546,-33.276 2.213,-9.396 -5.979,-26.427 -9.142,-35.084 -4.747,-12.991 -5.727,-27.057 -7.857,-40.692 -7.917,-50.672 -2.151,-103.135 1.711,-153.901 3.561,-46.785 -2.833,-106.999 21.163,-148.994 13.688,-23.955 27.429,-46.94 50.718,-63.287 22.23,-15.605 43.766,-30.484 63.825,-48.76 15.249,-13.894 28.352,-31.653 41.859,-47.295 14.878,-17.227 31.893,-27.801 26.407,-52.486 -5.108,-22.987 -15.494,-42.356 -18.333,-65.888 -2.263,-18.748 -15.654,-40.458 -25.468,-56.729 -9.106,-15.096 -28.173,-33.276 -25.81,-52.176 2.032,-16.252 12.194,-49.659 35.578,-36.196 8.812,5.074 18.344,13.53 28.712,13.53 11.48,0 22.958,0 34.438,0 11.786,0 19.31,-3.774 23.031,8.453 3.063,10.061 7.373,26.829 13.544,29.006 6.171,2.178 10.089,-14.665 15.681,-14.374 5.591,0.291 9.103,11.93 18.729,14.81 6.157,1.842 23.148,2.273 26.135,10.018 3.831,9.938 -10.752,43.549 -13.425,54.481 -4.856,19.867 -11.4,35.241 -20.62,53.682 0,0 -8.713,23.525 -12.198,29.915 -3.483,6.389 -15.681,19.746 23.812,49.365 z"
             id="path1018"
             style="fill:#d52e2e;fill-opacity:1;stroke:#000000;stroke-width:1.89211;stroke-miterlimit:4;stroke-dasharray:none;stroke-opacity:1" />
          <path
             d="m 339.88,259.206 c 11.503,8.504 23.385,16.689 34.982,25.266 11.604,8.571 23.07,17.37 34.159,26.646 22.188,18.512 43.166,38.656 61.507,61.128 9.161,11.233 17.61,23.066 25.161,35.468 7.526,12.413 14.118,25.429 19.393,38.993 2.64,6.786 4.939,13.682 6.893,20.723 1.923,6.893 3.755,13.978 5.301,21.043 3.159,14.13 5.64,28.395 7.631,42.712 3.975,28.646 5.957,57.473 7.687,86.214 0.873,14.54 0.674,29.027 0.352,43.447 -0.372,14.422 -0.94,28.795 -1.27,43.121 -0.153,7.162 -0.23,14.313 -0.129,21.438 0.106,7.124 0.367,14.224 1.024,21.236 0.643,7.004 1.695,13.949 3.612,20.453 l 0.768,2.406 c 0.004,0.017 0.058,0.176 0.021,0.075 l 0.059,0.158 0.119,0.315 0.237,0.632 c 0.161,0.451 0.31,0.762 0.461,1.128 0.616,1.437 1.363,2.972 2.193,4.411 1.65,2.915 3.613,5.726 5.745,8.446 4.278,5.442 9.196,10.531 14.271,15.53 5.076,5.008 10.365,9.888 15.49,15.075 2.564,2.594 5.099,5.255 7.522,8.085 2.414,2.837 4.739,5.836 6.696,9.247 0.972,1.708 1.845,3.53 2.495,5.513 0.646,1.977 1.073,4.131 1.033,6.369 -0.047,2.234 -0.581,4.502 -1.52,6.508 -0.931,2.017 -2.229,3.752 -3.647,5.241 l -0.05,0.054 c -0.261,0.273 -0.572,0.488 -0.896,0.637 l -0.003,10e-4 c -4.524,2.13 -9.123,4.26 -13.969,6.044 -4.848,1.742 -9.992,3.22 -15.564,3.325 -0.688,0.04 -1.397,-0.029 -2.096,-0.046 -0.2,-0.012 -0.294,-0.006 -0.583,-0.032 l -0.464,-0.045 c -0.32,-0.035 -0.599,-0.053 -0.951,-0.101 -1.451,-0.18 -2.749,-0.434 -4.085,-0.746 -2.64,-0.653 -5.18,-1.577 -7.59,-2.683 -4.827,-2.217 -9.146,-5.069 -13.287,-7.922 -4.13,-2.853 -8.145,-5.774 -12.211,-8.21 l -1.61,-0.947 -1.539,-0.843 c -1.041,-0.548 -2.11,-1.114 -3.192,-1.614 -2.156,-1.037 -4.366,-1.966 -6.619,-2.787 -9.002,-3.334 -18.615,-5.008 -28.313,-5.556 -9.693,-0.548 -19.56,0.002 -29.25,1.157 l -7.411,0.952 c -2.458,0.337 -4.854,0.766 -7.284,1.143 -2.42,0.361 -4.847,0.823 -7.273,1.291 -2.424,0.474 -4.857,0.883 -7.271,1.431 -19.362,4.037 -38.466,9.47 -57.559,15.088 -9.547,2.808 -19.1,5.668 -28.699,8.418 -9.594,2.765 -19.241,5.42 -28.978,7.796 l -3.649,0.896 -0.912,0.225 -0.979,0.208 -1.828,0.386 c -1.211,0.262 -2.429,0.52 -3.73,0.72 -1.277,0.205 -2.561,0.451 -3.831,0.621 -5.066,0.729 -10.178,1.08 -15.274,1.178 -10.21,0.19 -20.297,-0.881 -30.226,-2.081 l -14.83,-1.863 c -1.214,-0.143 -2.5,-0.315 -3.655,-0.434 l -3.716,-0.386 c -2.472,-0.239 -4.968,-0.555 -7.419,-0.731 -9.793,-0.854 -19.73,-1.335 -29.638,-1.717 -9.926,-0.327 -19.87,-0.539 -29.834,-0.741 -4.993,-0.127 -9.953,-0.186 -14.978,-0.376 -5.071,-0.191 -10.037,-0.557 -14.926,-0.717 -2.445,-0.077 -4.881,-0.102 -7.317,-0.071 l -3.706,0.092 -0.934,0.021 -1.03,-10e-4 -1.941,-0.04 c -5.056,-0.174 -9.816,-0.408 -14.329,0.291 -0.561,0.088 -1.12,0.179 -1.665,0.301 l -0.412,0.085 c -0.156,0.029 -0.072,0.01 -0.323,0.077 l -0.902,0.242 c -0.323,0.079 -0.559,0.165 -0.802,0.249 l -0.739,0.248 -1.607,0.607 c -2.173,0.875 -4.363,1.918 -6.552,3.004 -2.191,1.089 -4.384,2.233 -6.613,3.38 -2.242,1.144 -4.469,2.302 -6.988,3.361 -0.304,0.135 -0.668,0.257 -1,0.384 l -0.509,0.188 -0.439,0.149 -1.766,0.599 -3.52,1.208 c -2.36,0.811 -4.741,1.625 -7.165,2.393 -4.843,1.526 -9.889,2.901 -15.233,3.441 -5.323,0.553 -10.975,0.06 -16.174,-1.75 -5.202,-1.757 -9.884,-4.791 -13.862,-8.05 -1.125,-0.932 -2.165,-1.916 -3.125,-3.015 -0.962,-1.102 -1.846,-2.326 -2.575,-3.679 -1.481,-2.691 -2.214,-5.944 -2.02,-9.021 0.171,-3.089 1.111,-5.926 2.317,-8.454 1.213,-2.543 2.721,-4.813 4.336,-6.933 0.854,-1.095 1.537,-1.965 2.475,-3.059 0.855,-0.995 1.71,-1.936 2.566,-2.869 l 5.123,-5.487 c 3.39,-3.622 6.737,-7.236 9.814,-10.966 1.527,-1.864 3.008,-3.757 4.274,-5.675 0.641,-0.956 1.223,-1.921 1.698,-2.858 0.479,-0.932 0.843,-1.859 0.983,-2.561 0.38,-1.838 0.274,-3.976 -0.072,-6.208 -0.34,-2.225 -0.917,-4.509 -1.596,-6.786 -1.37,-4.568 -3.166,-9.114 -5.021,-13.717 -0.922,-2.317 -1.891,-4.609 -2.76,-7.129 -0.204,-0.596 -0.411,-1.157 -0.611,-1.782 l -0.595,-1.903 c -0.375,-1.265 -0.726,-2.496 -1.043,-3.751 -2.574,-10.016 -3.602,-20.088 -5.039,-29.834 L 25,738.235 24.478,734.536 c -0.331,-2.479 -0.74,-4.899 -0.983,-7.445 l -0.828,-7.56 -0.605,-7.527 c -0.701,-10.04 -1.066,-20.093 -1.063,-30.131 0.012,-10.036 0.28,-20.06 0.743,-30.059 0.962,-19.997 2.617,-39.897 4.156,-59.743 0.375,-4.965 0.787,-9.926 1.042,-14.831 0.266,-4.901 0.458,-9.86 0.59,-14.814 l 0.673,-29.875 c 0.561,-19.973 1.571,-40.179 5.702,-60.15 1.013,-4.988 2.295,-9.942 3.794,-14.844 1.5,-4.899 3.255,-9.747 5.375,-14.459 0.496,-1.191 1.069,-2.352 1.635,-3.515 0.562,-1.165 1.119,-2.333 1.754,-3.464 0.618,-1.13 1.228,-2.305 1.854,-3.397 l 1.854,-3.243 c 2.503,-4.338 5.016,-8.684 7.658,-12.978 5.268,-8.589 10.941,-17.056 17.493,-24.939 3.28,-3.932 6.723,-7.76 10.465,-11.311 l 1.386,-1.347 1.44,-1.293 c 0.967,-0.854 1.916,-1.73 2.899,-2.566 2.007,-1.627 3.978,-3.302 6.087,-4.801 2.098,-1.583 4.117,-2.975 6.156,-4.413 l 6.103,-4.303 c 4.064,-2.865 8.111,-5.747 12.133,-8.646 8.028,-5.818 16.006,-11.678 23.674,-17.874 1.948,-1.516 3.837,-3.094 5.722,-4.677 1.875,-1.594 3.815,-3.118 5.635,-4.768 l 5.523,-4.885 0.65,-0.575 0.682,-0.639 1.364,-1.276 c 0.936,-0.856 1.739,-1.685 2.608,-2.526 6.887,-6.819 13.323,-14.297 19.655,-21.909 6.358,-7.625 12.547,-15.412 19.293,-23.028 3.443,-3.826 6.975,-7.375 10.32,-10.944 3.335,-3.563 6.477,-7.141 8.921,-10.944 2.456,-3.795 4.107,-7.826 4.716,-12.081 0.63,-4.257 0.233,-8.695 -0.853,-13.172 -2.15,-9.5 -5.362,-18.711 -8.575,-28.182 -3.227,-9.436 -6.396,-19.16 -8.334,-29.308 -0.223,-1.272 -0.476,-2.538 -0.672,-3.816 l -0.543,-3.848 -0.248,-1.786 -0.279,-1.642 c -0.214,-1.125 -0.463,-2.265 -0.738,-3.397 -1.124,-4.536 -2.749,-9.035 -4.621,-13.467 -3.765,-8.874 -8.542,-17.456 -13.559,-25.962 l -3.813,-6.385 c -1.292,-2.152 -2.523,-4.221 -3.841,-6.157 -2.681,-3.983 -5.678,-7.937 -8.627,-12.014 -2.951,-4.079 -5.891,-8.279 -8.508,-12.814 -2.601,-4.531 -4.926,-9.432 -6.211,-14.878 -0.636,-2.716 -0.991,-5.563 -0.936,-8.447 0.067,-2.982 0.524,-5.533 0.986,-8.104 0.969,-5.13 2.332,-10.162 4.208,-15.096 1.899,-4.916 4.258,-9.786 7.838,-14.195 1.797,-2.187 3.939,-4.255 6.568,-5.874 2.614,-1.617 5.773,-2.683 8.958,-2.846 3.19,-0.186 6.271,0.475 8.998,1.521 1.374,0.52 2.669,1.143 3.898,1.831 l 0.463,0.256 0.44,0.256 0.827,0.493 1.674,1.036 c 4.342,2.758 8.322,5.607 12.407,7.81 2.034,1.096 4.082,2.027 6.12,2.654 1.019,0.314 2.033,0.551 3.037,0.698 0.502,0.071 1.001,0.118 1.498,0.151 l 0.741,0.021 0.926,0.003 14.944,0.04 14.943,0.062 c 2.526,0.003 4.913,0.06 7.258,-0.08 2.397,-0.111 4.856,-0.366 7.625,-0.404 1.382,-0.013 2.872,0.045 4.479,0.352 1.592,0.288 3.348,0.939 4.869,1.977 1.517,1.051 2.716,2.419 3.588,3.789 0.876,1.377 1.483,2.766 1.966,4.122 0.496,1.419 0.809,2.567 1.17,3.779 l 1.048,3.579 c 0.699,2.371 1.412,4.714 2.175,7.015 0.767,2.295 1.582,4.556 2.507,6.692 0.916,2.119 1.973,4.192 3.146,5.672 0.568,0.717 1.197,1.259 1.506,1.383 -0.02,-0.007 0.194,0.075 -0.023,0.011 0.17,0.058 0.338,0.099 0.152,0.045 -0.13,-0.027 -0.116,-0.013 -0.184,-0.01 -0.095,0.005 -0.055,0.041 0.144,-0.089 0.396,-0.232 1.09,-0.934 1.714,-1.759 0.641,-0.835 1.28,-1.803 1.929,-2.822 1.336,-2.048 2.548,-4.269 4.594,-6.617 0.529,-0.586 1.137,-1.19 1.942,-1.773 0.804,-0.57 1.876,-1.165 3.27,-1.366 0.346,-0.045 0.698,-0.069 1.054,-0.057 0.782,0.047 0.483,0.045 0.777,0.07 0.065,-0.003 0.58,0.097 0.865,0.168 0.369,0.083 0.603,0.174 0.85,0.265 0.992,0.373 1.818,0.876 2.499,1.387 1.356,1.033 2.324,2.097 3.211,3.105 0.884,1.014 1.672,1.993 2.448,2.92 1.547,1.855 3.06,3.534 4.706,4.824 0.82,0.645 1.667,1.191 2.544,1.625 0.898,0.438 1.732,0.737 2.8,0.988 2.169,0.501 4.682,0.878 7.157,1.331 2.496,0.451 5.039,0.952 7.612,1.682 2.567,0.748 5.199,1.646 7.786,3.35 1.278,0.861 2.56,1.969 3.573,3.464 0.232,0.393 0.486,0.768 0.678,1.19 l 0.285,0.633 c 0.103,0.219 0.202,0.544 0.226,0.609 0.085,0.238 0.288,0.951 0.344,1.276 0.091,0.408 0.144,0.796 0.2,1.188 0.341,3.068 0.002,5.729 -0.396,8.348 -0.864,5.197 -2.261,10.08 -3.746,14.914 -1.5,4.825 -3.145,9.565 -4.807,14.274 -1.646,4.699 -3.39,9.401 -4.799,13.999 -0.173,0.572 -0.333,1.138 -0.477,1.69 l -0.495,1.829 -0.985,3.604 c -0.616,2.389 -1.431,4.845 -2.187,7.257 -1.568,4.826 -3.337,9.538 -5.271,14.196 -3.873,9.309 -8.447,18.248 -13.095,27.087 l 0.073,-0.168 c -1.418,3.655 -2.838,7.296 -4.298,10.93 -1.468,3.629 -2.916,7.267 -4.443,10.884 -0.764,1.809 -1.547,3.612 -2.384,5.412 -0.785,1.783 -1.866,3.668 -2.827,5.276 -0.953,1.641 -1.734,3.298 -2.214,5.028 -0.484,1.726 -0.666,3.509 -0.51,5.284 0.135,1.776 0.594,3.53 1.239,5.227 0.635,1.703 1.537,3.327 2.512,4.898 0.508,0.779 1.012,1.557 1.583,2.301 0.537,0.762 1.136,1.489 1.73,2.216 1.193,1.451 2.481,2.838 3.807,4.193 1.331,1.35 2.698,2.672 4.124,3.94 1.403,1.288 2.867,2.523 4.331,3.754 1.472,1.226 2.961,2.432 4.479,3.612 1.496,1.2 3.055,2.338 4.578,3.511 z m -3.339,4.466 c -1.556,-1.231 -3.155,-2.395 -4.672,-3.681 l -2.293,-1.902 -2.237,-1.978 c -0.755,-0.646 -1.464,-1.354 -2.192,-2.035 -0.728,-0.681 -1.449,-1.371 -2.141,-2.098 -1.41,-1.417 -2.768,-2.897 -4.09,-4.412 -1.308,-1.531 -2.569,-3.107 -3.745,-4.762 -0.586,-0.829 -1.172,-1.656 -1.702,-2.531 -0.561,-0.849 -1.06,-1.748 -1.557,-2.643 -0.949,-1.821 -1.846,-3.688 -2.469,-5.688 -0.633,-1.991 -1.038,-4.083 -1.12,-6.209 -0.082,-2.125 0.193,-4.279 0.832,-6.295 0.598,-2.031 1.565,-3.903 2.569,-5.636 0.51,-0.884 1.008,-1.666 1.457,-2.496 0.43,-0.824 0.843,-1.674 1.239,-2.554 0.796,-1.749 1.555,-3.535 2.295,-5.331 1.479,-3.593 2.91,-7.219 4.274,-10.87 1.369,-3.648 2.727,-7.309 4.034,-10.975 0.015,-0.039 0.03,-0.077 0.047,-0.113 l 0.026,-0.055 c 4.262,-8.978 8.181,-18.091 11.491,-27.373 1.633,-4.643 3.19,-9.327 4.534,-14.029 0.635,-2.37 1.387,-4.647 1.955,-7.099 l 0.91,-3.624 0.448,-1.786 c 0.162,-0.656 0.335,-1.289 0.516,-1.912 1.46,-4.944 3.14,-9.604 4.733,-14.325 1.604,-4.703 3.175,-9.394 4.581,-14.099 1.393,-4.697 2.675,-9.439 3.392,-14.085 0.343,-2.294 0.54,-4.642 0.293,-6.534 -0.039,-0.223 -0.069,-0.453 -0.119,-0.652 -0.022,-0.119 -0.044,-0.191 -0.059,-0.241 -0.015,-0.057 -0.018,-0.103 -0.085,-0.284 -0.131,-0.387 -0.271,-0.603 -0.453,-0.912 -0.396,-0.565 -1.017,-1.136 -1.807,-1.651 -1.588,-1.039 -3.722,-1.813 -5.934,-2.416 -2.227,-0.606 -4.582,-1.052 -6.991,-1.459 -2.428,-0.421 -4.852,-0.742 -7.546,-1.328 -1.362,-0.297 -2.9,-0.804 -4.242,-1.458 -1.364,-0.655 -2.625,-1.459 -3.771,-2.34 -2.298,-1.769 -4.138,-3.82 -5.801,-5.764 -0.832,-0.974 -1.618,-1.926 -2.381,-2.78 -0.759,-0.857 -1.515,-1.613 -2.151,-2.079 -0.315,-0.235 -0.579,-0.361 -0.753,-0.423 -0.045,-0.017 -0.102,-0.04 -0.039,-0.016 -0.02,0.009 0.198,0 -0.049,-0.021 -0.016,-0.003 -0.622,-0.064 -0.151,-0.021 0.044,0 0.086,0.002 0.123,-0.006 0.154,-0.023 0.084,-0.036 -0.12,0.117 -0.202,0.15 -0.492,0.42 -0.792,0.762 -1.238,1.413 -2.489,3.562 -3.831,5.704 -0.682,1.086 -1.401,2.208 -2.267,3.358 -0.891,1.139 -1.852,2.359 -3.553,3.489 -0.843,0.549 -1.989,1.063 -3.325,1.201 -0.688,0.061 -1.302,0.037 -2.042,-0.112 -0.494,-0.108 -0.622,-0.161 -0.749,-0.197 -0.508,-0.176 -0.577,-0.225 -0.884,-0.353 -1.965,-0.927 -3.139,-2.211 -4.146,-3.402 -1.929,-2.432 -3.105,-4.867 -4.2,-7.293 -1.074,-2.427 -1.965,-4.852 -2.796,-7.273 -0.825,-2.421 -1.581,-4.838 -2.31,-7.239 l -1.082,-3.583 c -0.356,-1.172 -0.723,-2.422 -1.061,-3.35 -0.357,-0.986 -0.779,-1.886 -1.25,-2.605 -0.474,-0.723 -0.977,-1.235 -1.508,-1.607 -0.55,-0.348 -1.166,-0.614 -2.024,-0.762 -0.842,-0.155 -1.854,-0.209 -2.96,-0.186 -2.213,0.042 -4.715,0.307 -7.292,0.454 -2.628,0.175 -5.227,0.135 -7.681,0.153 l -14.943,0.062 -14.944,0.04 -0.942,0.001 -1.125,-0.026 c -0.747,-0.042 -1.488,-0.111 -2.22,-0.211 -1.462,-0.205 -2.88,-0.534 -4.244,-0.946 -2.729,-0.827 -5.237,-1.974 -7.592,-3.225 -4.701,-2.516 -8.847,-5.475 -12.93,-8.026 l -1.506,-0.923 -0.78,-0.459 -0.368,-0.212 -0.356,-0.193 c -0.946,-0.525 -1.905,-0.977 -2.863,-1.332 -1.918,-0.724 -3.828,-1.082 -5.622,-0.965 -1.795,0.111 -3.501,0.677 -5.121,1.678 -1.616,1.004 -3.125,2.427 -4.474,4.092 -2.708,3.349 -4.79,7.549 -6.438,11.919 -1.646,4.387 -2.874,9.016 -3.744,13.675 -0.421,2.325 -0.801,4.708 -0.825,6.71 -0.034,2.097 0.227,4.23 0.732,6.361 1.011,4.268 2.973,8.488 5.339,12.57 2.375,4.091 5.159,8.065 8.058,12.045 2.899,3.988 5.939,7.966 8.835,12.239 1.49,2.181 2.81,4.393 4.089,6.507 l 3.866,6.435 c 5.12,8.635 10.099,17.484 14.151,26.952 2.018,4.735 3.795,9.634 5.077,14.771 0.314,1.289 0.599,2.582 0.851,3.903 l 0.345,2.041 0.266,1.915 0.504,3.551 c 0.182,1.182 0.421,2.36 0.627,3.541 1.81,9.439 4.821,18.724 8.047,28.124 1.604,4.704 3.238,9.447 4.761,14.271 0.77,2.409 1.482,4.846 2.186,7.3 l 1.004,3.755 0.879,3.646 c 1.264,5.186 1.843,10.85 1.012,16.47 -0.786,5.629 -3.046,11.013 -6.003,15.566 -2.951,4.588 -6.44,8.511 -9.898,12.221 -3.467,3.7 -6.957,7.224 -10.179,10.804 -6.48,7.289 -12.713,15.093 -19.125,22.761 -6.421,7.69 -13.002,15.333 -20.29,22.528 -0.92,0.89 -1.86,1.843 -2.763,2.667 l -1.366,1.274 -0.683,0.637 -0.748,0.664 -5.678,5.006 c -1.875,1.692 -3.856,3.246 -5.779,4.875 -1.933,1.617 -3.869,3.229 -5.856,4.77 -7.842,6.315 -15.94,12.242 -24.052,18.103 -4.063,2.923 -8.144,5.803 -12.229,8.667 l -6.123,4.29 c -2.037,1.427 -4.121,2.859 -6.002,4.275 -1.96,1.378 -3.789,2.932 -5.658,4.433 -0.916,0.774 -1.799,1.587 -2.701,2.378 l -1.344,1.198 -1.296,1.254 c -3.499,3.296 -6.74,6.881 -9.851,10.586 -6.213,7.428 -11.695,15.538 -16.864,23.91 -2.592,4.184 -5.08,8.457 -7.568,12.74 l -1.864,3.238 c -0.616,1.067 -1.152,2.104 -1.734,3.157 -0.59,1.038 -1.106,2.119 -1.63,3.195 -0.527,1.075 -1.063,2.145 -1.526,3.254 -1.982,4.368 -3.641,8.902 -5.069,13.522 -1.428,4.619 -2.663,9.317 -3.646,14.09 -4.016,19.093 -5.099,38.877 -5.707,58.692 l -0.763,29.883 c -0.15,5.005 -0.356,10.001 -0.645,15.046 -0.279,5.044 -0.707,10.012 -1.097,14.979 -1.606,19.879 -3.32,39.692 -4.338,59.5 -0.491,9.902 -0.788,19.801 -0.833,29.689 -0.036,9.889 0.292,19.76 0.945,29.597 l 0.568,7.37 0.773,7.298 c 0.217,2.417 0.628,4.913 0.948,7.373 l 0.51,3.7 0.539,3.678 c 1.424,9.956 2.418,19.776 4.79,29.092 0.29,1.16 0.619,2.326 0.947,3.45 l 0.511,1.665 c 0.176,0.563 0.398,1.17 0.595,1.753 0.744,2.194 1.703,4.501 2.616,6.813 1.85,4.641 3.714,9.376 5.193,14.359 0.733,2.496 1.381,5.055 1.788,7.757 0.396,2.676 0.609,5.598 -0.007,8.655 -0.366,1.743 -0.987,3.128 -1.636,4.411 -0.657,1.28 -1.374,2.447 -2.122,3.558 -1.489,2.233 -3.095,4.261 -4.729,6.245 -3.278,3.944 -6.72,7.63 -10.148,11.271 l -5.094,5.419 c -0.829,0.898 -1.653,1.799 -2.424,2.69 -0.69,0.791 -1.554,1.874 -2.234,2.741 -2.806,3.634 -5.059,7.711 -5.281,11.538 -0.112,1.899 0.281,3.689 1.184,5.375 0.879,1.673 2.344,3.281 3.931,4.609 0.49,0.398 0.971,0.78 1.421,1.123 0.462,0.351 0.912,0.725 1.39,1.046 0.936,0.683 1.899,1.307 2.873,1.905 1.957,1.179 3.999,2.158 6.11,2.889 4.223,1.474 8.722,1.908 13.302,1.457 4.584,-0.443 9.22,-1.659 13.871,-3.113 2.328,-0.729 4.664,-1.519 7.018,-2.318 l 3.551,-1.205 1.774,-0.595 0.445,-0.15 0.366,-0.136 c 0.249,-0.098 0.479,-0.165 0.744,-0.283 2.078,-0.863 4.286,-1.986 6.482,-3.102 2.205,-1.124 4.432,-2.277 6.705,-3.398 2.277,-1.119 4.589,-2.217 7.042,-3.195 0.632,-0.235 1.226,-0.475 1.889,-0.706 l 1.035,-0.34 c 0.348,-0.114 0.7,-0.229 0.983,-0.297 l 0.903,-0.239 c 0.048,-0.017 0.435,-0.112 0.584,-0.139 l 0.503,-0.103 c 0.671,-0.146 1.342,-0.254 2.012,-0.355 5.364,-0.805 10.622,-0.485 15.504,-0.313 l 1.793,0.044 0.838,0.006 0.934,-0.019 3.764,-0.08 c 2.545,-0.023 5.09,0.012 7.624,0.101 5.068,0.184 10.04,0.566 14.924,0.767 4.931,0.204 9.933,0.281 14.899,0.424 9.956,0.235 19.932,0.48 29.919,0.844 10,0.42 19.968,0.932 30.024,1.844 2.517,0.191 4.964,0.511 7.45,0.76 l 3.715,0.398 c 1.321,0.141 2.504,0.307 3.763,0.459 l 14.819,1.911 c 9.835,1.209 19.633,2.189 29.361,1.911 4.861,-0.124 9.704,-0.487 14.497,-1.209 1.197,-0.167 2.359,-0.401 3.541,-0.597 1.161,-0.18 2.378,-0.444 3.6,-0.717 l 1.825,-0.396 0.848,-0.186 0.902,-0.221 3.606,-0.886 c 9.622,-2.344 19.191,-4.972 28.744,-7.72 9.556,-2.733 19.093,-5.585 28.662,-8.395 19.13,-5.62 38.396,-11.096 58.059,-15.188 2.446,-0.554 4.927,-0.972 7.392,-1.452 2.465,-0.474 4.933,-0.942 7.439,-1.316 2.492,-0.386 5.003,-0.83 7.479,-1.167 l 7.411,-0.949 c 10.085,-1.197 20.193,-1.76 30.402,-1.185 10.175,0.578 20.415,2.347 30.119,5.942 2.426,0.888 4.813,1.892 7.146,3.015 1.178,0.546 2.312,1.145 3.474,1.759 l 1.735,0.954 1.61,0.948 c 4.48,2.69 8.521,5.653 12.588,8.458 4.051,2.798 8.096,5.444 12.335,7.389 2.117,0.972 4.279,1.753 6.476,2.298 1.09,0.257 2.239,0.475 3.261,0.604 0.264,0.039 0.606,0.063 0.906,0.096 l 0.465,0.046 0.351,0.014 c 0.546,0.008 1.081,0.073 1.638,0.036 4.421,-0.069 9.02,-1.316 13.515,-2.943 4.509,-1.656 8.965,-3.709 13.451,-5.821 l 0.003,-0.001 -0.945,0.689 c 2.102,-2.283 3.249,-4.862 3.234,-7.573 -0.025,-2.731 -1.159,-5.679 -2.829,-8.475 -1.673,-2.807 -3.809,-5.497 -6.102,-8.092 -2.301,-2.596 -4.774,-5.107 -7.312,-7.585 -5.094,-4.943 -10.394,-9.811 -15.62,-14.847 -5.218,-5.047 -10.383,-10.269 -15.062,-16.098 -2.331,-2.919 -4.535,-5.998 -6.464,-9.326 -0.978,-1.671 -1.835,-3.362 -2.652,-5.224 -0.197,-0.463 -0.426,-0.969 -0.569,-1.364 l -0.244,-0.629 -0.121,-0.315 -0.061,-0.157 -0.086,-0.244 -0.901,-2.725 c -2.192,-7.296 -3.292,-14.654 -4.001,-21.961 -1.404,-14.631 -1.259,-29.145 -0.972,-43.589 0.31,-14.444 0.994,-28.822 1.438,-43.166 0.469,-14.34 0.76,-28.653 0.174,-42.86 -1.254,-28.723 -2.743,-57.399 -6.193,-85.844 -1.759,-14.212 -4.028,-28.355 -7.051,-42.332 -1.483,-7.001 -3.205,-13.864 -5.099,-20.844 -1.863,-6.831 -4.112,-13.604 -6.67,-20.235 -5.104,-13.284 -11.576,-26.038 -18.999,-38.205 -7.414,-12.181 -15.842,-23.743 -24.921,-34.763 -18.21,-22.026 -39.036,-41.829 -61.116,-60.052 -11.057,-9.103 -22.388,-17.886 -33.944,-26.391 -5.775,-4.258 -11.58,-8.482 -17.416,-12.683 -5.828,-4.208 -11.697,-8.397 -17.482,-12.742 z"
             id="path1020"
             style="fill:#d52e2e;fill-opacity:1;stroke:#000000;stroke-width:1.89211;stroke-miterlimit:4;stroke-dasharray:none;stroke-opacity:1" />
        </g>
        <g
           id="g1026"
           style="fill:#d52e2e;fill-opacity:1;stroke:#000000;stroke-width:1.89211;stroke-miterlimit:4;stroke-dasharray:none;stroke-opacity:1">
          <path
             d="m 421.186,430.32 c 0,0 1.756,1.394 4.828,3.834 1.541,1.201 3.398,2.662 5.554,4.279 2.16,1.607 4.599,3.399 7.324,5.179 2.718,1.767 5.736,3.576 8.94,4.916 0.8,0.326 1.618,0.614 2.419,0.834 0.403,0.134 0.8,0.212 1.196,0.302 l 0.149,0.034 0.075,0.017 c 0.027,0.007 -0.117,-0.021 -0.034,-0.006 l 0.047,0.007 0.37,0.06 0.744,0.117 c 1.039,0.182 1.901,0.258 2.817,0.381 0.948,0.083 1.916,0.169 2.909,0.206 1.979,0.108 4.049,0.088 6.275,0.129 2.221,0.033 4.613,0.173 7.017,0.616 2.405,0.446 4.751,1.226 6.979,2.153 1.123,0.464 2.192,0.997 3.261,1.53 0.286,0.148 0.498,0.23 0.846,0.434 l 0.73,0.409 1.471,0.81 c 2.076,1.249 4.081,2.46 5.993,3.816 0.978,0.653 1.902,1.369 2.857,2.052 0.915,0.725 1.858,1.423 2.738,2.183 3.601,2.962 6.866,6.236 9.696,9.69 1.415,1.727 2.715,3.503 3.879,5.317 l 0.222,0.338 0.292,0.497 0.38,0.646 0.366,0.648 0.391,0.781 c 0.258,0.525 0.514,1.048 0.769,1.567 0.204,0.478 0.408,0.952 0.61,1.424 1.568,3.733 2.728,7.232 3.612,10.536 1.761,6.587 2.514,12.248 2.748,16.297 0.252,4.042 0.009,6.458 0.009,6.458 -0.012,0.111 -0.111,0.192 -0.223,0.182 -0.054,-0.006 -0.102,-0.032 -0.135,-0.07 0,0 -1.571,-1.847 -3.746,-5.231 -2.196,-3.376 -4.961,-8.311 -7.763,-14.316 -1.425,-2.981 -2.808,-6.281 -4.283,-9.592 -0.345,-0.761 -0.694,-1.531 -1.048,-2.312 l -0.25,-0.553 -0.351,-0.658 -0.341,-0.667 -0.086,-0.168 -0.043,-0.083 -0.021,-0.042 c -0.097,-0.169 0.107,0.182 0.078,0.132 l -0.177,-0.303 c -0.936,-1.623 -1.927,-3.271 -2.987,-4.919 -2.104,-3.307 -4.49,-6.624 -7.23,-9.751 -1.373,-1.56 -2.826,-3.082 -4.39,-4.498 -1.542,-1.448 -3.233,-2.752 -4.883,-3.96 l -1.389,-0.934 -0.699,-0.46 c -0.127,-0.091 -0.417,-0.254 -0.618,-0.378 l -1.332,-0.798 c -0.451,-0.247 -0.912,-0.454 -1.366,-0.685 -1.825,-0.89 -3.697,-1.562 -5.619,-1.915 -1.922,-0.368 -3.903,-0.436 -5.987,-0.409 -2.08,0.032 -4.268,0.121 -6.471,0.065 -1.101,-0.008 -2.2,-0.111 -3.301,-0.195 -1.125,-0.128 -2.289,-0.255 -3.229,-0.459 l -0.74,-0.138 -0.369,-0.068 -0.171,-0.033 -0.107,-0.026 -0.215,-0.053 c -0.572,-0.139 -1.144,-0.276 -1.672,-0.462 -1.088,-0.336 -2.075,-0.785 -3.029,-1.234 -3.796,-1.826 -6.813,-4.135 -9.472,-6.342 -1.313,-1.125 -2.528,-2.235 -3.662,-3.307 -1.121,-1.085 -2.143,-2.152 -3.095,-3.156 -1.885,-2.028 -3.447,-3.857 -4.67,-5.417 -1.236,-1.546 -2.147,-2.809 -2.756,-3.678 -0.594,-0.881 -0.91,-1.352 -0.91,-1.352 -0.059,-0.086 -0.035,-0.203 0.051,-0.261 0.069,-0.047 0.16,-0.041 0.223,0.008 z"
             id="path1024"
             style="fill:#d52e2e;fill-opacity:1;stroke:#000000;stroke-width:1.89211;stroke-miterlimit:4;stroke-dasharray:none;stroke-opacity:1" />
        </g>
        <g
           id="g1030"
           style="fill:#d52e2e;fill-opacity:1;stroke:#000000;stroke-width:1.89211;stroke-miterlimit:4;stroke-dasharray:none;stroke-opacity:1">
          <path
             d="m 176.436,44.764 c 0,0 0.111,1.094 0.321,3.144 0.269,2.04 0.586,5.051 1.419,8.734 0.399,1.835 0.893,3.858 1.696,5.877 0.403,1.02 0.871,1.978 1.473,2.941 0.62,1.098 1.282,2.223 1.92,3.392 1.315,2.315 2.607,4.824 4.24,7.203 0.816,1.179 1.689,2.36 2.695,3.332 0.506,0.478 1.039,0.905 1.57,1.219 0.538,0.3 1.067,0.479 1.5,0.483 0.107,-0.007 0.216,0.008 0.316,-0.019 l 0.077,-0.01 0.038,-0.004 c 0.12,-0.02 -0.124,0.024 -0.067,0.012 l 0.305,-0.072 0.149,-0.036 0.043,-0.03 c 0.029,-0.018 0.058,-0.031 0.089,-0.042 0.099,-0.055 0.226,-0.112 0.342,-0.182 0.478,-0.298 0.989,-0.758 1.473,-1.312 0.974,-1.117 1.853,-2.544 2.722,-4.057 0.877,-1.519 1.744,-3.14 2.827,-4.792 0.539,-0.832 1.141,-1.667 1.865,-2.501 0.725,-0.832 1.573,-1.681 2.752,-2.435 2.242,-1.387 5.078,-2.054 7.818,-1.642 2.758,0.405 5.067,1.727 6.918,3.167 1.871,1.46 3.401,3.109 4.795,4.806 l 0.131,0.159 0.065,0.08 0.199,0.262 0.221,0.312 0.111,0.156 0.057,0.08 0.093,0.155 0.358,0.635 c 0.261,0.468 0.348,0.759 0.503,1.132 0.155,0.362 0.227,0.693 0.337,1.043 0.366,1.372 0.5,2.631 0.547,3.826 0.086,2.385 -0.095,4.53 -0.227,6.633 -0.144,2.1 -0.269,4.125 -0.277,6.116 -0.028,3.961 0.451,7.778 2.045,11.047 0.376,0.829 0.871,1.591 1.375,2.347 l 0.047,0.072 c -0.159,-0.214 -0.008,-0.013 -0.027,-0.04 l 0.126,0.162 0.251,0.323 c 0.161,0.2 0.351,0.467 0.488,0.611 0.293,0.285 0.489,0.552 0.84,0.872 1.312,1.277 2.898,2.434 4.612,3.473 3.446,2.069 7.348,3.733 11.38,5.07 8.08,2.682 16.646,4.367 25.059,5.436 1.053,0.127 2.096,0.246 3.14,0.345 1.075,0.084 2.148,0.168 3.218,0.251 2.125,0.163 4.215,0.29 6.237,0.366 2.021,0.073 3.984,0.054 5.801,-0.073 1.816,-0.139 3.469,-0.464 4.752,-0.938 0.31,-0.129 0.614,-0.254 0.874,-0.404 0.139,-0.068 0.256,-0.15 0.382,-0.224 -0.042,0.03 0.161,-0.106 -0.083,0.061 l 0.079,-0.056 0.157,-0.112 0.314,-0.223 c 0.478,-0.329 0.697,-0.526 0.989,-0.744 0.272,-0.197 0.662,-0.553 0.987,-0.82 1.38,-1.189 2.761,-2.599 4.227,-3.977 2.952,-2.746 6.017,-5.68 10.02,-7.853 0.498,-0.267 1.01,-0.52 1.561,-0.736 0.522,-0.224 1.122,-0.464 1.521,-0.597 0.851,-0.309 1.842,-0.645 2.721,-0.938 1.741,-0.577 3.455,-1.145 5.142,-1.704 3.302,-1.126 6.393,-2.253 9.138,-3.667 1.38,-0.693 2.638,-1.481 3.835,-2.286 0.574,-0.422 1.16,-0.833 1.684,-1.285 0.523,-0.456 1.031,-0.878 1.563,-1.46 2.034,-2.112 3.9,-4.219 5.489,-6.266 1.589,-2.046 2.958,-4.046 3.846,-5.95 0.437,-0.943 0.752,-1.87 0.845,-2.66 0.094,-0.801 -0.015,-1.384 -0.319,-1.798 l -0.053,-0.084 c 0.027,0.024 -0.059,-0.073 -0.082,-0.104 l -0.219,-0.262 c -0.114,-0.126 -0.222,-0.255 -0.37,-0.395 -0.273,-0.274 -0.568,-0.531 -0.872,-0.765 -0.609,-0.469 -1.248,-0.864 -1.874,-1.191 -1.254,-0.654 -2.423,-1.087 -3.377,-1.417 -0.96,-0.321 -1.719,-0.519 -2.229,-0.641 -0.509,-0.112 -0.771,-0.169 -0.771,-0.169 l 0.068,-0.868 c 0,0 0.286,0.004 0.84,0.013 0.549,0.019 1.361,0.063 2.423,0.193 1.063,0.129 2.373,0.355 3.896,0.845 0.763,0.244 1.577,0.563 2.428,1.006 0.424,0.224 0.859,0.476 1.288,0.787 0.21,0.145 0.439,0.333 0.67,0.527 l 0.277,0.245 c 0.059,0.056 0.057,0.044 0.166,0.156 l 0.171,0.2 c 0.963,1.073 1.302,2.636 1.233,3.946 -0.054,1.345 -0.402,2.584 -0.841,3.793 -0.909,2.402 -2.228,4.705 -3.786,7.02 -1.564,2.317 -3.354,4.631 -5.357,7.01 -0.464,0.554 -1.04,1.211 -1.61,1.851 -0.573,0.639 -1.205,1.223 -1.839,1.823 -1.299,1.15 -2.715,2.21 -4.203,3.176 -2.98,1.928 -6.233,3.582 -9.592,5.025 -1.657,0.7 -3.342,1.412 -5.053,2.135 -0.845,0.36 -1.593,0.679 -2.475,1.081 -0.478,0.199 -0.729,0.353 -1.056,0.54 -0.314,0.161 -0.631,0.366 -0.947,0.587 -2.574,1.673 -5.105,4.307 -7.749,7.206 -1.337,1.455 -2.752,2.951 -4.382,4.5 -0.443,0.398 -0.791,0.749 -1.32,1.185 -0.505,0.422 -1.066,0.888 -1.441,1.133 l -0.313,0.224 -0.156,0.112 -0.079,0.056 -0.246,0.162 c -0.313,0.195 -0.628,0.395 -0.949,0.561 -0.639,0.357 -1.288,0.638 -1.936,0.899 -2.596,1 -5.123,1.31 -7.499,1.405 -2.384,0.106 -4.664,-0.057 -6.894,-0.274 -2.229,-0.217 -4.405,-0.545 -6.562,-0.867 -2.167,-0.332 -4.345,-0.664 -6.532,-0.999 -4.398,-0.725 -8.788,-1.579 -13.168,-2.64 -4.379,-1.053 -8.757,-2.259 -13.079,-3.784 -4.316,-1.527 -8.619,-3.285 -12.712,-5.768 -2.041,-1.248 -4.036,-2.681 -5.86,-4.464 -0.456,-0.42 -0.951,-1.007 -1.411,-1.514 -0.229,-0.261 -0.352,-0.444 -0.533,-0.67 l -0.251,-0.324 -0.125,-0.162 -0.152,-0.202 -0.066,-0.1 c -0.713,-1.053 -1.379,-2.142 -1.925,-3.284 -2.29,-4.57 -2.889,-9.565 -2.914,-14.084 0,-2.271 0.133,-4.478 0.268,-6.574 0.129,-2.092 0.271,-4.121 0.193,-5.876 -0.042,-0.872 -0.115,-1.676 -0.274,-2.292 -0.047,-0.137 -0.069,-0.316 -0.125,-0.421 -0.043,-0.1 -0.104,-0.302 -0.105,-0.275 -0.005,-0.012 -0.004,-0.025 10e-4,-0.043 l 0.004,-0.014 -0.053,-0.077 -0.108,-0.158 -0.216,-0.315 c -0.047,-0.067 0.222,0.296 0.082,0.11 l -0.055,-0.068 -0.109,-0.137 c -1.17,-1.456 -2.398,-2.777 -3.647,-3.805 -1.253,-1.029 -2.514,-1.687 -3.63,-1.873 -0.563,-0.096 -1.108,-0.089 -1.682,0.017 -0.277,0.054 -0.615,0.153 -0.807,0.216 -0.522,0.209 -0.524,0.197 -0.786,0.348 -0.907,0.501 -2.123,1.733 -3.258,2.983 -1.151,1.283 -2.319,2.672 -3.521,4.058 -1.212,1.386 -2.436,2.791 -3.909,4.106 -0.743,0.653 -1.557,1.296 -2.564,1.81 -0.256,0.128 -0.517,0.24 -0.802,0.354 l -0.507,0.161 -0.254,0.071 -0.158,0.029 -0.308,0.056 c 0.005,-0.001 -0.29,0.049 -0.222,0.033 l -0.118,0.008 -0.235,0.015 c -0.314,0.029 -0.621,-0.001 -0.927,-0.023 -1.227,-0.128 -2.245,-0.621 -3.091,-1.148 -0.855,-0.528 -1.563,-1.133 -2.2,-1.751 -1.28,-1.23 -2.314,-2.509 -3.25,-3.785 -1.848,-2.561 -3.388,-5.044 -4.698,-7.426 -0.669,-1.184 -1.252,-2.347 -1.846,-3.452 -0.633,-1.229 -1.08,-2.529 -1.414,-3.718 -0.664,-2.407 -0.975,-4.605 -1.162,-6.587 -0.293,-3.968 -0.197,-7.044 -0.031,-9.14 0.14,-2.093 0.324,-3.205 0.324,-3.205 z"
             id="path1028"
             style="fill:#d52e2e;fill-opacity:1;stroke:#000000;stroke-width:1.89211;stroke-miterlimit:4;stroke-dasharray:none;stroke-opacity:1" />
        </g>
        <g
           id="g1034"
           style="fill:#d52e2e;fill-opacity:1;stroke:#000000;stroke-width:1.89211;stroke-miterlimit:4;stroke-dasharray:none;stroke-opacity:1">
          <path
             d="m 251.247,112.805 c -0.447,-1.303 -0.86,-2.609 -1.269,-3.909 l -1.207,-3.892 -2.352,-7.707 c -0.769,-2.55 -1.589,-5.065 -2.414,-7.536 -0.437,-1.225 -0.847,-2.452 -1.31,-3.636 -0.466,-1.183 -0.913,-2.359 -1.428,-3.459 -0.512,-1.097 -1.026,-2.171 -1.584,-3.086 l -1.011,-1.667 -1.027,-1.744 c -1.351,-2.33 -2.622,-4.736 -3.896,-7.06 -1.272,-2.347 -2.462,-4.726 -3.745,-7.092 -1.273,-2.368 -2.555,-4.738 -3.888,-7.059 l 0.206,0.295 -9.497,-12.985 -4.639,-6.375 c -1.55,-1.99 -3.3,-3.94 -5.134,-5.733 -1.847,-1.786 -3.782,-3.489 -5.893,-4.865 -1.053,-0.688 -2.145,-1.298 -3.274,-1.775 -0.548,-0.238 -1.171,-0.452 -1.68,-0.603 -0.644,-0.128 -1.337,-0.314 -1.94,-0.394 -1.211,-0.208 -2.526,-0.335 -3.819,-0.379 -1.299,-0.049 -2.609,-0.021 -3.92,0.066 -1.312,0.076 -2.624,0.232 -3.931,0.435 -1.302,0.207 -2.618,0.462 -3.878,0.8 l -0.285,-0.823 c 1.286,-0.499 2.574,-0.895 3.891,-1.253 1.315,-0.353 2.646,-0.659 3.997,-0.885 1.348,-0.243 2.716,-0.397 4.096,-0.483 1.387,-0.085 2.755,-0.094 4.205,0.011 0.733,0.034 1.352,0.142 2.033,0.209 0.804,0.116 1.479,0.243 2.198,0.442 1.409,0.387 2.751,0.922 4.038,1.54 2.571,1.244 4.935,2.789 7.15,4.493 2.221,1.713 4.296,3.535 6.299,5.558 l 0.194,0.201 0.099,0.104 0.153,0.185 0.323,0.385 0.647,0.77 1.291,1.542 2.566,3.097 10.267,12.385 0.052,0.068 0.155,0.227 4.599,6.727 2.307,3.377 c 0.761,1.135 1.546,2.257 2.287,3.406 0.747,1.145 1.518,2.285 2.189,3.446 0.698,1.155 1.393,2.312 2.056,3.486 l 0.988,1.767 0.997,1.847 c 0.748,1.448 1.3,2.859 1.774,4.272 0.95,2.815 1.572,5.585 2.061,8.355 0.488,2.765 0.8,5.528 1.016,8.283 0.201,2.759 0.297,5.512 0.265,8.268 -0.035,1.38 -0.046,2.753 -0.14,4.132 -0.082,1.378 -0.186,2.753 -0.372,4.135 z"
             id="path1032"
             style="fill:#d52e2e;fill-opacity:1;stroke:#000000;stroke-width:1.89211;stroke-miterlimit:4;stroke-dasharray:none;stroke-opacity:1" />
        </g>
        <g
           id="g1038"
           style="fill:#d52e2e;fill-opacity:1;stroke:#000000;stroke-width:1.89211;stroke-miterlimit:4;stroke-dasharray:none;stroke-opacity:1">
          <path
             d="m 298.235,69.511 c 0,0 -0.381,0.427 -1.062,1.281 -0.676,0.852 -1.646,2.123 -2.768,3.809 -1.113,1.688 -2.396,3.787 -3.584,6.298 -1.184,2.501 -2.216,5.483 -2.566,8.7 -0.308,3.331 -0.192,7.13 -0.158,11.164 0.019,4.054 0.111,8.347 -0.634,13.039 -0.202,1.177 -0.47,2.385 -0.919,3.64 -0.458,1.243 -1.084,2.592 -2.307,3.832 -0.61,0.61 -1.396,1.165 -2.282,1.522 -0.885,0.363 -1.836,0.516 -2.706,0.512 -0.887,-0.009 -1.648,-0.127 -2.443,-0.348 -0.162,-0.051 -0.221,-0.056 -0.468,-0.146 l -0.628,-0.234 c -0.362,-0.158 -0.722,-0.323 -1.065,-0.518 -1.386,-0.764 -2.541,-1.821 -3.449,-2.951 -0.916,-1.134 -1.613,-2.341 -2.185,-3.554 -1.14,-2.432 -1.802,-4.897 -2.311,-7.334 -0.981,-4.88 -1.293,-9.697 -1.477,-14.379 -0.062,-2.317 -0.123,-4.616 -0.184,-6.888 -0.028,-1.117 -0.061,-2.219 -0.124,-3.256 -0.032,-0.811 -0.108,-1.059 -0.098,-1.877 0.002,-0.347 0,-0.742 0.015,-1.051 l 0.046,-0.912 c 0.145,-2.397 0.468,-4.592 0.771,-6.753 0.318,-2.14 0.629,-4.234 0.932,-6.273 0.597,-4.064 1.409,-7.835 2.52,-11.205 2.234,-6.737 4.836,-12.102 6.91,-15.768 2.085,-3.664 3.638,-5.633 3.638,-5.634 l 0.83,0.264 c 0,0 0.038,0.625 0.035,1.771 -0.004,1.147 -0.055,2.814 -0.201,4.906 -0.307,4.179 -1.067,10.037 -2.585,16.846 -0.765,3.403 -1.914,6.99 -3.233,10.748 -1.275,3.739 -2.506,7.823 -3.217,11.807 l -0.12,0.73 -0.084,0.603 c -0.061,0.286 -0.088,1.152 -0.058,1.454 0.059,1.191 0.079,2.335 0.096,3.479 0.035,2.248 0.071,4.524 0.107,6.818 0.124,4.529 0.39,9.102 1.214,13.426 0.418,2.149 0.984,4.242 1.807,6.052 0.816,1.809 1.914,3.284 3.178,3.984 0.157,0.095 0.321,0.168 0.483,0.247 l 0.178,0.073 c 0.019,0.021 0.242,0.078 0.353,0.116 0.307,0.097 0.68,0.194 0.937,0.213 0.546,0.031 0.778,-0.021 1.205,-0.345 0.413,-0.333 0.875,-1.016 1.229,-1.839 0.362,-0.824 0.651,-1.768 0.884,-2.743 0.911,-3.95 1.141,-8.196 1.42,-12.179 0.268,-4.011 0.421,-7.844 1.029,-11.489 0.082,-0.462 0.165,-0.898 0.278,-1.381 0.096,-0.44 0.231,-0.886 0.374,-1.304 0.139,-0.423 0.277,-0.841 0.413,-1.254 0.162,-0.399 0.322,-0.794 0.48,-1.184 0.642,-1.552 1.385,-2.942 2.125,-4.212 1.499,-2.529 3.033,-4.555 4.36,-6.157 1.328,-1.603 2.448,-2.787 3.226,-3.58 0.777,-0.79 1.222,-1.194 1.222,-1.194 z"
             id="path1036"
             style="fill:#d52e2e;fill-opacity:1;stroke:#000000;stroke-width:1.89211;stroke-miterlimit:4;stroke-dasharray:none;stroke-opacity:1" />
        </g>
        <g
           id="g1042"
           style="fill:#d52e2e;fill-opacity:1;stroke:#000000;stroke-width:1.89211;stroke-miterlimit:4;stroke-dasharray:none;stroke-opacity:1">
          <path
             d="m 316.079,187.567 c 0,0 -0.551,0.702 -1.426,2.003 -0.875,1.286 -2.102,3.161 -3.249,5.449 -0.563,1.14 -1.087,2.409 -1.411,3.662 -0.263,1.219 -0.771,3.184 -1.311,4.782 -0.565,1.654 -1.18,3.303 -1.766,4.949 -0.6,1.638 -1.117,3.301 -1.481,4.955 -0.377,1.651 -0.652,3.25 -1.061,4.714 l -0.078,0.275 -0.011,0.034 c -0.03,0.127 0.035,-0.155 0.026,-0.118 l -0.005,0.02 -0.019,0.081 -0.039,0.16 c -0.05,0.209 -0.112,0.463 -0.115,0.523 -0.044,0.166 -0.106,0.512 -0.158,0.836 -0.107,0.666 -0.185,1.389 -0.264,2.121 -0.117,1.477 -0.207,2.997 -0.259,4.467 -0.055,1.499 -0.106,2.915 -0.155,4.223 -0.093,2.658 -0.252,4.949 -0.384,6.566 -0.14,1.62 -0.285,2.575 -0.286,2.575 l -0.843,0.219 c 0,0 -0.597,-0.779 -1.428,-2.217 -0.82,-1.44 -1.913,-3.531 -2.891,-6.174 -0.489,-1.322 -0.963,-2.779 -1.362,-4.368 -0.399,-1.589 -0.743,-3.309 -0.913,-5.191 -0.089,-0.948 -0.133,-1.933 -0.096,-2.99 0.036,-0.535 0.061,-1.055 0.169,-1.75 0.055,-0.373 0.094,-0.545 0.135,-0.765 l 0.031,-0.162 0.067,-0.305 0.095,-0.362 c 0.485,-1.948 1.389,-3.74 2.344,-5.414 1.845,-3.156 3.69,-6.313 5.421,-9.272 0.409,-0.696 0.817,-1.405 1.155,-2.027 0.176,-0.3 0.354,-0.678 0.53,-1.033 0.198,-0.389 0.394,-0.772 0.587,-1.151 0.857,-1.593 1.871,-2.816 2.821,-3.892 0.956,-1.068 1.874,-1.97 2.731,-2.716 0.854,-0.748 1.598,-1.382 2.247,-1.865 1.28,-0.976 2.055,-1.481 2.055,-1.481 z"
             id="path1040"
             style="fill:#d52e2e;fill-opacity:1;stroke:#000000;stroke-width:1.89211;stroke-miterlimit:4;stroke-dasharray:none;stroke-opacity:1" />
        </g>
        <g
           id="g1046"
           style="fill:#d52e2e;fill-opacity:1;stroke:#000000;stroke-width:1.89211;stroke-miterlimit:4;stroke-dasharray:none;stroke-opacity:1">
          <path
             d="m 261.773,223.445 c 0,0 -0.289,-1.716 -0.794,-4.719 -0.49,-3.007 -1.143,-7.306 -1.783,-12.507 -0.142,-1.305 -0.29,-2.665 -0.442,-4.072 -0.121,-1.394 -0.246,-2.835 -0.375,-4.317 -0.074,-0.746 -0.149,-1.519 -0.291,-2.138 -0.099,-0.644 -0.272,-1.347 -0.448,-2.057 -0.354,-1.414 -0.834,-2.847 -1.381,-4.288 -1.114,-2.881 -2.561,-5.776 -4.146,-8.663 -1.598,-2.883 -3.415,-5.726 -5.332,-8.495 -0.475,-0.695 -0.983,-1.369 -1.472,-2.053 l -1.552,-1.977 c -1.075,-1.411 -2.157,-2.543 -3.219,-3.78 -2.229,-2.442 -4.481,-4.859 -6.613,-7.286 -2.106,-2.438 -4.095,-4.918 -5.875,-7.402 -0.453,-0.604 -0.891,-1.241 -1.309,-1.866 -0.435,-0.644 -0.862,-1.278 -1.283,-1.901 -0.369,-0.625 -0.7,-1.151 -1.079,-1.831 -0.371,-0.652 -0.738,-1.308 -1.029,-1.916 -1.244,-2.453 -2.158,-4.752 -2.893,-6.81 -0.742,-2.053 -1.252,-3.886 -1.646,-5.4 -0.393,-1.514 -0.642,-2.722 -0.792,-3.553 -0.151,-0.829 -0.208,-1.283 -0.208,-1.283 l 0.8,-0.345 c 0,0 0.28,0.346 0.806,0.994 0.522,0.649 1.275,1.604 2.207,2.82 0.924,1.205 2.047,2.667 3.334,4.344 1.272,1.661 2.707,3.515 4.277,5.436 0.396,0.497 0.792,0.927 1.18,1.395 0.37,0.447 0.892,1.006 1.34,1.519 0.913,0.974 1.857,1.98 2.828,3.015 2.014,2.113 4.135,4.387 6.247,6.896 2.096,2.511 4.146,5.256 6.138,8.178 0.979,1.498 2.071,3.036 2.923,4.494 l 0.679,1.106 0.739,1.171 c 0.449,0.772 0.914,1.533 1.349,2.314 3.549,6.187 6.679,12.683 8.471,19.301 0.441,1.655 0.811,3.309 1.05,4.967 0.249,1.583 0.387,3.515 0.328,4.899 l -0.007,0.633 -0.018,0.544 c -0.012,0.361 -0.024,0.72 -0.036,1.076 -0.022,0.714 -0.044,1.417 -0.066,2.107 -0.011,1.393 -0.021,2.739 -0.031,4.03 0.019,2.59 0.018,4.971 0.061,7.083 0.04,2.113 0.075,3.955 0.104,5.472 0.078,3.036 0.123,4.771 0.123,4.771 z"
             id="path1044"
             style="fill:#d52e2e;fill-opacity:1;stroke:#000000;stroke-width:1.89211;stroke-miterlimit:4;stroke-dasharray:none;stroke-opacity:1" />
        </g>
        <g
           id="g1050"
           style="fill:#d52e2e;fill-opacity:1;stroke:#000000;stroke-width:1.89211;stroke-miterlimit:4;stroke-dasharray:none;stroke-opacity:1">
          <path
             d="m 250.01,222.53 c -0.285,-2.069 -0.569,-4.138 -0.813,-6.207 -0.266,-2.069 -0.482,-4.138 -0.718,-6.207 -0.243,-2.069 -0.434,-4.138 -0.646,-6.207 -0.222,-2.069 -0.4,-4.138 -0.563,-6.207 l 0.072,0.669 c -0.554,-1.818 -1.095,-3.639 -1.674,-5.451 l -0.936,-2.704 c -0.312,-0.901 -0.651,-1.797 -0.938,-2.704 -0.293,-0.905 -0.566,-1.815 -0.779,-2.738 -0.213,-0.923 -0.379,-1.855 -0.513,-2.795 -0.236,-1.886 -0.387,-3.791 -0.413,-5.723 l 0.105,0.384 c -0.2,-1.627 -0.328,-3.279 -0.352,-4.964 -0.018,-0.841 0.016,-1.699 0.061,-2.561 0.008,-0.426 0.069,-0.87 0.105,-1.305 0.038,-0.436 0.105,-0.882 0.184,-1.332 l 0.826,-0.275 c 0.333,0.313 0.655,0.629 0.947,0.955 0.289,0.327 0.604,0.645 0.867,0.981 0.553,0.663 1.095,1.329 1.585,2.013 0.992,1.363 1.881,2.761 2.697,4.183 l 0.105,0.384 c 0.772,1.771 1.419,3.568 1.982,5.384 0.265,0.912 0.498,1.83 0.685,2.758 0.186,0.929 0.313,1.87 0.419,2.816 0.111,0.944 0.171,1.9 0.26,2.85 l 0.262,2.85 c 0.219,1.89 0.477,3.772 0.721,5.656 l 0.068,0.52 c 0.006,0.049 0.007,0.102 0.004,0.15 -0.162,2.069 -0.341,4.138 -0.563,6.207 -0.212,2.069 -0.403,4.138 -0.646,6.207 -0.236,2.069 -0.452,4.138 -0.718,6.207 -0.244,2.069 -0.528,4.138 -0.813,6.207 h -0.87 z"
             id="path1048"
             style="fill:#d52e2e;fill-opacity:1;stroke:#000000;stroke-width:1.89211;stroke-miterlimit:4;stroke-dasharray:none;stroke-opacity:1" />
        </g>
        <g
           id="g1054"
           style="fill:#d52e2e;fill-opacity:1;stroke:#000000;stroke-width:1.89211;stroke-miterlimit:4;stroke-dasharray:none;stroke-opacity:1">
          <path
             d="m 230.61,164.917 c 1.341,3.381 2.642,6.773 3.928,10.17 1.255,3.404 2.551,6.798 3.77,10.213 l 0.044,0.186 c 0.664,2.376 1.372,4.744 1.999,7.127 l 1.915,7.144 0.494,1.783 0.268,0.887 0.134,0.444 0.067,0.222 0.033,0.111 0.031,0.159 0.007,0.028 0.014,0.056 0.917,3.589 c 0.317,1.195 0.583,2.397 0.846,3.601 0.252,1.205 0.458,2.417 0.624,3.636 l -0.155,-0.657 c 0.275,0.924 0.503,1.864 0.72,2.806 0.198,0.949 0.414,1.892 0.578,2.851 0.36,1.909 0.634,3.845 0.826,5.807 l 0.123,0.572 c 0.079,3.327 0.116,6.659 0.075,10.001 -0.042,1.673 -0.057,3.343 -0.123,5.019 -0.064,1.676 -0.138,3.353 -0.276,5.038 l -0.865,0.102 c -0.525,-1.606 -0.986,-3.221 -1.437,-4.836 -0.454,-1.615 -0.854,-3.236 -1.284,-4.854 -0.815,-3.241 -1.552,-6.491 -2.247,-9.746 l 0.123,0.571 c -0.969,-1.716 -1.857,-3.458 -2.659,-5.228 -0.417,-0.88 -0.782,-1.776 -1.165,-2.666 -0.363,-0.896 -0.716,-1.796 -1.022,-2.711 -0.051,-0.152 -0.091,-0.306 -0.12,-0.46 l -0.035,-0.197 c -0.218,-1.21 -0.396,-2.427 -0.527,-3.651 -0.121,-1.226 -0.238,-2.452 -0.305,-3.686 l -0.234,-3.698 -0.004,-0.058 -0.002,-0.029 -0.001,-0.015 c -0.021,-0.119 0.028,0.155 0.022,0.124 v -0.007 l -0.01,-0.116 -0.021,-0.231 -0.042,-0.461 -0.083,-0.923 -0.208,-1.838 -0.889,-7.342 c -0.307,-2.445 -0.534,-4.906 -0.804,-7.358 l 0.043,0.186 c -0.717,-3.554 -1.358,-7.13 -2.039,-10.694 -0.651,-3.573 -1.286,-7.15 -1.881,-10.738 z"
             id="path1052"
             style="fill:#d52e2e;fill-opacity:1;stroke:#000000;stroke-width:1.89211;stroke-miterlimit:4;stroke-dasharray:none;stroke-opacity:1" />
        </g>
        <g
           id="g1058"
           style="fill:#d52e2e;fill-opacity:1;stroke:#000000;stroke-width:1.89211;stroke-miterlimit:4;stroke-dasharray:none;stroke-opacity:1">
          <path
             d="m 269.188,179.843 c 0,0 3.783,-0.41 9.452,-0.868 1.417,-0.109 2.953,-0.228 4.577,-0.354 l 0.613,-0.047 0.155,-0.012 0.039,-0.003 0.02,-0.001 c 0.036,0 -0.248,-0.001 -0.118,-0.002 l 0.077,-0.011 0.283,-0.043 c 0.396,-0.063 0.798,-0.126 1.204,-0.191 0.816,-0.14 1.65,-0.29 2.494,-0.462 1.689,-0.337 3.418,-0.75 5.155,-1.173 1.734,-0.436 3.469,-0.937 5.153,-1.51 0.835,-0.308 1.668,-0.598 2.458,-0.97 l 0.299,-0.131 0.037,-0.016 0.019,-0.008 c -0.042,0.013 0.12,-0.042 -0.09,0.028 l 0.08,-0.039 0.159,-0.077 c 0.196,-0.1 0.458,-0.212 0.6,-0.304 l 0.841,-0.563 c 1.256,-0.857 2.516,-1.9 3.809,-2.828 1.297,-0.939 2.619,-1.833 3.928,-2.657 1.296,-0.839 2.557,-1.632 3.757,-2.347 1.191,-0.724 2.328,-1.365 3.358,-1.922 1.021,-0.566 1.969,-1.018 2.75,-1.396 0.784,-0.375 1.424,-0.656 1.872,-0.838 0.445,-0.185 0.694,-0.273 0.694,-0.273 l 0.65,0.579 c 0,0 -0.063,0.264 -0.217,0.729 -0.148,0.468 -0.391,1.138 -0.746,1.955 -0.357,0.814 -0.805,1.799 -1.411,2.853 -0.598,1.063 -1.321,2.227 -2.2,3.427 -0.871,1.208 -1.893,2.458 -3.077,3.702 -1.174,1.257 -2.527,2.49 -4.113,3.596 -1.6,1.094 -3.413,2.05 -5.507,2.796 l -0.805,0.281 -0.908,0.283 c -0.291,0.084 -0.476,0.113 -0.719,0.174 l -0.173,0.04 -0.086,0.02 c -0.224,0.074 -0.075,0.023 -0.131,0.041 l -0.023,0.004 -0.047,0.009 -0.375,0.071 c -1.001,0.189 -1.987,0.393 -2.977,0.556 -3.946,0.667 -7.846,1.019 -11.503,1.018 -0.913,0.009 -1.812,-0.002 -2.691,-0.021 -0.443,-0.015 -0.881,-0.03 -1.314,-0.044 l -0.337,-0.017 -0.078,-0.005 -0.157,-0.001 -0.019,-0.003 -0.039,-0.005 -0.154,-0.021 -0.609,-0.083 c -1.614,-0.221 -3.14,-0.429 -4.548,-0.622 -5.633,-0.791 -9.385,-1.422 -9.385,-1.422 z"
             id="path1056"
             style="fill:#d52e2e;fill-opacity:1;stroke:#000000;stroke-width:1.89211;stroke-miterlimit:4;stroke-dasharray:none;stroke-opacity:1" />
        </g>
        <g
           id="g1062"
           style="fill:#d52e2e;fill-opacity:1;stroke:#000000;stroke-width:1.89211;stroke-miterlimit:4;stroke-dasharray:none;stroke-opacity:1">
          <path
             d="m 246.845,252.922 c -2.036,4.945 -4.208,9.831 -6.518,14.66 -2.297,4.838 -4.721,9.622 -7.399,14.314 -1.342,2.347 -2.728,4.678 -4.29,6.967 -0.396,0.569 -0.778,1.15 -1.187,1.71 l -1.19,1.605 -2.39,3.209 c -3.209,4.298 -6.498,8.51 -9.859,12.687 -3.403,4.149 -6.828,8.265 -10.517,12.303 l -1.397,1.512 -1.489,1.48 -1.653,1.491 -1.594,1.348 c -2.129,1.755 -4.271,3.403 -6.405,5.032 -4.25,3.259 -8.55,6.35 -12.565,9.574 -2.01,1.597 -3.954,3.25 -5.577,4.945 l -1.43,1.45 c -0.473,0.477 -1.024,0.99 -1.533,1.481 -1.032,0.963 -2.021,1.881 -3.049,2.765 -4.067,3.563 -8.183,6.84 -11.986,10.366 -3.79,3.52 -7.332,7.213 -9.671,11.506 -2.529,4.464 -4.201,9.234 -5.359,14.246 -0.598,2.507 -1.036,5.096 -1.523,7.737 -0.25,1.331 -0.492,2.638 -0.793,4.017 -0.268,1.255 -0.631,2.731 -0.98,4.044 -1.437,5.38 -3.48,10.665 -6.382,15.609 -1.45,2.469 -3.12,4.847 -5.042,7.057 l -0.736,0.817 -0.369,0.409 -0.092,0.102 -0.046,0.051 -0.121,0.121 -0.176,0.178 -1.404,1.422 c -0.474,0.475 -0.921,0.948 -1.418,1.423 l -1.572,1.428 -1.578,1.427 -1.568,1.332 c -1.045,0.891 -2.087,1.783 -3.174,2.606 -2.142,1.7 -4.335,3.306 -6.55,4.908 -4.41,3.047 -8.782,6.045 -13.229,8.992 l -0.151,0.1 c -0.032,0.021 -0.068,0.043 -0.101,0.063 -1.149,0.644 -2.105,1.109 -3.171,1.607 -1.044,0.483 -2.101,0.935 -3.179,1.354 -2.157,0.828 -4.4,1.519 -6.767,2.003 -2.375,0.458 -4.89,0.746 -7.609,0.385 -1.352,-0.178 -2.749,-0.517 -4.113,-1.104 -0.681,-0.312 -1.346,-0.659 -1.98,-1.087 -0.325,-0.193 -0.614,-0.451 -0.917,-0.681 l -0.224,-0.178 -0.111,-0.09 -0.117,-0.101 -0.017,-0.019 -0.035,-0.035 -0.29,-0.299 -0.486,-0.529 -0.386,-0.488 c -0.243,-0.33 -0.471,-0.67 -0.67,-1.022 -0.404,-0.703 -0.715,-1.44 -0.939,-2.175 -0.44,-1.479 -0.504,-2.917 -0.43,-4.238 0.172,-2.65 0.91,-4.939 1.852,-7.044 0.916,-2.113 2.067,-4.039 3.318,-5.862 0.612,-0.918 1.305,-1.782 1.986,-2.639 0.691,-0.854 1.419,-1.667 2.204,-2.452 l 0.725,0.483 c -0.376,0.994 -0.731,2.01 -1.083,3.006 -0.359,0.995 -0.656,2.011 -0.979,3 -0.615,1.992 -1.123,3.99 -1.48,5.932 -0.174,0.972 -0.267,1.938 -0.331,2.859 -0.06,0.92 -0.05,1.813 0.07,2.61 0.112,0.799 0.34,1.497 0.626,2.017 0.135,0.265 0.288,0.49 0.455,0.682 0.082,0.098 0.172,0.184 0.262,0.268 l 0.135,0.114 c 0.027,0.011 0.051,0.023 0.07,0.04 l 0.302,0.234 0.039,0.031 0.02,0.015 c 0.085,0.074 -0.105,-0.091 -0.084,-0.073 l 0.006,0.004 0.048,0.029 0.095,0.061 c 0.132,0.075 0.235,0.184 0.379,0.242 0.26,0.15 0.548,0.269 0.841,0.385 0.607,0.207 1.302,0.336 2.06,0.385 1.515,0.101 3.275,-0.146 5.043,-0.571 1.778,-0.448 3.585,-1.086 5.362,-1.86 0.891,-0.38 1.776,-0.792 2.646,-1.23 0.846,-0.425 1.78,-0.931 2.471,-1.35 l -0.252,0.162 c 4.315,-3.111 8.688,-6.195 13.054,-9.185 2.132,-1.475 4.27,-2.972 6.332,-4.542 1.042,-0.777 2.085,-1.543 3.102,-2.337 l 1.539,-1.178 1.447,-1.183 1.452,-1.182 1.496,-1.309 1.5,-1.321 0.188,-0.165 c 0.083,-0.08 -0.061,0.062 -0.032,0.033 l 0.04,-0.04 0.08,-0.079 0.319,-0.316 0.639,-0.631 c 1.676,-1.718 3.201,-3.629 4.575,-5.675 2.749,-4.095 4.883,-8.716 6.481,-13.539 0.416,-1.238 0.739,-2.336 1.082,-3.673 0.319,-1.21 0.622,-2.51 0.918,-3.786 0.591,-2.574 1.178,-5.213 1.844,-7.881 1.337,-5.343 3.395,-10.642 5.962,-15.539 1.3,-2.532 2.934,-4.968 4.631,-7.182 1.738,-2.199 3.555,-4.287 5.435,-6.286 3.763,-3.976 7.712,-7.67 11.519,-11.279 0.943,-0.906 1.901,-1.806 2.788,-2.689 0.437,-0.446 0.855,-0.846 1.308,-1.327 l 1.341,-1.427 c 2.035,-2.179 4.146,-4.002 6.277,-5.75 4.276,-3.467 8.658,-6.561 12.982,-9.619 2.151,-1.534 4.282,-3.068 6.315,-4.636 l 1.496,-1.183 1.356,-1.137 1.388,-1.291 1.361,-1.378 c 3.625,-3.706 7.158,-7.663 10.646,-11.635 l 10.433,-12 2.594,-3.034 1.296,-1.521 1.224,-1.475 c 1.629,-1.977 3.168,-4.102 4.67,-6.257 1.495,-2.163 2.962,-4.361 4.38,-6.597 1.449,-2.217 2.859,-4.466 4.257,-6.725 2.774,-4.531 5.519,-9.098 8.203,-13.702 z"
             id="path1060"
             style="fill:#d52e2e;fill-opacity:1;stroke:#000000;stroke-width:1.89211;stroke-miterlimit:4;stroke-dasharray:none;stroke-opacity:1" />
        </g>
        <g
           id="g1066"
           style="fill:#d52e2e;fill-opacity:1;stroke:#000000;stroke-width:1.89211;stroke-miterlimit:4;stroke-dasharray:none;stroke-opacity:1">
          <path
             d="m 259.591,243.846 c 0,0 0.267,2.525 0.621,6.953 0.361,4.429 0.78,10.761 0.93,18.403 0.064,3.824 0.068,7.971 -0.222,12.404 -0.157,2.22 -0.38,4.506 -0.869,6.907 -0.154,0.68 -0.219,1.113 -0.401,1.777 -0.16,0.632 -0.335,1.238 -0.531,1.827 -0.399,1.185 -0.847,2.369 -1.38,3.518 -2.111,4.615 -5.114,8.887 -8.487,12.778 -3.341,3.916 -7.102,7.516 -10.427,11.119 -2.71,2.769 -4.1,7.241 -5.277,11.901 -1.18,4.676 -2.113,9.611 -3.716,14.448 -0.401,1.209 -0.834,2.414 -1.333,3.605 -0.502,1.208 -1.004,2.334 -1.681,3.554 -0.229,0.453 -0.642,1.119 -1.012,1.717 -0.375,0.583 -0.702,1.075 -1.076,1.591 -0.738,0.985 -1.481,1.921 -2.228,2.81 -3.046,3.497 -6.169,6.342 -9.139,8.859 -2.978,2.499 -5.814,4.624 -8.391,6.417 -1.271,0.916 -2.499,1.725 -3.644,2.458 -1.139,0.74 -2.188,1.412 -3.166,1.98 -3.865,2.331 -6.248,3.417 -6.248,3.417 l -0.544,-0.681 c 0,0 1.578,-2.07 4.474,-5.47 0.711,-0.864 1.526,-1.787 2.404,-2.797 0.873,-1.017 1.817,-2.112 2.847,-3.252 2.024,-2.289 4.309,-4.872 6.8,-7.689 2.453,-2.798 5.131,-5.808 7.655,-9.004 0.644,-0.786 1.26,-1.587 1.851,-2.396 0.266,-0.398 0.601,-0.815 0.844,-1.176 0.234,-0.356 0.457,-0.634 0.769,-1.188 0.951,-1.612 1.832,-3.59 2.59,-5.634 1.544,-4.131 2.733,-8.797 4.214,-13.726 0.755,-2.464 1.594,-5.006 2.78,-7.578 0.595,-1.283 1.281,-2.573 2.121,-3.83 0.796,-1.22 1.97,-2.612 2.964,-3.514 3.894,-3.497 7.688,-6.664 11.116,-10.077 3.401,-3.403 6.511,-6.932 8.717,-10.793 0.563,-0.958 1.044,-1.941 1.488,-2.929 0.217,-0.502 0.428,-0.99 0.604,-1.462 0.182,-0.432 0.39,-1.117 0.53,-1.54 0.566,-2.047 0.936,-4.203 1.227,-6.31 0.568,-4.23 0.846,-8.315 1.039,-12.085 0.365,-7.55 0.365,-13.878 0.383,-18.303 -0.002,-4.427 -0.067,-6.956 -0.067,-6.956 z"
             id="path1064"
             style="fill:#d52e2e;fill-opacity:1;stroke:#000000;stroke-width:1.89211;stroke-miterlimit:4;stroke-dasharray:none;stroke-opacity:1" />
        </g>
        <g
           id="g1070"
           style="fill:#d52e2e;fill-opacity:1;stroke:#000000;stroke-width:1.89211;stroke-miterlimit:4;stroke-dasharray:none;stroke-opacity:1">
          <path
             d="m 294.003,254.328 c 0,0 0.516,6.091 1.128,15.228 0.301,4.568 0.649,9.898 0.966,15.608 0.042,0.713 0.083,1.434 0.125,2.158 l 0.032,0.545 0.016,0.273 c 0.002,0.091 0,-0.086 0.001,-0.056 l 0.003,0.034 0.007,0.062 0.013,0.122 0.119,1.05 c 0.167,1.416 0.344,2.858 0.562,4.302 0.435,2.888 0.965,5.802 1.68,8.631 0.708,2.825 1.662,5.567 2.785,7.998 0.55,1.217 1.152,2.346 1.732,3.352 0.298,0.499 0.61,0.948 0.897,1.37 0.405,0.544 0.809,1.084 1.208,1.621 1.666,2.142 3.276,4.213 4.803,6.176 1.597,2.037 3.105,3.962 4.498,5.739 1.386,1.807 2.651,3.481 3.754,4.993 1.105,1.508 2.034,2.867 2.811,3.977 0.757,1.132 1.358,2.017 1.744,2.647 0.389,0.627 0.596,0.962 0.596,0.962 l -0.588,0.643 c 0,0 -0.361,-0.172 -1.012,-0.523 -0.659,-0.341 -1.589,-0.884 -2.768,-1.584 -1.158,-0.722 -2.573,-1.593 -4.129,-2.672 -1.564,-1.069 -3.278,-2.337 -5.117,-3.765 -1.814,-1.456 -3.771,-3.051 -5.736,-4.881 -1.979,-1.847 -3.987,-3.767 -6.023,-6.22 l -0.669,-0.842 -0.335,-0.424 -0.165,-0.215 -0.141,-0.187 -0.099,-0.144 c -0.551,-0.762 -1.013,-1.552 -1.42,-2.342 -0.831,-1.573 -1.399,-3.187 -1.869,-4.788 -0.901,-3.215 -1.375,-6.415 -1.797,-9.571 -0.408,-3.157 -0.676,-6.287 -0.807,-9.367 -0.064,-1.54 -0.113,-3.064 -0.104,-4.582 l 0.017,-1.145 0.007,-0.384 0.017,-0.273 0.034,-0.544 c 0.045,-0.725 0.09,-1.444 0.134,-2.158 0.341,-5.709 0.712,-11.037 1.032,-15.604 0.65,-9.134 1.192,-15.223 1.192,-15.223 z"
             id="path1068"
             style="fill:#d52e2e;fill-opacity:1;stroke:#000000;stroke-width:1.89211;stroke-miterlimit:4;stroke-dasharray:none;stroke-opacity:1" />
        </g>
        <g
           id="g1074"
           style="fill:#d52e2e;fill-opacity:1;stroke:#000000;stroke-width:1.89211;stroke-miterlimit:4;stroke-dasharray:none;stroke-opacity:1">
          <path
             d="m 347.354,336.857 c -10e-4,0 0.584,1.277 1.597,3.672 1.024,2.392 2.477,5.902 4.286,10.321 1.823,4.401 3.968,9.776 6.713,15.539 1.373,2.844 2.943,5.866 4.758,8.322 0.447,0.601 0.914,1.15 1.353,1.567 0.108,0.098 0.217,0.21 0.318,0.286 l 0.354,0.286 c 0.38,0.304 0.763,0.609 1.147,0.917 0.403,0.337 0.719,0.537 1.07,0.796 0.353,0.247 0.673,0.498 1.053,0.75 0.767,0.497 1.515,1.032 2.323,1.511 6.369,3.958 14.195,7.027 22.984,9.689 0.964,0.299 2.271,0.74 3.274,1.031 1.086,0.328 2.178,0.657 3.277,0.989 2.239,0.632 4.531,1.21 6.863,1.726 4.658,1.004 9.522,1.696 14.332,1.733 0.604,0.013 1.201,0.008 1.794,-0.009 0.599,-0.005 1.195,-0.02 1.775,-0.075 0.589,-0.04 1.179,-0.075 1.741,-0.161 l 0.862,-0.105 0.94,-0.197 c 2.451,-0.53 4.943,-1.172 7.369,-1.945 2.43,-0.775 4.821,-1.687 7.076,-2.823 2.25,-1.127 4.373,-2.499 6.044,-4.178 1.691,-1.664 2.757,-3.692 2.851,-5.814 0.03,-0.265 0.012,-0.535 -0.003,-0.805 l -0.009,-0.203 -0.003,-0.101 c -10e-4,-0.051 0.012,0.099 -0.004,-0.025 -0.027,-0.151 -0.054,-0.374 -0.082,-0.466 l -0.074,-0.26 -0.121,-0.354 c -0.101,-0.241 -0.199,-0.484 -0.33,-0.731 -0.506,-0.989 -1.229,-1.999 -2.055,-2.951 -1.678,-1.896 -3.658,-3.674 -5.756,-5.32 -2.087,-1.667 -4.3,-3.218 -6.537,-4.747 -4.485,-3.048 -9.127,-5.932 -13.698,-8.967 -2.277,-1.531 -4.561,-3.067 -6.818,-4.683 -2.26,-1.622 -4.503,-3.276 -6.713,-5.213 -1.105,-0.986 -2.204,-2.012 -3.297,-3.406 -0.859,-1.124 -1.669,-2.21 -2.428,-3.043 -1.578,-1.813 -3.399,-3.683 -5.246,-5.437 -3.713,-3.553 -7.672,-6.877 -11.531,-10.365 -1.946,-1.746 -3.869,-3.499 -5.784,-5.563 -0.857,-0.984 -1.71,-1.964 -2.559,-2.939 -0.707,-0.775 -1.536,-1.668 -2.354,-2.511 -1.641,-1.704 -3.372,-3.342 -5.086,-4.944 -1.711,-1.611 -3.438,-3.169 -5.172,-4.664 -3.477,-2.976 -6.923,-5.789 -10.385,-8.142 -0.861,-0.595 -1.729,-1.128 -2.582,-1.66 -0.428,-0.246 -0.854,-0.49 -1.279,-0.733 l -0.159,-0.092 -0.079,-0.045 c 0.003,-10e-4 -0.12,-0.063 -0.013,-0.013 l -0.357,-0.187 -0.714,-0.374 c -0.974,-0.543 -1.789,-0.93 -2.661,-1.379 -0.912,-0.423 -1.803,-0.865 -2.726,-1.262 -3.762,-1.61 -7.367,-3.153 -10.796,-4.62 -3.476,-1.539 -6.789,-3.105 -9.755,-4.891 -2.998,-1.748 -5.503,-3.827 -7.886,-5.636 -2.295,-1.91 -4.143,-3.912 -5.677,-5.808 -3.065,-3.799 -4.99,-7.099 -6.254,-9.359 -1.251,-2.271 -1.812,-3.548 -1.812,-3.548 l 0.785,-0.376 c 0,0 0.608,1.21 1.956,3.378 1.356,2.155 3.427,5.303 6.589,8.823 1.583,1.75 3.446,3.591 5.682,5.286 0.574,0.436 1.101,0.808 1.75,1.223 l 0.477,0.307 0.494,0.223 c 0.342,0.154 0.688,0.309 1.035,0.466 1.402,0.604 2.867,1.19 4.407,1.725 6.17,2.186 13.438,3.603 21.532,6.151 1.011,0.308 2.034,0.679 3.073,1.029 1.05,0.397 2.2,0.808 3.146,1.215 l 0.74,0.318 0.371,0.16 0.463,0.232 c 0.527,0.267 1.057,0.535 1.589,0.805 1.029,0.565 2.067,1.136 3.064,1.75 3.991,2.462 7.88,5.189 11.63,8.269 1.885,1.527 3.756,3.117 5.618,4.768 1.841,1.68 3.68,3.397 5.492,5.241 0.909,0.931 1.8,1.837 2.752,2.935 0.781,0.923 1.566,1.85 2.355,2.782 1.51,1.652 3.312,3.393 5.13,5.149 3.688,3.501 7.522,7.16 11.288,11.104 1.894,1.991 3.706,4.025 5.53,6.342 0.973,1.211 1.706,2.322 2.436,3.368 0.528,0.756 1.351,1.637 2.228,2.481 1.78,1.705 3.832,3.374 5.923,5.012 2.102,1.636 4.262,3.265 6.446,4.889 4.354,3.274 8.734,6.64 13.03,10.174 2.151,1.764 4.269,3.587 6.353,5.478 2.063,1.917 4.124,3.865 5.968,6.153 0.926,1.139 1.82,2.356 2.535,3.808 0.182,0.358 0.339,0.747 0.49,1.139 l 0.201,0.615 c 0.064,0.228 0.122,0.487 0.176,0.73 0.051,0.239 0.057,0.356 0.087,0.541 -0.005,-0.04 0.029,0.193 0.029,0.228 l 0.01,0.153 0.02,0.307 c 0.028,0.409 0.053,0.818 0.021,1.232 -0.053,1.652 -0.489,3.297 -1.196,4.745 -0.709,1.452 -1.646,2.724 -2.67,3.843 -2.075,2.225 -4.483,3.877 -6.919,5.316 -2.457,1.403 -4.972,2.601 -7.519,3.626 -2.551,1.034 -5.099,1.923 -7.703,2.708 l -2.006,0.582 c -0.705,0.214 -1.4,0.369 -2.097,0.501 -0.7,0.155 -1.392,0.264 -2.08,0.359 -0.692,0.115 -1.381,0.198 -2.063,0.246 -5.477,0.49 -10.732,0.217 -15.868,-0.167 -2.563,-0.217 -5.094,-0.506 -7.591,-0.863 -1.245,-0.199 -2.482,-0.369 -3.751,-0.629 -1.319,-0.265 -2.302,-0.453 -3.61,-0.785 -4.682,-1.193 -9.27,-2.625 -13.639,-4.367 -4.361,-1.759 -8.498,-3.868 -12.231,-6.358 -0.945,-0.6 -1.841,-1.268 -2.73,-1.917 -0.871,-0.671 -1.865,-1.448 -2.614,-2.093 -0.37,-0.324 -0.739,-0.646 -1.105,-0.966 l -0.274,-0.24 c -0.198,-0.169 -0.11,-0.099 -0.179,-0.161 l -0.096,-0.091 -0.19,-0.183 c -0.262,-0.244 -0.481,-0.486 -0.711,-0.729 -0.892,-0.973 -1.591,-1.931 -2.213,-2.87 -2.41,-3.757 -3.747,-7.286 -4.904,-10.619 -2.22,-6.661 -3.315,-12.514 -4.044,-17.362 -0.707,-4.848 -0.965,-8.688 -1.067,-11.314 -0.107,-2.625 -0.05,-4.041 -0.05,-4.041 z"
             id="path1072"
             style="fill:#d52e2e;fill-opacity:1;stroke:#000000;stroke-width:1.89211;stroke-miterlimit:4;stroke-dasharray:none;stroke-opacity:1" />
        </g>
        <g
           id="g1078"
           style="fill:#d52e2e;fill-opacity:1;stroke:#000000;stroke-width:1.89211;stroke-miterlimit:4;stroke-dasharray:none;stroke-opacity:1">
          <path
             d="m 470.338,547.665 c 0,0 1.687,1.66 4.333,4.795 1.318,1.571 2.904,3.496 4.6,5.797 1.704,2.295 3.572,4.931 5.453,7.936 1.882,3.008 3.812,6.351 5.542,10.191 0.205,0.5 0.411,1.003 0.618,1.509 0.187,0.478 0.389,0.907 0.566,1.434 0.345,1.066 0.747,2.176 1.046,3.256 0.282,1.058 0.584,2.131 0.831,3.217 0.239,1.081 0.458,2.181 0.676,3.285 0.776,4.427 1.177,9.008 1.429,13.649 0.226,4.646 0.38,9.344 0.481,14.055 0.109,4.713 0.194,9.432 0.045,14.163 l -0.09,1.779 -0.044,0.888 -0.022,0.443 -0.006,0.11 -0.02,0.191 -0.019,0.21 c -0.103,1.131 -0.191,2.225 -0.325,3.365 -0.159,1.164 -0.316,2.322 -0.474,3.472 -0.174,1.121 -0.383,2.207 -0.575,3.299 -0.837,4.331 -1.896,8.432 -3.062,12.264 -1.129,3.844 -2.326,7.429 -3.491,10.72 -1.16,3.291 -2.319,6.276 -3.388,8.907 -1.062,2.634 -2.079,4.9 -2.927,6.763 -0.851,1.861 -1.561,3.311 -2.062,4.293 -0.499,0.983 -0.785,1.501 -0.785,1.501 l -0.836,-0.246 c 0,0 0.051,-0.586 0.146,-1.684 0.103,-1.096 0.271,-2.697 0.527,-4.721 0.258,-2.022 0.566,-4.479 1.007,-7.268 0.426,-2.793 0.935,-5.933 1.545,-9.337 0.593,-3.406 1.291,-7.08 2.04,-10.946 0.739,-3.871 1.571,-7.924 2.508,-12.064 0.463,-2.028 0.934,-4.092 1.41,-6.18 0.216,-1.088 0.434,-2.183 0.652,-3.283 l 0.041,-0.208 0.011,-0.052 c 0.006,-0.035 -0.015,0.125 -0.002,0.033 l 0.016,-0.1 0.063,-0.397 0.126,-0.799 0.252,-1.605 c 0.604,-4.328 0.847,-8.854 0.77,-13.371 -0.095,-4.521 -0.499,-9.045 -1.154,-13.445 -0.639,-4.401 -1.432,-8.695 -2.283,-12.771 -0.215,-1.014 -0.427,-2.019 -0.637,-3.015 -0.225,-0.982 -0.446,-1.955 -0.666,-2.917 -0.227,-0.903 -0.45,-1.796 -0.671,-2.679 -0.277,-0.927 -0.551,-1.842 -0.82,-2.745 -1.207,-3.532 -2.604,-6.927 -3.919,-10.058 -1.37,-3.143 -2.626,-6.023 -3.739,-8.576 -1.132,-2.578 -2.119,-4.826 -2.932,-6.677 -0.813,-1.86 -1.445,-3.333 -1.867,-4.345 -0.42,-1.014 -0.644,-1.554 -0.644,-1.554 z"
             id="path1076"
             style="fill:#d52e2e;fill-opacity:1;stroke:#000000;stroke-width:1.89211;stroke-miterlimit:4;stroke-dasharray:none;stroke-opacity:1" />
        </g>
        <g
           id="g1082"
           style="fill:#d52e2e;fill-opacity:1;stroke:#000000;stroke-width:1.89211;stroke-miterlimit:4;stroke-dasharray:none;stroke-opacity:1">
          <path
             d="m 47.395,606.979 c 0,0 -0.024,-0.928 -0.071,-2.667 -0.054,-1.74 -0.1,-4.29 -0.139,-7.536 -0.05,-3.246 -0.045,-7.186 -0.057,-11.705 0.043,-4.518 0.042,-9.618 0.167,-15.177 0.113,-5.56 0.233,-11.585 0.498,-17.956 0.132,-3.188 0.269,-6.462 0.407,-9.81 0.184,-3.347 0.383,-6.768 0.626,-10.255 0.251,-3.491 0.496,-7.035 0.923,-10.691 0.102,-0.908 0.235,-1.846 0.374,-2.789 0.058,-0.458 0.167,-0.978 0.25,-1.466 0.071,-0.465 0.215,-1.055 0.362,-1.631 l 0.054,-0.215 0.028,-0.107 c -0.018,0.048 0.055,-0.188 0.057,-0.191 l 0.099,-0.324 c 0.072,-0.228 0.118,-0.407 0.211,-0.675 0.198,-0.549 0.391,-1.125 0.609,-1.589 0.423,-0.983 0.908,-1.918 1.421,-2.825 2.075,-3.619 4.778,-6.605 7.628,-9.289 2.86,-2.684 5.915,-5.05 8.998,-7.321 1.542,-1.136 3.089,-2.252 4.668,-3.316 l 2.39,-1.642 c 0.793,-0.504 1.51,-0.997 2.364,-1.508 3.3,-2.066 6.493,-3.863 9.649,-5.727 6.306,-3.663 12.306,-7.307 17.902,-11.054 2.811,-1.852 5.509,-3.75 8.113,-5.651 l 0.247,-0.175 0.124,-0.088 0.062,-0.044 c 0.083,-0.063 -0.043,0.038 -0.008,0.01 l 0.494,-0.381 0.984,-0.758 c 0.642,-0.503 1.332,-1.009 1.927,-1.496 1.21,-0.994 2.398,-1.911 3.592,-2.935 4.793,-4.002 9.27,-7.969 13.412,-11.624 4.148,-3.67 7.951,-7.035 11.322,-10.018 1.692,-1.493 3.275,-2.89 4.74,-4.182 1.476,-1.283 2.833,-2.461 4.057,-3.526 2.455,-2.126 4.396,-3.789 5.732,-4.911 1.339,-1.12 2.053,-1.717 2.053,-1.717 l 0.638,0.593 c 0,0 -8.619,12.196 -23.708,28.686 -3.776,4.126 -7.978,8.494 -12.677,12.961 -1.159,1.116 -2.458,2.252 -3.709,3.4 -0.635,0.586 -1.254,1.073 -1.89,1.616 l -0.952,0.798 -0.478,0.401 -0.577,0.453 c -2.702,2.156 -5.611,4.152 -8.6,6.108 -6.027,3.844 -12.605,7.119 -19.146,10.327 -3.258,1.59 -6.543,3.258 -9.565,4.986 -0.741,0.415 -1.559,0.947 -2.335,1.416 -0.678,0.426 -1.495,0.942 -2.221,1.432 -1.471,1.026 -2.935,2.063 -4.334,3.173 -5.574,4.42 -10.518,9.719 -13.703,15.129 -0.389,0.675 -0.749,1.354 -1.046,2.034 l -0.417,0.927 c -0.068,0.154 -0.154,0.408 -0.23,0.607 l -0.118,0.317 c -0.019,0.051 0.043,-0.131 0.011,-0.028 l -0.015,0.057 -0.029,0.113 c -0.078,0.298 -0.168,0.578 -0.245,1.004 -0.076,0.397 -0.168,0.755 -0.233,1.187 -0.144,0.83 -0.285,1.663 -0.403,2.526 -0.505,3.424 -0.946,6.902 -1.335,10.32 -0.396,3.421 -0.744,6.802 -1.08,10.113 -0.349,3.313 -0.69,6.555 -1.022,9.711 -0.646,6.323 -1.258,12.301 -1.822,17.818 -0.584,5.522 -1.12,10.585 -1.595,15.071 -0.51,4.487 -0.955,8.399 -1.321,11.621 -0.378,3.222 -0.683,5.753 -0.91,7.478 -0.217,1.726 -0.333,2.646 -0.333,2.646 z"
             id="path1080"
             style="fill:#d52e2e;fill-opacity:1;stroke:#000000;stroke-width:1.89211;stroke-miterlimit:4;stroke-dasharray:none;stroke-opacity:1" />
        </g>
        <g
           id="g1086"
           style="fill:#d52e2e;fill-opacity:1;stroke:#000000;stroke-width:1.89211;stroke-miterlimit:4;stroke-dasharray:none;stroke-opacity:1">
          <path
             d="m 105.476,507.731 c 0,0 -0.151,2.89 -0.808,7.917 -0.321,2.517 -0.818,5.558 -1.521,9.042 -0.707,3.487 -1.655,7.402 -3.205,11.629 -0.79,2.111 -1.712,4.307 -3.046,6.537 -0.35,0.555 -0.694,1.116 -1.116,1.67 l -0.306,0.418 -0.336,0.417 c -0.196,0.238 -0.354,0.452 -0.584,0.713 -0.979,1.118 -1.913,2.015 -2.957,2.931 -2.062,1.805 -4.33,3.319 -6.546,4.761 -2.205,1.444 -4.408,2.798 -6.152,4.209 -0.875,0.694 -1.587,1.425 -2.119,2.114 -0.536,0.697 -0.864,1.362 -1.062,2.104 -0.097,0.374 -0.178,0.766 -0.202,1.202 -0.042,0.4 -0.022,0.962 0.006,1.328 0.016,0.238 0.032,0.201 0.036,0.238 l 0.006,0.052 0.033,0.136 c 0.033,0.177 0.103,0.384 0.168,0.592 0.135,0.421 0.355,0.898 0.597,1.384 0.495,0.979 1.162,2.021 1.905,3.061 0.73,1.05 1.549,2.106 2.405,3.159 1.726,2.101 3.583,4.216 5.477,6.339 3.796,4.245 7.708,8.556 11.328,13.105 3.584,4.567 7.043,9.313 9.289,14.801 0.551,1.373 1.013,2.794 1.338,4.262 0.158,0.735 0.286,1.479 0.368,2.233 l 0.054,0.566 0.028,0.341 0.012,0.244 c 0.013,0.326 0.034,0.65 0.06,0.974 0.142,2.819 -0.183,5.464 -0.515,7.989 -0.731,5.053 -1.864,9.664 -3.054,13.86 -1.188,4.196 -2.454,7.972 -3.629,11.292 -1.184,3.317 -2.285,6.179 -3.226,8.52 -1.88,4.684 -3.086,7.302 -3.086,7.302 -0.06,0.132 -0.215,0.19 -0.346,0.131 -0.124,-0.057 -0.182,-0.199 -0.139,-0.324 0,0 0.944,-2.712 2.357,-7.528 0.708,-2.408 1.523,-5.344 2.373,-8.726 0.842,-3.384 1.727,-7.215 2.488,-11.413 0.764,-4.193 1.421,-8.768 1.646,-13.546 0.127,-2.388 0.038,-4.825 -0.125,-7.183 -0.021,-0.323 -0.045,-0.647 -0.078,-0.972 l -0.022,-0.243 c 0.004,0.049 -0.019,-0.104 -0.026,-0.146 l -0.066,-0.407 c -0.095,-0.544 -0.228,-1.092 -0.383,-1.641 -0.32,-1.099 -0.756,-2.202 -1.281,-3.297 -2.123,-4.396 -5.522,-8.594 -9.254,-12.611 -3.747,-4.037 -7.881,-7.939 -11.975,-12.045 -2.048,-2.056 -4.103,-4.151 -6.074,-6.42 -1.975,-2.277 -3.92,-4.643 -5.543,-7.688 -0.796,-1.557 -1.546,-3.212 -1.833,-5.56 l -0.027,-0.261 -0.025,-0.309 -0.004,-0.174 -0.012,-0.697 c -0.018,-0.459 0.019,-0.94 0.054,-1.418 0.068,-0.953 0.25,-1.934 0.518,-2.896 0.529,-1.938 1.594,-3.721 2.783,-5.138 1.198,-1.433 2.548,-2.502 3.838,-3.404 2.612,-1.769 5.113,-2.889 7.41,-4.007 2.29,-1.114 4.406,-2.182 6.246,-3.411 0.905,-0.599 1.819,-1.294 2.515,-1.895 0.193,-0.164 0.426,-0.402 0.636,-0.599 l 0.161,-0.155 0.081,-0.077 c 0.059,-0.063 -0.034,0.044 -0.014,0.021 l 0.031,-0.033 0.254,-0.271 c 0.346,-0.345 0.666,-0.748 0.991,-1.139 1.272,-1.619 2.353,-3.464 3.304,-5.289 1.891,-3.68 3.282,-7.333 4.479,-10.579 1.184,-3.259 2.055,-6.171 2.793,-8.567 0.726,-2.4 1.242,-4.308 1.591,-5.608 0.342,-1.303 0.525,-1.998 0.525,-1.998 0.036,-0.14 0.179,-0.225 0.32,-0.188 0.119,0.033 0.199,0.147 0.193,0.269 z"
             id="path1084"
             style="fill:#d52e2e;fill-opacity:1;stroke:#000000;stroke-width:1.89211;stroke-miterlimit:4;stroke-dasharray:none;stroke-opacity:1" />
        </g>
        <g
           id="g1090"
           style="fill:#d52e2e;fill-opacity:1;stroke:#000000;stroke-width:1.89211;stroke-miterlimit:4;stroke-dasharray:none;stroke-opacity:1">
          <path
             d="m 47.9,726.883 c 0,0 0.625,4.674 1.984,12.81 0.681,4.065 1.509,9.002 2.637,14.618 0.572,2.805 1.191,5.788 1.953,8.892 0.738,3.106 1.62,6.354 2.76,9.567 1.133,3.206 2.681,6.487 4.364,9.853 1.705,3.355 3.57,6.784 5.59,10.25 4.057,6.906 8.639,14.087 14.028,20.814 1.352,1.67 2.761,3.302 4.242,4.809 0.752,0.743 1.481,1.456 2.291,2.109 l 1.306,1.087 1.252,0.964 c 3.418,2.61 7.222,4.806 11.286,6.693 4.061,1.901 8.408,3.559 12.794,5.382 l 1.648,0.69 0.745,0.312 0.821,0.324 c 0.541,0.208 1.11,0.451 1.627,0.631 l 1.53,0.518 c 1.012,0.347 2.146,0.648 3.213,0.976 1.104,0.281 2.194,0.59 3.307,0.852 8.871,2.108 18.146,3.349 26.936,3.346 2.167,-0.041 4.348,-0.092 6.316,-0.398 l 0.747,-0.097 0.781,-0.136 1.691,-0.291 c 1.082,-0.211 2.162,-0.421 3.237,-0.63 4.408,-0.899 8.873,-1.767 13.305,-2.507 4.44,-0.702 8.852,-1.318 13.212,-1.657 4.361,-0.345 8.657,-0.495 12.846,-0.457 4.192,0.109 8.27,0.445 12.19,0.969 2.036,0.281 3.762,0.542 5.647,0.884 1.856,0.357 3.706,0.671 5.445,1.061 7.027,1.448 13.343,3.135 18.911,4.709 5.566,1.575 10.365,3.109 14.303,4.401 3.932,1.317 7.006,2.388 9.088,3.164 2.082,0.776 3.192,1.19 3.192,1.19 l -0.249,0.834 c 0,0 -1.155,-0.241 -3.321,-0.695 -2.168,-0.438 -5.349,-1.078 -9.397,-1.894 -4.041,-0.823 -8.961,-1.752 -14.597,-2.776 -5.635,-1.013 -12.005,-2.07 -18.932,-2.99 -1.741,-0.251 -3.474,-0.403 -5.256,-0.608 -0.874,-0.109 -1.829,-0.161 -2.755,-0.247 -0.467,-0.042 -0.936,-0.085 -1.407,-0.128 l -0.708,-0.064 -0.177,-0.017 c -0.006,0 -0.112,-0.012 -0.036,-0.002 l -0.086,-0.003 -0.345,-0.014 c -3.676,-0.191 -7.486,-0.2 -11.402,0.012 -3.918,0.194 -7.941,0.547 -12.047,1.103 -4.103,0.595 -8.299,1.25 -12.571,2.074 -4.284,0.774 -8.631,1.701 -13.163,2.521 -1.162,0.204 -2.328,0.408 -3.496,0.614 l -1.703,0.262 -0.921,0.13 -0.967,0.095 c -2.6,0.29 -5.058,0.252 -7.531,0.201 -4.903,-0.228 -9.702,-0.844 -14.47,-1.683 -4.764,-0.848 -9.494,-1.892 -14.178,-3.23 -1.172,-0.328 -2.337,-0.709 -3.505,-1.062 -1.173,-0.412 -2.307,-0.764 -3.507,-1.229 l -1.792,-0.686 c -0.587,-0.229 -1.094,-0.467 -1.644,-0.7 l -0.81,-0.351 -0.871,-0.396 -1.582,-0.726 c -4.23,-1.926 -8.583,-3.744 -12.87,-5.923 -4.289,-2.165 -8.435,-4.729 -12.157,-7.774 l -1.408,-1.167 -1.261,-1.139 c -0.918,-0.809 -1.784,-1.692 -2.599,-2.557 -1.614,-1.75 -3.063,-3.547 -4.438,-5.358 -5.448,-7.266 -9.851,-14.697 -13.781,-21.892 -1.951,-3.604 -3.75,-7.162 -5.367,-10.675 -0.807,-1.758 -1.569,-3.504 -2.276,-5.244 -0.711,-1.761 -1.373,-3.463 -1.872,-5.253 -1.024,-3.523 -1.722,-6.883 -2.292,-10.09 -0.591,-3.203 -1.041,-6.245 -1.453,-9.104 -0.798,-5.721 -1.365,-10.713 -1.777,-14.83 -0.807,-8.233 -1.115,-12.95 -1.115,-12.95 z"
             id="path1088"
             style="fill:#d52e2e;fill-opacity:1;stroke:#000000;stroke-width:1.89211;stroke-miterlimit:4;stroke-dasharray:none;stroke-opacity:1" />
        </g>
        <g
           id="g1094"
           style="fill:#d52e2e;fill-opacity:1;stroke:#000000;stroke-width:1.89211;stroke-miterlimit:4;stroke-dasharray:none;stroke-opacity:1">
          <path
             d="m 519.27,730.144 c -0.049,5.268 0.107,10.543 0.39,15.789 0.154,2.622 0.343,5.24 0.625,7.838 0.149,1.296 0.298,2.594 0.5,3.873 l 0.307,1.918 0.381,1.888 c 0.114,0.634 0.308,1.229 0.456,1.845 0.083,0.295 0.151,0.631 0.245,0.893 l 0.3,0.944 c 0.396,1.289 0.826,2.421 1.283,3.648 0.914,2.425 1.945,4.82 3.022,7.196 1.075,2.377 2.218,4.729 3.38,7.07 1.164,2.333 2.376,4.676 3.612,6.934 l 0.034,0.07 0.066,0.149 c 1.72,3.897 3.521,7.803 5.394,11.617 l 1.421,2.844 1.462,2.782 0.766,1.313 0.382,0.655 0.19,0.328 0.047,0.082 c -0.018,-0.028 0.073,0.121 -0.033,-0.053 l 0.027,0.042 0.112,0.168 c 0.293,0.428 0.613,0.955 0.87,1.253 0.271,0.346 0.517,0.686 0.857,1.076 2.55,3.037 5.676,5.907 8.848,8.688 1.594,1.395 3.22,2.767 4.867,4.148 l 2.495,2.104 0.273,0.231 0.218,0.175 c 0.144,0.11 0.316,0.239 0.496,0.362 0.359,0.25 0.758,0.505 1.176,0.759 1.688,1.018 3.608,2.014 5.542,3.105 1.94,1.107 3.931,2.258 5.936,3.913 0.993,0.845 2.023,1.819 2.927,3.277 0.442,0.732 0.846,1.61 1.058,2.638 0.217,1.017 0.203,2.169 -0.046,3.181 -0.116,0.516 -0.292,0.979 -0.483,1.425 l -0.153,0.317 -0.079,0.156 -0.039,0.078 -0.101,0.176 -0.203,0.35 -0.102,0.174 -0.173,0.264 -0.38,0.547 c -0.253,0.341 -0.481,0.608 -0.733,0.905 -1.016,1.128 -2.189,2.036 -3.403,2.75 -2.443,1.423 -5.012,2.113 -7.531,2.458 -2.528,0.329 -5.04,0.289 -7.545,-0.096 -1.253,-0.195 -2.506,-0.48 -3.761,-0.888 -0.313,-0.096 -0.628,-0.218 -0.941,-0.331 -0.156,-0.055 -0.314,-0.124 -0.471,-0.188 l -0.236,-0.098 -0.117,-0.05 -0.059,-0.024 -0.207,-0.098 c -0.491,-0.244 -0.949,-0.457 -1.468,-0.729 l -1.672,-0.954 -1.466,-0.904 c -0.977,-0.596 -1.871,-1.21 -2.811,-1.815 -3.658,-2.446 -7.195,-4.929 -10.705,-7.41 -3.518,-2.458 -7.006,-4.933 -10.485,-7.214 -1.728,-1.119 -3.511,-2.234 -5.084,-3.036 -0.358,-0.194 -0.858,-0.442 -1.35,-0.67 l -1.484,-0.718 c -1.019,-0.498 -1.981,-0.971 -2.937,-1.479 -1.909,-1 -3.773,-1.969 -5.608,-2.851 -1.823,-0.907 -3.627,-1.713 -5.427,-2.336 -0.9,-0.313 -1.799,-0.566 -2.698,-0.789 l -1.349,-0.27 c -0.468,-0.063 -0.856,-0.148 -1.393,-0.217 -2.135,-0.265 -4.356,-0.548 -6.563,-0.915 -4.422,-0.719 -8.993,-1.984 -13.124,-4.12 -1.044,-0.561 -1.979,-1.11 -3.033,-1.783 l -0.342,-0.225 -0.413,-0.296 c -0.286,-0.2 -0.527,-0.396 -0.757,-0.588 -0.473,-0.386 -0.913,-0.788 -1.33,-1.201 -1.662,-1.66 -3.023,-3.453 -4.284,-5.282 -2.5,-3.673 -4.535,-7.538 -6.281,-11.541 l 0.766,-0.414 c 2.467,3.511 5.123,6.91 7.973,9.996 1.425,1.536 2.935,2.981 4.515,4.163 0.389,0.301 0.786,0.579 1.184,0.826 0.202,0.131 0.398,0.251 0.568,0.337 l 0.263,0.146 0.359,0.177 c 0.829,0.374 1.853,0.728 2.781,1.032 1.921,0.576 3.854,1.051 5.845,1.337 1.985,0.301 4.017,0.434 6.08,0.558 2.075,0.109 4.152,0.142 6.316,0.166 2.42,0.009 4.941,0.447 7.248,1.048 2.331,0.607 4.537,1.405 6.646,2.257 2.099,0.879 4.094,1.827 6.046,2.74 l 5.845,2.806 c 2.276,1.139 4.122,2.365 5.993,3.61 3.703,2.483 7.197,5.064 10.657,7.663 3.465,2.579 6.869,5.207 10.283,7.687 0.849,0.595 1.707,1.236 2.549,1.795 l 1.251,0.845 1.102,0.705 c 0.425,0.249 0.934,0.511 1.396,0.766 0.05,0.025 -0.263,-0.125 -0.114,-0.055 l 0.034,0.016 0.067,0.03 0.136,0.062 c 0.092,0.04 0.179,0.085 0.275,0.12 0.191,0.074 0.376,0.157 0.576,0.223 0.786,0.283 1.634,0.509 2.505,0.672 3.468,0.645 7.412,0.3 10.063,-1.15 0.651,-0.36 1.206,-0.779 1.649,-1.238 l 0.294,-0.341 c 0.027,-0.038 0.058,-0.075 0.09,-0.11 0.02,-0.025 0.025,-0.019 0.058,-0.068 l 0.106,-0.172 0.211,-0.345 c -0.024,0.045 0.094,-0.159 -0.049,0.089 l 0.006,-0.012 0.012,-0.023 0.026,-0.045 c 0.019,-0.051 0.044,-0.089 0.043,-0.101 0.013,-0.033 0.014,0.015 0.016,-0.023 0.002,-0.03 -0.031,-0.154 -0.14,-0.346 -0.217,-0.39 -0.722,-0.97 -1.362,-1.521 -1.296,-1.125 -3.016,-2.208 -4.798,-3.259 -1.798,-1.064 -3.689,-2.084 -5.672,-3.324 -0.498,-0.313 -1.003,-0.645 -1.523,-1.018 -0.262,-0.187 -0.52,-0.382 -0.799,-0.604 l -0.405,-0.338 -0.337,-0.299 -2.387,-2.133 c -1.613,-1.435 -3.239,-2.89 -4.847,-4.379 -3.212,-2.996 -6.393,-6.048 -9.29,-9.698 -0.355,-0.432 -0.736,-0.97 -1.105,-1.49 -0.408,-0.551 -0.63,-0.959 -0.932,-1.428 l -0.107,-0.172 -0.026,-0.043 c -0.125,-0.202 -0.049,-0.083 -0.083,-0.141 l -0.05,-0.096 -0.197,-0.381 -0.395,-0.761 -0.786,-1.522 -1.396,-3.016 c -0.45,-1.003 -0.866,-2.013 -1.298,-3.02 -1.682,-4.036 -3.248,-8.065 -4.761,-12.156 l 0.101,0.22 c -1.172,-2.441 -2.26,-4.852 -3.325,-7.304 -1.063,-2.445 -2.06,-4.922 -3.016,-7.418 -0.951,-2.498 -1.856,-5.017 -2.648,-7.59 -0.389,-1.271 -0.806,-2.643 -1.106,-3.899 l -0.241,-0.961 c -0.103,-0.368 -0.143,-0.686 -0.217,-1.031 -0.121,-0.676 -0.29,-1.354 -0.368,-2.026 l -0.277,-2.018 -0.194,-2.01 c -0.126,-1.339 -0.194,-2.674 -0.264,-4.008 -0.122,-2.667 -0.146,-5.325 -0.137,-7.98 0.021,-2.654 0.114,-5.305 0.235,-7.951 0.13,-2.646 0.291,-5.287 0.509,-7.929 z"
             id="path1092"
             style="fill:#d52e2e;fill-opacity:1;stroke:#000000;stroke-width:1.89211;stroke-miterlimit:4;stroke-dasharray:none;stroke-opacity:1" />
        </g>
        <path
           d="m 451.255,628.052 c -7.46,-44.505 -33.291,-68.084 -73.236,-86.577 -10.161,-4.705 -19.207,-7.938 -30.033,-10.826 -10.319,-2.755 -9.109,-3.81 -9.109,-14.231 0,-24.35 0,-48.699 0,-73.05 17.989,8.997 32.748,17.94 47.01,32.202 6.67,6.67 12.315,14.656 18.337,21.909 6.232,7.513 14.865,4.693 24.382,4.693 -5.439,-31.411 -16.317,-94.235 -16.317,-94.235 l -17.141,-6.071 c 0,0 -17.029,19.723 -34.665,19.723 -22.817,0 -21.605,2.387 -21.605,-20.02 0,-7.505 4.538,-32.802 -4.312,-37.509 -32.073,-17.061 -23.146,39.573 -23.146,54.775 -18.75,-1.863 -35.218,-1.622 -54.012,0.227 0,-11.644 8.448,-57.583 -11.388,-57.583 -25.74,0 -15.618,43.255 -15.618,60.625 0,0.105 -53.826,18.517 -59.542,22.603 -17.498,12.51 -39.379,32.446 -41.602,55.792 -2.478,26.021 -4.905,49.41 6.231,73.505 9.916,21.451 31.29,33.271 51.405,43.89 11.192,5.909 21.311,9.515 33.473,13.241 11.587,3.551 10.034,3.913 10.034,16.181 0,29.227 0,58.454 0,87.68 -22.143,-9.754 -44.34,-26.456 -60.528,-44.654 -7.977,-8.969 -14.248,-21.505 -20.974,-31.474 -10.364,-15.364 -7.494,-17.386 -26.521,-21.667 3.222,24.164 6.444,48.33 9.666,72.494 1.787,13.406 0.579,63.987 0.579,63.987 l 13.276,2.468 c 0,0 27.171,-28.748 48.829,-28.748 8.759,0 17.66,0.906 26.37,1.859 13.728,1.499 9.304,7.676 9.304,20.928 0,18.388 -6.248,42.515 19.618,39.282 14.163,-1.77 7.388,-47.883 7.388,-56.912 18.138,1.424 35.848,1.637 54.012,0.924 0,14.51 0,29.02 0,43.528 0,10.008 12.553,18.599 22.23,12.242 9.891,-6.496 5.228,-30.082 5.228,-39.209 0,-3.083 0,-20.013 0,-20.013 0,0 18.122,-3.531 39.622,-12.531 21.5,-9 84.896,-48.737 72.755,-109.448 z M 252.632,477.778 C 245,449 280.5,421.5 307.933,431.477 c 0.567,23.523 3.485,75.203 3.485,86.897 -23.462,-6.649 -51.154,-11.817 -58.786,-40.596 z m 67.079,237.389 c -6.131,13.67 -17.905,20.276 -28.558,22.555 -10.653,2.279 -33.747,4.847 -33.747,0.739 0,-32.007 0,-64.012 0,-96.018 19.73,5.436 37.215,14.451 51.654,24.504 14.439,10.053 17.429,33.107 10.651,48.22 z"
           id="path1096"
           style="fill:#d52e2e;fill-opacity:1;stroke:#000000;stroke-width:1.89211;stroke-miterlimit:4;stroke-dasharray:none;stroke-opacity:1" />
        <g
           id="g1100"
           style="fill:#d52e2e;fill-opacity:1;stroke:#000000;stroke-width:1.89211;stroke-miterlimit:4;stroke-dasharray:none;stroke-opacity:1">
          <path
             d="m 69.855,841.019 c 0,0 -0.086,1.835 -0.524,5.039 -0.209,1.605 -0.541,3.547 -1.078,5.754 -0.541,2.206 -1.213,4.706 -2.32,7.368 -1.14,2.638 -2.581,5.534 -5.25,8.196 -0.339,0.326 -0.714,0.639 -1.084,0.957 -0.409,0.29 -0.797,0.606 -1.247,0.872 l -0.683,0.396 -0.173,0.098 -0.043,0.024 -0.087,0.041 -0.068,0.033 -0.274,0.134 -0.553,0.269 -0.654,0.287 c -1.709,0.742 -3.437,1.318 -5.257,1.791 -3.625,0.909 -7.479,1.463 -11.455,1.221 -1.987,-0.111 -4.016,-0.321 -6.072,-0.899 -1.031,-0.278 -2.073,-0.617 -3.142,-1.08 -1.067,-0.47 -2.168,-1.043 -3.303,-1.955 -2.295,-1.938 -3.475,-4.542 -3.93,-7.022 -0.447,-2.505 -0.236,-5.034 0.602,-7.297 0.83,-2.266 2.209,-4.239 3.834,-5.78 1.618,-1.561 3.506,-2.648 5.374,-3.402 l 0.8,-0.317 0.609,-0.189 c 0.405,-0.126 0.808,-0.252 1.209,-0.376 0.847,-0.244 1.767,-0.47 2.627,-0.694 1.682,-0.379 3.298,-0.71 4.875,-0.982 3.15,-0.554 6.115,-0.975 8.857,-1.287 2.74,-0.322 5.244,-0.605 7.476,-0.76 2.23,-0.165 4.169,-0.317 5.774,-0.385 3.208,-0.112 5.04,-0.177 5.04,-0.177 0.064,-0.002 0.118,0.048 0.121,0.112 0,0 -10e-4,0.007 -10e-4,0.01 z m -0.252,0.13 c -0.196,0.053 -0.569,0.152 -1.11,0.297 -0.831,0.21 -2.048,0.517 -3.598,0.907 -1.549,0.371 -3.431,0.821 -5.589,1.338 -2.147,0.559 -4.593,1.047 -7.232,1.696 -1.322,0.313 -2.693,0.657 -4.106,1.026 -1.419,0.339 -2.883,0.702 -4.371,1.108 -1.492,0.396 -3.006,0.851 -4.526,1.335 -0.736,0.255 -1.468,0.475 -2.233,0.753 -0.39,0.154 -0.781,0.309 -1.175,0.464 l -0.591,0.233 -0.464,0.223 c -2.744,1.323 -5.153,3.499 -6.125,6.412 -0.489,1.433 -0.62,3.006 -0.339,4.489 0.269,1.482 0.985,2.861 2.034,3.752 1.082,0.923 2.688,1.601 4.3,2.079 1.63,0.485 3.344,0.786 5.058,0.969 3.434,0.341 6.895,0.263 10.164,-0.289 1.632,-0.272 3.231,-0.655 4.73,-1.159 1.568,-0.507 2.858,-1.092 4.014,-2.061 2.296,-1.888 3.931,-4.368 5.219,-6.715 1.289,-2.367 2.243,-4.671 3.012,-6.738 0.76,-2.072 1.335,-3.914 1.768,-5.442 0.707,-2.514 1.056,-4.169 1.16,-4.677 z"
             id="path1098"
             style="fill:#d52e2e;fill-opacity:1;stroke:#000000;stroke-width:1.89211;stroke-miterlimit:4;stroke-dasharray:none;stroke-opacity:1" />
        </g>
        <path
           fill="none"
           stroke="#000000"
           stroke-width="12"
           stroke-linecap="round"
           stroke-linejoin="round"
           d="m 308,236 c 0,0 -23,30 -70,-1"
           id="path1102"
           style="fill:#d52e2e;fill-opacity:1;stroke:#000000;stroke-width:1.89211;stroke-miterlimit:4;stroke-dasharray:none;stroke-opacity:1" />
      </g>
    </g>
  </g>
</svg>
