<?xml version="1.0" encoding="UTF-8" standalone="no"?>
<!-- Created with Inkscape (http://www.inkscape.org/) -->

<svg
   width="95.860008mm"
   height="106.86mm"
   viewBox="0 0 95.860008 106.86"
   version="1.1"
   id="svg11418"
   inkscape:version="1.1.1 (3bf5ae0d25, 2021-09-20)"
   sodipodi:docname="Barber_v2.svg"
   xmlns:inkscape="http://www.inkscape.org/namespaces/inkscape"
   xmlns:sodipodi="http://sodipodi.sourceforge.net/DTD/sodipodi-0.dtd"
   xmlns="http://www.w3.org/2000/svg"
   xmlns:svg="http://www.w3.org/2000/svg">
  <sodipodi:namedview
     id="namedview11420"
     pagecolor="#ffffff"
     bordercolor="#999999"
     borderopacity="1"
     inkscape:pageshadow="0"
     inkscape:pageopacity="0"
     inkscape:pagecheckerboard="0"
     inkscape:document-units="mm"
     showgrid="false"
     inkscape:zoom="0.72337262"
     inkscape:cx="162.43357"
     inkscape:cy="191.46426"
     inkscape:window-width="1920"
     inkscape:window-height="1001"
     inkscape:window-x="-9"
     inkscape:window-y="-9"
     inkscape:window-maximized="1"
     inkscape:current-layer="layer1" />
  <defs
     id="defs11415" />
  <g
     inkscape:label="Calque 1"
     inkscape:groupmode="layer"
     id="layer1"
     transform="translate(-62.028684,-98.005274)">
    <g
       id="g1547">
      <ellipse
         style="fill:#e6e6e6;fill-opacity:1;stroke:#000000;stroke-width:1.03262;stroke-miterlimit:4;stroke-dasharray:none;stroke-opacity:1;paint-order:stroke markers fill"
         id="path11913"
         cx="109.95869"
         cy="151.43527"
         rx="47.413692"
         ry="52.913689" />
      <g
         clip-rule="evenodd"
         fill-rule="evenodd"
         id="g1249"
         transform="matrix(0.20545011,0,0,0.18697651,63.912099,125.16109)"
         style="fill:#d52e2e;fill-opacity:1;stroke:#000000;stroke-opacity:1;stroke-width:0.51021508;stroke-miterlimit:4;stroke-dasharray:none">
	<path
   d="m 341.48,24.182 c 2.417,-0.242 0.953,0.638 0.512,1.535 -58.558,19.369 -114.55,41.297 -173.92,59.851 6.16,-4.389 13.963,-5.889 20.973,-8.185 36.026,-11.795 71.45,-25.169 107.42,-37.854 14.99,-5.287 30.21,-9.886 45.02,-15.347 z"
   id="path1107"
   style="fill:#d52e2e;fill-opacity:1;stroke:#000000;stroke-opacity:1;stroke-width:0.51021508;stroke-miterlimit:4;stroke-dasharray:none" />

	<path
   fill="#eff0f0"
   d="m 149.65,88.636 c 2.231,1.179 2.066,4.754 3.069,7.162 -2.228,-0.5 -3.09,-2.366 -4.604,-3.581 -16.8,5.14 -34.193,11.754 -51.666,17.393 -5.382,1.737 -11.078,5.616 -16.369,3.581 4.645,-3.95 11.091,-4.72 16.881,-6.65 16.588,-5.529 34.733,-12.271 52.177,-17.904 h 0.51 z"
   id="path1109"
   style="fill:#d52e2e;fill-opacity:1;stroke:#000000;stroke-opacity:1;stroke-width:0.51021508;stroke-miterlimit:4;stroke-dasharray:none" />

	<path
   fill="#a99a6f"
   d="m 29.437,93.751 c 2.208,5.491 5.708,12.331 6.138,17.904 -4.561,-2.86 -7.805,-12.198 -6.138,-17.909 z"
   id="path1111"
   style="fill:#d52e2e;fill-opacity:1;stroke:#000000;stroke-opacity:1;stroke-width:0.51021508;stroke-miterlimit:4;stroke-dasharray:none" />

	<path
   d="m 53.479,101.42 c -0.507,1.368 -1.054,2.697 -1.023,4.604 -1.612,-0.8 -1.438,-4.93 1.023,-4.6 z"
   id="path1113"
   style="fill:#d52e2e;fill-opacity:1;stroke:#000000;stroke-opacity:1;stroke-width:0.51021508;stroke-miterlimit:4;stroke-dasharray:none" />

	<path
   fill="#a99a6f"
   d="m 55.014,115.24 c -0.299,-3.523 2.492,-5.576 5.627,-4.092 3.921,4.35 -3.317,8.55 -5.627,4.09 z m 2.046,0 c 5.321,-0.77 -1.885,-4.54 0,0 z"
   id="path1115"
   style="fill:#d52e2e;fill-opacity:1;stroke:#000000;stroke-opacity:1;stroke-width:0.51021508;stroke-miterlimit:4;stroke-dasharray:none" />

	<path
   fill="#eff0f0"
   d="m 44.783,124.44 c -11.549,3.494 -37.881,16.109 -41.946,-2.558 9.778,1.034 17.83,-2.124 26.088,-4.092 1.567,-2.866 4.204,-4.663 8.185,-5.115 2.278,4.2 5.337,7.62 7.673,11.76 z"
   id="path1117"
   style="fill:#d52e2e;fill-opacity:1;stroke:#000000;stroke-opacity:1;stroke-width:0.51021508;stroke-miterlimit:4;stroke-dasharray:none" />

	<path
   d="m 57.06,115.24 c -1.885,-4.54 5.321,-0.77 0,0 z"
   id="path1119"
   style="fill:#d52e2e;fill-opacity:1;stroke:#000000;stroke-opacity:1;stroke-width:0.51021508;stroke-miterlimit:4;stroke-dasharray:none" />

	<path
   d="m 69.337,118.31 c -2.54,1.24 -7.144,-1.69 0,0 z"
   id="path1121"
   style="fill:#d52e2e;fill-opacity:1;stroke:#000000;stroke-opacity:1;stroke-width:0.51021508;stroke-miterlimit:4;stroke-dasharray:none" />

	<path
   d="m 65.756,119.84 c 2.356,-0.481 0.981,2.77 2.046,3.581 0.659,-0.705 2.222,-0.506 3.581,-0.511 0.294,0.899 -0.618,3.005 0.512,3.069 -0.885,1.502 -1.862,-1.159 -1.535,-2.558 -1.201,0.163 -1.92,0.808 -3.581,0.512 0.315,-2.23 -2.847,-3.37 -1.023,-4.09 z"
   id="path1123"
   style="fill:#d52e2e;fill-opacity:1;stroke:#000000;stroke-opacity:1;stroke-width:0.51021508;stroke-miterlimit:4;stroke-dasharray:none" />

	<path
   fill="#eff0f0"
   d="m 46.83,126.49 c -3.367,2.986 -9.479,3.591 -15.347,5.115 -10.109,2.627 -21.23,6.447 -28.646,-1.534 4.124,1.418 8.686,3.889 14.323,3.581 10.277,-0.56 20.969,-7.26 29.67,-7.16 z"
   id="path1125"
   style="fill:#d52e2e;fill-opacity:1;stroke:#000000;stroke-opacity:1;stroke-width:0.51021508;stroke-miterlimit:4;stroke-dasharray:none" />

	<path
   d="m 127.65,152.07 c -1.042,1.174 -4.248,0.186 -6.138,0.512 1.28,-1.51 4.15,-0.95 6.14,-0.51 z"
   id="path1127"
   style="fill:#d52e2e;fill-opacity:1;stroke:#000000;stroke-opacity:1;stroke-width:0.51021508;stroke-miterlimit:4;stroke-dasharray:none" />

	<path
   d="m 179.83,190.43 c 2.593,12.239 22.226,11.746 34.785,10.743 -12.41,3.81 -33.47,2.86 -34.79,-10.74 z"
   id="path1129"
   style="fill:#d52e2e;fill-opacity:1;stroke:#000000;stroke-opacity:1;stroke-width:0.51021508;stroke-miterlimit:4;stroke-dasharray:none" />

	<path
   d="m 218.71,199.13 c -1.602,10.021 -28.447,12.779 -35.296,4.093 -3.909,0.031 -10.106,2.856 -11.254,-1.534 2.274,1.733 8.199,1.082 11.254,0.511 7.48,8.24 30.22,4.88 35.3,-3.07 z"
   id="path1131"
   style="fill:#d52e2e;fill-opacity:1;stroke:#000000;stroke-opacity:1;stroke-width:0.51021508;stroke-miterlimit:4;stroke-dasharray:none" />

	<path
   d="m 389.05,204.76 c -17.199,-0.629 -27.629,8.936 -30.692,24.043 3.243,1.02 4.664,3.861 5.115,7.673 2.932,0.76 5.35,0.848 7.674,3.069 7.097,1.11 15.897,-6.884 7.673,-10.23 2.074,-2.007 5.28,2.257 5.115,4.604 -0.221,3.135 -6.088,7.436 -11.254,7.162 -3.756,-0.199 -7.049,-3.025 -9.719,-3.581 -1.192,-5.879 -8.772,-8.499 -4.093,-15.858 -5.624,2.041 -17.131,5.646 -22.508,1.535 -2.536,0.874 -3.37,3.45 -6.65,3.581 -2.244,-1.232 -2.706,-5.529 -0.512,-7.162 -2.008,-0.72 -4.336,-1.12 -5.115,-3.069 -0.189,-8.912 12.896,-13.631 19.95,-8.696 -8.466,-2.055 -18.115,0.111 -18.927,8.696 0.422,1.966 4.521,0.253 5.115,2.047 0.815,3.202 -2.091,2.683 -1.534,5.627 2.593,1.722 4.855,-1.269 6.649,-2.047 7.386,2.332 17.739,0.449 23.531,-2.046 6.79,-8.11 13.67,-18.56 30.16,-15.33 z"
   id="path1133"
   style="fill:#d52e2e;fill-opacity:1;stroke:#000000;stroke-opacity:1;stroke-width:0.51021508;stroke-miterlimit:4;stroke-dasharray:none" />

	<path
   d="m 304.14,206.8 c 0.162,2.037 -2.365,1.385 -2.558,3.069 -1.12,-0.99 1.19,-2.87 2.56,-3.07 z"
   id="path1135"
   style="fill:#d52e2e;fill-opacity:1;stroke:#000000;stroke-opacity:1;stroke-width:0.51021508;stroke-miterlimit:4;stroke-dasharray:none" />

	<path
   d="m 388.54,208.34 c -15.268,-4.235 -38.435,24.142 -12.276,25.577 1.373,-0.75 -1.3,-4.438 0.512,-5.627 2.871,0.092 -1.119,4.284 1.534,6.139 -29.84,3.51 -6.41,-35.67 10.24,-26.09 z"
   id="path1137"
   style="fill:#d52e2e;fill-opacity:1;stroke:#000000;stroke-opacity:1;stroke-width:0.51021508;stroke-miterlimit:4;stroke-dasharray:none" />

	<path
   d="m 415.65,209.87 c -0.019,1.687 -1.455,1.955 -3.069,2.046 1.155,3.33 6.448,4.266 8.696,3.581 -2.467,3.602 -8.473,-0.556 -9.72,-3.069 0.097,-1.95 2.855,-1.238 3.069,-3.069 -14.574,-2.18 6.568,18.135 9.72,5.627 -0.351,-1.798 -3.902,-0.392 -4.093,-1.023 4.783,-4.852 6.778,4.954 1.023,6.139 -3.572,0.735 -12.056,-3.494 -12.789,-6.65 -0.94,-4.06 2.88,-10.3 7.16,-3.59 z"
   id="path1139"
   style="fill:#d52e2e;fill-opacity:1;stroke:#000000;stroke-opacity:1;stroke-width:0.51021508;stroke-miterlimit:4;stroke-dasharray:none" />

	<path
   d="m 344.55,208.85 c 0.595,-0.083 0.91,0.113 1.023,0.512 -0.344,3.854 -6.789,8.269 -9.72,4.604 4.06,1.41 8.41,-1.07 8.7,-5.11 z"
   id="path1141"
   style="fill:#d52e2e;fill-opacity:1;stroke:#000000;stroke-opacity:1;stroke-width:0.51021508;stroke-miterlimit:4;stroke-dasharray:none" />

	<path
   d="m 224.85,210.38 c 0.736,0.287 1.248,0.799 1.535,1.535 -0.443,4.776 -7.406,0.138 -8.696,3.581 0.943,5.165 8.814,-1.241 9.719,2.558 -3.698,0.952 -9.011,1.903 -10.743,-1.535 -0.583,-4.101 4.174,-4.645 7.162,-3.58 1.12,-0.08 1.1,-1.29 1.03,-2.56 z"
   id="path1143"
   style="fill:#d52e2e;fill-opacity:1;stroke:#000000;stroke-opacity:1;stroke-width:0.51021508;stroke-miterlimit:4;stroke-dasharray:none" />

	<path
   d="m 306.69,219.08 c -1.77,0.065 -0.746,-2.663 -2.046,-3.069 -1.614,-0.25 -1.807,0.922 -3.581,0.512 1.57,-2.88 6.34,-1.18 5.63,2.56 z"
   id="path1145"
   style="fill:#d52e2e;fill-opacity:1;stroke:#000000;stroke-opacity:1;stroke-width:0.51021508;stroke-miterlimit:4;stroke-dasharray:none" />

	<path
   d="m 413.6,235.96 c -1.71,-1.018 -3.654,-1.802 -3.581,-4.604 1.279,-1.789 5.312,-0.825 6.139,-3.069 -0.864,-3.229 -3.567,-4.617 -7.674,-4.604 -0.621,2.959 -1.718,5.442 -6.138,4.604 -2.018,-2.609 -0.588,-6.754 1.022,-8.696 12.51,-6.43 25.37,13.04 10.23,16.37 z m 6.14,-6.65 c 1.36,-8.845 -18.797,-14.902 -16.881,-2.558 4.248,0.761 3.756,-2.677 4.093,-4.604 5.924,-0.297 9.238,2.016 10.23,6.65 -0.405,2.663 -4.303,1.836 -5.627,3.581 2.47,4.85 7.81,-0.55 8.19,-3.07 z"
   id="path1147"
   style="fill:#d52e2e;fill-opacity:1;stroke:#000000;stroke-opacity:1;stroke-width:0.51021508;stroke-miterlimit:4;stroke-dasharray:none" />

	<path
   fill="#a99a6f"
   d="m 411.56,232.38 c 1.324,-1.745 5.222,-0.918 5.627,-3.581 -0.992,-4.635 -4.307,-6.947 -10.23,-6.65 -0.337,1.928 0.155,5.365 -4.093,4.604 -1.916,-12.345 18.241,-6.287 16.881,2.558 -0.39,2.52 -5.73,7.92 -8.19,3.07 z"
   id="path1149"
   style="fill:#d52e2e;fill-opacity:1;stroke:#000000;stroke-opacity:1;stroke-width:0.51021508;stroke-miterlimit:4;stroke-dasharray:none" />

	<path
   d="m 321.02,234.94 c -1.749,0.032 -5.957,-1.878 -9.207,-2.047 2.42,-2.44 7.53,0.42 9.21,2.05 z"
   id="path1151"
   style="fill:#d52e2e;fill-opacity:1;stroke:#000000;stroke-opacity:1;stroke-width:0.51021508;stroke-miterlimit:4;stroke-dasharray:none" />

	<path
   d="m 29.948,92.217 c 6.268,-21.835 26.481,3.158 35.297,7.673 29.926,-10.654 62.603,-22.078 94.124,-33.25 4.583,-1.624 9.021,-4.69 12.789,-5.115 2.301,-0.26 5.146,0.8 7.673,0.512 4.297,-0.491 9.104,-3.844 14.323,-5.116 6.928,-1.687 14.701,-1.284 20.462,-3.069 5.761,-1.786 10.105,-6.291 14.323,-8.696 8.128,6.562 14.062,-2.895 17.393,-8.696 21.096,2.479 36.452,-5.13 47.062,-14.835 5.892,5.399 14.693,-1.701 15.347,-6.138 11.953,1.967 18.876,-3.478 27.623,-8.696 9.41,-5.614 20.438,-11.205 26.089,-1.535 0.676,8.138 -1.015,14.123 1.534,18.927 1.766,3.328 7.352,4.234 9.72,7.673 3.128,4.544 2.921,8.13 4.092,14.835 -68.7,24.401 -136.78,49.413 -206.15,73.15 -7.285,-9.255 -14.166,-18.914 -23.531,-26.089 -21.144,7.162 -42.353,14.257 -63.431,21.485 3.078,5.607 9.103,8.839 14.323,12.277 37.95,24.992 83.951,41.647 136.58,53.712 28.096,6.44 61.153,12.358 94.123,14.835 16.357,1.228 33.795,2.104 50.643,3.58 16.007,1.402 34.894,1.75 47.062,7.162 5.453,2.425 11.771,8.774 11.766,15.857 -0.014,16.159 -16.363,24.619 -29.67,29.158 -13.451,4.588 -26.589,6.51 -43.481,7.161 -35.019,1.352 -67.651,-3.161 -99.75,-10.23 -30.651,-6.75 -60.339,-15.744 -87.474,-26.601 -55.893,-22.362 -106.86,-48.28 -136.07,-91.566 -11.98,4.6 -48.529,13.36 -41.929,-10.74 2.624,-0.041 5.268,0.59 7.673,0.511 9.762,-0.317 18.138,-4.037 24.554,-7.673 -2.323,-4.668 -4.343,-9.64 -5.627,-15.346 -1.915,4.862 3.536,12.089 3.069,13.812 -3.629,-2.8 -9.29,-17.638 -0.512,-18.933 z m 341.2,-60.874 c -4.736,-2.767 -8.8,-6.206 -12.277,-10.23 -1.786,-3.877 -1.299,-14.072 -1.534,-19.95 -19.611,1.362 -24.338,17.609 -46.551,16.369 -2.613,5.18 -10.823,10.566 -17.393,5.627 -8.589,11.57 -25.736,17.182 -46.039,15.346 -3.882,5.181 -9.607,14.042 -17.904,8.696 -6.88,9.135 -19.5,8.171 -33.25,11.254 -5.647,1.267 -10.849,5.064 -15.346,5.627 -3.276,0.41 -6.648,-1.063 -9.719,-0.511 -3.655,0.657 -8.163,3.639 -12.277,5.115 -30.565,10.966 -62.212,22.651 -92.589,31.716 3.798,4.045 7.98,7.707 12.789,10.742 92.246,-31.542 184.94,-65.375 276.23,-96.17 -16.218,7.176 -33.305,12.461 -50.131,18.416 -51.23,18.131 -102.37,36.064 -152.95,54.227 1.257,10.866 9.512,13.985 14.323,20.973 2.245,3.26 2.725,6.471 5.627,9.719 54.669,-19.504 109.65,-38.696 164.2,-58.316 3.642,-7.442 7.826,-14.34 12.277,-20.973 -2.958,6.934 -8.842,13.665 -10.231,20.462 7.825,-3.088 16.037,-5.789 24.043,-8.696 2.929,-4.574 5.179,-9.826 8.696,-13.812 -0.439,2.132 -3.577,4.248 -2.558,6.139 1.068,-0.997 1.843,-4.952 3.068,-4.092 -1.254,3.16 -6.168,7.606 -4.604,10.231 2.596,-1.667 3.114,-5.412 5.627,-7.162 -0.62,2.108 -2.322,3.134 -2.558,5.627 2.841,-0.229 5.208,-0.93 6.65,-2.558 -0.209,-4.192 -3.358,-6.003 -3.069,-5.116 1.92,-3.776 -2.12,-5.63 -2.56,-8.701 z m 24.04,213.83 c 8.192,-1.061 16.541,-3.506 24.043,-3.069 8.553,-4.169 19.921,-12.121 17.392,-24.042 -2.371,-11.181 -28.563,-13.381 -40.923,-14.835 -11.742,-1.382 -24.729,-1.736 -37.343,-2.558 -45.152,-2.941 -85.992,-9.417 -124.82,-18.416 -33.512,-7.768 -67.696,-19.148 -94.635,-31.204 C 121.161,143.11 99.655,132.796 86.214,120.357 80.779,115.329 72.691,107.993 63.706,100.919 58.806,97.061 43.073,84.198 37.617,85.061 c -2.349,0.372 -3.318,2.207 -5.115,4.093 0.262,9.024 2.768,14.795 6.65,21.996 8.017,14.87 20.012,27.645 31.204,37.342 49.007,42.465 116.28,69.479 187.74,85.939 -3.587,-1.66 -5.661,-11.904 4.092,-10.23 3.174,1.635 -2.567,4.251 1.023,4.604 3.93,-0.321 6.296,-2.734 5.627,-5.115 -1.783,-6.348 -11.934,-0.776 -20.462,-1.535 -6.396,-0.569 -10.521,-2.772 -13.812,-3.58 -2.373,0.498 -6.096,4.021 -7.162,0 10.828,-1.818 23.845,4.195 37.854,1.022 7.047,1.753 5.304,12.509 -4.092,10.231 -1.97,-1.81 1.866,-4.262 -0.512,-4.604 -3.712,-0.301 -4.737,2.084 -5.116,5.115 1.604,3 5.771,3.437 9.72,4.093 -0.896,0.468 -2.553,0.176 -3.069,1.023 39.11,8.49 88.25,15.53 133.01,9.74 z M 149.138,88.643 c -17.444,5.633 -35.589,12.375 -52.177,17.904 -5.79,1.93 -12.236,2.701 -16.881,6.65 5.292,2.035 10.987,-1.844 16.369,-3.581 17.473,-5.639 34.866,-12.252 51.666,-17.393 1.514,1.215 2.376,3.081 4.604,3.581 -1.003,-2.408 -0.838,-5.983 -3.069,-7.162 h -0.51 z m -113.56,23.024 c -0.43,-5.573 -3.93,-12.414 -6.138,-17.904 -1.667,5.706 1.577,15.044 6.138,17.904 z m 1.535,1.02 c -3.981,0.452 -6.617,2.25 -8.185,5.115 -8.259,1.968 -16.311,5.126 -26.088,4.092 4.065,18.667 30.397,6.052 41.946,2.558 -2.336,-4.15 -5.395,-7.57 -7.673,-11.77 z m -19.95,20.97 c -5.637,0.308 -10.199,-2.163 -14.323,-3.581 7.416,7.981 18.537,4.161 28.646,1.534 5.868,-1.524 11.98,-2.129 15.347,-5.115 -8.701,-0.09 -19.393,6.61 -29.67,7.17 z m 149.88,74.69 c 29.64,14.183 65.303,22.342 99.751,31.716 -46.094,-8.881 -88.128,-23.273 -125.33,-42.458 -32.18,-16.596 -63.583,-35.046 -86.451,-60.362 -2.302,-2.548 -5.34,-11.35 -10.743,-6.65 0.827,0.571 1.837,3.574 2.558,2.558 -0.532,-0.208 -1.796,-1.983 0,-1.535 50.865,57.863 128.86,91.172 215.87,111.52 12.706,2.971 25.988,4.147 38.877,8.185 -52.999,-7.962 -101.56,-22.328 -144.26,-41.435 -42.576,-19.054 -81.708,-41.908 -109.98,-75.709 15.6,22.356 38.643,40.65 63.943,54.735 50.318,28.013 107.96,50.457 174.95,62.408 33.641,6.002 75.502,9.575 109.98,2.558 13.689,-2.786 31.16,-9.645 36.319,-19.438 -9.602,10.69 -27.433,13.349 -46.551,15.346 -41.88,4.375 -87.596,-2.501 -118.68,-9.719 43.151,7.42 101.58,15.945 146.81,3.069 -90.96,16.75 -183.25,-12.55 -247.06,-34.79 z"
   id="path1153"
   style="fill:#d52e2e;fill-opacity:1;stroke:#000000;stroke-opacity:1;stroke-width:0.51021508;stroke-miterlimit:4;stroke-dasharray:none" />

	<path
   d="m 348.64,55.386 c -0.538,-2.763 3.353,-5.506 4.092,-8.696 2.64,-1.972 -3.21,6.388 -4.09,8.696 z"
   id="path1155"
   style="fill:#d52e2e;fill-opacity:1;stroke:#000000;stroke-opacity:1;stroke-width:0.51021508;stroke-miterlimit:4;stroke-dasharray:none" />

	<path
   fill="#eff0f0"
   d="m 373.7,40.04 c -0.289,-0.888 2.86,0.923 3.069,5.116 -1.442,1.627 -3.81,2.329 -6.65,2.558 0.235,-2.493 1.938,-3.519 2.558,-5.627 -2.513,1.75 -3.031,5.494 -5.627,7.162 -1.564,-2.625 3.35,-7.071 4.604,-10.231 -1.226,-0.859 -2,3.096 -3.068,4.092 -1.02,-1.891 2.118,-4.006 2.558,-6.139 -3.518,3.986 -5.768,9.238 -8.696,13.812 -8.006,2.907 -16.218,5.608 -24.043,8.696 1.39,-6.797 7.273,-13.528 10.231,-20.462 -4.451,6.633 -8.636,13.531 -12.277,20.973 -54.554,19.62 -109.54,38.812 -164.2,58.316 -2.902,-3.248 -3.382,-6.459 -5.627,-9.719 -4.811,-6.988 -13.066,-10.107 -14.323,-20.973 50.59,-18.167 101.73,-36.1 152.96,-54.227 16.826,-5.954 33.913,-11.24 50.131,-18.416 -91.29,30.795 -183.99,64.628 -276.23,96.17 -4.809,-3.035 -8.99,-6.697 -12.789,-10.742 30.376,-9.065 62.024,-20.75 92.589,-31.716 4.114,-1.476 8.623,-4.458 12.277,-5.115 3.071,-0.552 6.443,0.921 9.719,0.511 4.497,-0.562 9.699,-4.36 15.346,-5.627 13.75,-3.083 26.37,-2.119 33.25,-11.254 8.296,5.345 14.022,-3.516 17.904,-8.696 20.303,1.836 37.45,-3.776 46.039,-15.346 6.569,4.939 14.779,-0.447 17.393,-5.627 22.213,1.24 26.939,-15.007 46.551,-16.369 0.235,5.878 -0.252,16.073 1.534,19.95 3.478,4.024 7.541,7.463 12.277,10.23 0.44,3.073 4.48,4.927 2.55,8.699 z m -20.97,6.65 c -0.739,3.189 -4.63,5.933 -4.092,8.696 0.88,-2.308 6.73,-10.668 4.09,-8.696 z m -56.27,-7.162 c -35.974,12.685 -71.398,26.059 -107.42,37.854 -7.01,2.295 -14.813,3.796 -20.973,8.185 59.373,-18.553 115.37,-40.482 173.92,-59.851 0.441,-0.896 1.905,-1.777 -0.512,-1.535 -14.81,5.462 -30.03,10.061 -45.02,15.347 z m 45.02,17.904 c 5.074,-6.181 9.869,-15.366 12.789,-21.997 -4.03,7.574 -8.66,14.533 -12.79,21.997 z m 11.76,-4.092 c 2.156,-4.326 5.978,-9.707 7.161,-13.3 -2.18,4.293 -6.65,9.03 -7.16,13.3 z m -43.99,0.512 c -3.847,6.213 -7.484,12.636 -11.254,18.927 4.65,-4.741 9.18,-15.005 11.25,-18.927 z m -25.58,2.557 c -5.258,9.066 -10.91,17.736 -15.858,27.111 5.91,-7.744 12.61,-20.12 15.86,-27.111 z m 12.28,8.696 c -2.27,3.357 -4.398,6.855 -6.139,10.742 2.47,-2.522 5.94,-9.346 6.14,-10.742 z m -5.63,3.581 c -1.166,1.223 3.166,-2.715 1.535,-3.581 -0.43,1.281 -1.4,2.009 -1.54,3.581 z m 3.58,5.627 c 2.389,-1.104 4.745,-7.42 4.604,-7.673 -1.63,2.453 -3.26,4.919 -4.6,7.673 z m -13.3,4.604 c 3.052,-3.089 6.237,-8.763 7.161,-12.277 -2.13,4.345 -4.84,8.116 -7.16,12.277 z m -46.55,-3.581 c 0.469,-1.934 3.553,-3.929 2.558,-5.627 -0.63,1.773 -3.22,4.259 -2.56,5.627 z m 51.16,2.558 c 1.244,-2.514 4.239,-5.981 4.093,-8.185 -1.01,2.752 -4.46,5.755 -4.09,8.185 z m -58.32,-1.535 c -0.094,-2.16 2.91,-3.885 2.046,-5.116 -0.38,1.686 -3.21,3.588 -2.05,5.116 z m 53.71,-3.581 c -1.474,2.619 -3.019,5.167 -4.604,7.673 2.42,-1.074 5,-7.161 4.6,-7.673 z m -7.67,9.208 c 0.799,-2.621 3.938,-5.6 3.581,-7.673 -0.6,2.816 -4.42,5.115 -3.58,7.673 z m -42.97,5.116 c 1.727,-3.733 5.584,-8.052 6.138,-11.254 -1.81,3.652 -5.77,7.861 -6.14,11.254 z m -17.9,2.046 c 0.687,-2.732 4.016,-5.521 3.581,-7.673 -0.7,2.72 -4.08,5.454 -3.58,7.673 z m -14.84,18.932 c 4.58,-6.334 9.702,-14.851 12.277,-21.485 -3.8,7.452 -8.7,13.795 -12.28,21.485 z m 25.07,-8.19 c 2.073,-3.898 5.932,-8.729 6.65,-12.277 -1.76,4.208 -6.12,8.542 -6.65,12.277 z m -20.46,6.65 c 2.226,-4.768 6.701,-10.006 7.673,-14.323 -2.43,4.568 -6.88,9.823 -7.67,14.323 z m 16.37,-5.63 c 2.344,-1.415 4.246,-5.976 4.604,-7.673 -1.59,2.51 -3.13,5.057 -4.6,7.673 z M 205.41,105 c 2.336,-0.913 3.948,-5.248 4.093,-6.65 -1.26,2.33 -2.76,4.41 -4.09,6.65 z m 9.72,-2.55 c 0.281,-1.282 2.389,-3.369 1.534,-4.092 -0.13,1.428 -2.87,2.882 -1.53,4.092 z m -4.61,1.02 c 0.088,-1.476 2.722,-3.036 1.535,-4.092 -0.09,1.472 -2.72,3.032 -1.54,4.092 z"
   id="path1157"
   style="fill:#d52e2e;fill-opacity:1;stroke:#000000;stroke-opacity:1;stroke-width:0.51021508;stroke-miterlimit:4;stroke-dasharray:none" />

	<path
   d="m 354.27,35.436 c -2.92,6.631 -7.715,15.816 -12.789,21.997 4.13,-7.465 8.76,-14.424 12.79,-21.997 z"
   id="path1159"
   style="fill:#d52e2e;fill-opacity:1;stroke:#000000;stroke-opacity:1;stroke-width:0.51021508;stroke-miterlimit:4;stroke-dasharray:none" />

	<path
   d="m 360.4,40.04 c -1.184,3.594 -5.005,8.974 -7.161,13.3 0.51,-4.27 4.98,-9.007 7.16,-13.3 z"
   id="path1161"
   style="fill:#d52e2e;fill-opacity:1;stroke:#000000;stroke-opacity:1;stroke-width:0.51021508;stroke-miterlimit:4;stroke-dasharray:none" />

	<path
   d="m 298,72.778 c 3.77,-6.291 7.407,-12.714 11.254,-18.927 -2.07,3.923 -6.6,14.187 -11.25,18.927 z"
   id="path1163"
   style="fill:#d52e2e;fill-opacity:1;stroke:#000000;stroke-opacity:1;stroke-width:0.51021508;stroke-miterlimit:4;stroke-dasharray:none" />

	<path
   d="m 267.82,83.521 c 4.948,-9.375 10.601,-18.045 15.858,-27.111 -3.26,6.99 -9.96,19.366 -15.86,27.111 z"
   id="path1165"
   style="fill:#d52e2e;fill-opacity:1;stroke:#000000;stroke-opacity:1;stroke-width:0.51021508;stroke-miterlimit:4;stroke-dasharray:none" />

	<path
   d="m 289.81,75.848 c 1.74,-3.887 3.869,-7.385 6.139,-10.742 -0.2,1.395 -3.67,8.219 -6.14,10.742 z"
   id="path1167"
   style="fill:#d52e2e;fill-opacity:1;stroke:#000000;stroke-opacity:1;stroke-width:0.51021508;stroke-miterlimit:4;stroke-dasharray:none" />

	<path
   d="m 291.86,65.105 c 1.631,0.865 -2.701,4.804 -1.535,3.581 0.14,-1.572 1.11,-2.3 1.54,-3.581 z"
   id="path1169"
   style="fill:#d52e2e;fill-opacity:1;stroke:#000000;stroke-opacity:1;stroke-width:0.51021508;stroke-miterlimit:4;stroke-dasharray:none" />

	<path
   d="m 298.51,66.64 c 0.142,0.253 -2.215,6.569 -4.604,7.673 1.33,-2.754 2.96,-5.22 4.6,-7.673 z"
   id="path1171"
   style="fill:#d52e2e;fill-opacity:1;stroke:#000000;stroke-opacity:1;stroke-width:0.51021508;stroke-miterlimit:4;stroke-dasharray:none" />

	<path
   d="m 287.77,66.64 c -0.924,3.514 -4.109,9.188 -7.161,12.277 2.31,-4.161 5.02,-7.932 7.16,-12.277 z"
   id="path1173"
   style="fill:#d52e2e;fill-opacity:1;stroke:#000000;stroke-opacity:1;stroke-width:0.51021508;stroke-miterlimit:4;stroke-dasharray:none" />

	<path
   d="m 236.61,69.709 c 0.995,1.698 -2.089,3.693 -2.558,5.627 -0.66,-1.368 1.93,-3.854 2.56,-5.627 z"
   id="path1175"
   style="fill:#d52e2e;fill-opacity:1;stroke:#000000;stroke-opacity:1;stroke-width:0.51021508;stroke-miterlimit:4;stroke-dasharray:none" />

	<path
   d="m 289.3,69.709 c 0.146,2.203 -2.849,5.67 -4.093,8.185 -0.37,-2.43 3.08,-5.433 4.09,-8.185 z"
   id="path1177"
   style="fill:#d52e2e;fill-opacity:1;stroke:#000000;stroke-opacity:1;stroke-width:0.51021508;stroke-miterlimit:4;stroke-dasharray:none" />

	<path
   d="m 228.94,71.244 c 0.863,1.231 -2.141,2.956 -2.046,5.116 -1.16,-1.529 1.67,-3.431 2.05,-5.116 z"
   id="path1179"
   style="fill:#d52e2e;fill-opacity:1;stroke:#000000;stroke-opacity:1;stroke-width:0.51021508;stroke-miterlimit:4;stroke-dasharray:none" />

	<path
   d="m 276,80.452 c 1.586,-2.506 3.131,-5.054 4.604,-7.673 0.4,0.511 -2.18,6.598 -4.6,7.673 z"
   id="path1181"
   style="fill:#d52e2e;fill-opacity:1;stroke:#000000;stroke-opacity:1;stroke-width:0.51021508;stroke-miterlimit:4;stroke-dasharray:none" />

	<path
   d="m 276.51,74.313 c 0.356,2.073 -2.782,5.052 -3.581,7.673 -0.84,-2.558 2.98,-4.857 3.58,-7.673 z"
   id="path1183"
   style="fill:#d52e2e;fill-opacity:1;stroke:#000000;stroke-opacity:1;stroke-width:0.51021508;stroke-miterlimit:4;stroke-dasharray:none" />

	<path
   d="m 236.1,75.848 c -0.554,3.202 -4.412,7.521 -6.138,11.254 0.37,-3.393 4.33,-7.602 6.14,-11.254 z"
   id="path1185"
   style="fill:#d52e2e;fill-opacity:1;stroke:#000000;stroke-opacity:1;stroke-width:0.51021508;stroke-miterlimit:4;stroke-dasharray:none" />

	<path
   d="m 215.64,81.475 c 0.435,2.152 -2.894,4.941 -3.581,7.673 -0.5,-2.219 2.88,-4.953 3.58,-7.673 z"
   id="path1187"
   style="fill:#d52e2e;fill-opacity:1;stroke:#000000;stroke-opacity:1;stroke-width:0.51021508;stroke-miterlimit:4;stroke-dasharray:none" />

	<path
   d="m 291.86,203.73 c -1.531,-1.016 1.315,-2.836 0.511,-5.627 -2.373,-8.242 -26.137,-4.607 -26.088,3.069 -0.369,2.927 2.927,2.188 2.558,5.115 -1.409,0.467 -2.813,0.938 -3.069,2.558 0.553,3.106 7.059,5.847 9.208,2.558 -1.526,-1.971 -3.403,-2.207 -4.093,-4.092 -3.858,-10.556 16.762,-16.319 18.927,-6.65 -1.361,2.362 -6.278,1.674 -7.673,0 -1.28,-0.087 -1.602,0.786 -2.046,1.534 0.431,3.357 7.627,3.229 9.208,1.023 -0.284,7.859 -17.733,-1.438 -6.139,-4.093 1.902,-0.538 1.003,1.726 2.046,2.047 1.928,0.393 2.445,-0.624 4.093,-0.512 0.784,-5.733 -7.265,-2.984 -9.72,-4.093 -6.387,1.947 -11.621,10.291 -3.581,14.323 -1.183,6.438 -10.704,2.054 -11.254,-1.534 -0.347,-2.263 2.438,-1.964 2.558,-4.093 0.075,-1.332 -2.245,-2.566 -2.046,-4.092 1.45,-11.2 34.24,-12.72 26.59,2.55 z"
   id="path1189"
   style="fill:#d52e2e;fill-opacity:1;stroke:#000000;stroke-opacity:1;stroke-width:0.51021508;stroke-miterlimit:4;stroke-dasharray:none" />

	<path
   d="m 209.5,86.59 c -2.576,6.634 -7.697,15.151 -12.277,21.485 3.58,-7.69 8.48,-14.033 12.28,-21.49 z"
   id="path1191"
   style="fill:#d52e2e;fill-opacity:1;stroke:#000000;stroke-opacity:1;stroke-width:0.51021508;stroke-miterlimit:4;stroke-dasharray:none" />

	<path
   d="m 228.94,87.613 c -0.719,3.548 -4.577,8.379 -6.65,12.277 0.53,-3.735 4.89,-8.069 6.65,-12.277 z"
   id="path1193"
   style="fill:#d52e2e;fill-opacity:1;stroke:#000000;stroke-opacity:1;stroke-width:0.51021508;stroke-miterlimit:4;stroke-dasharray:none" />

	<path
   d="m 209.5,92.217 c -0.972,4.317 -5.447,9.556 -7.673,14.323 0.79,-4.5 5.24,-9.755 7.67,-14.323 z"
   id="path1195"
   style="fill:#d52e2e;fill-opacity:1;stroke:#000000;stroke-opacity:1;stroke-width:0.51021508;stroke-miterlimit:4;stroke-dasharray:none" />

	<path
   d="m 222.8,93.24 c -0.358,1.697 -2.26,6.258 -4.604,7.673 1.47,-2.616 3.01,-5.163 4.6,-7.67 z"
   id="path1197"
   style="fill:#d52e2e;fill-opacity:1;stroke:#000000;stroke-opacity:1;stroke-width:0.51021508;stroke-miterlimit:4;stroke-dasharray:none" />

	<path
   d="m 39.668,97.333 c 1.89,-2.58 6.923,-3.383 9.719,-1.023 0.435,3.468 2.414,5.981 -0.512,7.673 -2.843,0.626 -2.089,-2.344 -3.069,-3.581 1.116,-1.411 0.931,2.786 2.046,3.069 5.04,-6.833 -5.755,-10.052 -7.673,-4.092 -0.38,1.182 0.271,2.873 0.512,4.092 0.476,2.405 -0.902,-0.512 -1.023,-1.023 -0.297,-1.25 0.184,-1.95 0,-5.117 z"
   id="path1199"
   style="fill:#d52e2e;fill-opacity:1;stroke:#000000;stroke-opacity:1;stroke-width:0.51021508;stroke-miterlimit:4;stroke-dasharray:none" />

	<path
   d="m 209.5,98.355 c -0.145,1.402 -1.756,5.737 -4.093,6.65 1.33,-2.24 2.83,-4.32 4.09,-6.645 z"
   id="path1201"
   style="fill:#d52e2e;fill-opacity:1;stroke:#000000;stroke-opacity:1;stroke-width:0.51021508;stroke-miterlimit:4;stroke-dasharray:none" />

	<path
   d="m 216.66,98.355 c 0.855,0.724 -1.253,2.81 -1.534,4.092 -1.34,-1.21 1.4,-2.664 1.53,-4.095 z"
   id="path1203"
   style="fill:#d52e2e;fill-opacity:1;stroke:#000000;stroke-opacity:1;stroke-width:0.51021508;stroke-miterlimit:4;stroke-dasharray:none" />

	<path
   d="m 212.06,99.378 c 1.188,1.057 -1.447,2.617 -1.535,4.092 -1.18,-1.06 1.45,-2.62 1.54,-4.092 z"
   id="path1205"
   style="fill:#d52e2e;fill-opacity:1;stroke:#000000;stroke-opacity:1;stroke-width:0.51021508;stroke-miterlimit:4;stroke-dasharray:none" />

	<path
   fill="#a99a6f"
   d="m 262.19,235.45 c 0.517,-0.848 2.173,-0.556 3.069,-1.023 -3.948,-0.656 -8.115,-1.093 -9.72,-4.093 0.379,-3.031 1.404,-5.416 5.116,-5.115 2.378,0.343 -1.458,2.795 0.512,4.604 9.396,2.277 11.139,-8.479 4.092,-10.231 -14.009,3.173 -27.026,-2.841 -37.854,-1.022 1.066,4.021 4.789,0.498 7.162,0 3.29,0.808 7.415,3.011 13.812,3.58 8.528,0.759 18.679,-4.812 20.462,1.535 0.669,2.381 -1.697,4.794 -5.627,5.115 -3.591,-0.353 2.15,-2.969 -1.023,-4.604 -9.753,-1.674 -7.679,8.57 -4.092,10.23 -71.456,-16.46 -138.73,-43.475 -187.74,-85.939 -11.192,-9.697 -23.188,-22.472 -31.204,-37.342 -3.882,-7.201 -6.388,-12.972 -6.65,-21.996 1.797,-1.886 2.767,-3.721 5.115,-4.093 5.456,-0.863 21.188,12 26.089,15.858 8.985,7.075 17.073,14.41 22.508,19.438 13.442,12.439 34.947,22.753 52.688,30.692 26.939,12.056 61.123,23.437 94.635,31.204 38.824,8.999 79.664,15.475 124.82,18.416 12.613,0.821 25.601,1.176 37.343,2.558 12.359,1.454 38.552,3.654 40.923,14.835 2.529,11.921 -8.839,19.873 -17.392,24.042 -7.502,-0.437 -15.851,2.009 -24.043,3.069 -44.76,5.79 -93.9,-1.25 -133,-9.72 z m 3.07,-34.27 c -0.199,1.525 2.121,2.76 2.046,4.092 -0.119,2.129 -2.904,1.83 -2.558,4.093 0.55,3.588 10.071,7.972 11.254,1.534 -8.04,-4.032 -2.806,-12.376 3.581,-14.323 2.455,1.108 10.504,-1.641 9.72,4.093 -1.647,-0.112 -2.165,0.904 -4.093,0.512 -1.043,-0.321 -0.144,-2.585 -2.046,-2.047 -11.595,2.655 5.854,11.952 6.139,4.093 -1.581,2.205 -8.777,2.334 -9.208,-1.023 0.444,-0.748 0.766,-1.621 2.046,-1.534 1.395,1.674 6.312,2.362 7.673,0 -2.165,-9.669 -22.785,-3.905 -18.927,6.65 0.689,1.885 2.566,2.121 4.093,4.092 -2.149,3.289 -8.655,0.549 -9.208,-2.558 0.256,-1.62 1.66,-2.091 3.069,-2.558 0.369,-2.927 -2.927,-2.188 -2.558,-5.115 -0.049,-7.677 23.715,-11.312 26.088,-3.069 0.805,2.791 -2.042,4.611 -0.511,5.627 7.66,-15.26 -25.13,-13.74 -26.59,-2.54 z M 39.67,102.45 c 0.121,0.511 1.499,3.428 1.023,1.023 -0.241,-1.219 -0.892,-2.911 -0.512,-4.092 1.918,-5.959 12.713,-2.74 7.673,4.092 -1.115,-0.283 -0.931,-4.479 -2.046,-3.069 0.98,1.236 0.227,4.207 3.069,3.581 2.926,-1.691 0.946,-4.205 0.512,-7.673 -2.796,-2.36 -7.829,-1.557 -9.719,1.023 0.184,3.17 -0.297,3.87 0,5.12 z m 12.789,3.58 c -0.031,-1.907 0.516,-3.236 1.023,-4.604 -2.462,-0.34 -2.636,3.79 -1.023,4.6 z m 10.742,0 c -2.91,0.671 -5.838,1.323 -8.185,2.558 3.946,0.577 5.559,-2.887 9.208,-1.023 1.563,-4.211 -5.481,-4.839 -8.696,-3.069 0.455,-1.527 -0.521,-4.188 -1.535,-2.558 0.632,6.02 7.324,-0.17 9.208,4.09 z m 0,7.67 c -0.102,-2.883 -4.249,-4.38 -7.673,-3.581 -6.318,8.05 7.921,10.59 7.673,3.58 z m 6.138,4.61 c -7.144,-1.69 -2.54,1.24 0,0 z m -4.604,7.67 c -1.607,-1.739 -1.05,-3.7 -1.023,-5.115 -1.251,0.897 -1.208,3.085 -0.512,4.604 h -2.046 c -1.163,-3.904 2.343,-5.825 2.046,-7.162 -4.372,0.94 -3.791,11.48 1.535,7.68 z m 8.185,0.51 c 5.308,-0.53 0.677,-7.83 -1.535,-6.65 2.196,1.12 4.263,4.84 1.535,6.65 z m -6.139,-2.56 c 1.661,0.296 2.38,-0.349 3.581,-0.512 -0.327,1.399 0.649,4.06 1.535,2.558 -1.13,-0.063 -0.217,-2.17 -0.512,-3.069 -1.359,0.005 -2.921,-0.193 -3.581,0.511 -1.065,-0.811 0.31,-4.062 -2.046,-3.581 -1.824,0.72 1.338,1.86 1.023,4.09 z m 3.581,8.19 c 5.824,1.07 13.369,-8.199 18.416,-3.069 -5.431,-6.36 -12.959,2.882 -18.416,2.046 -1.981,-0.303 -3.546,-4.384 -5.115,-2.558 3.346,0.56 2.361,3.07 5.115,3.58 z m 8.697,5.11 c 1.116,-2.294 1.519,-5.302 5.115,-5.115 -0.685,2.901 1.724,2.71 3.069,3.581 -0.532,2.407 1.179,2.572 2.046,3.581 4.341,0.295 3.61,-7.037 1.023,-8.185 1.066,1.989 2.35,7.876 -2.046,7.162 -0.704,-1.549 0.244,-1.828 0,-4.093 -1.498,-0.459 -1.572,-0.459 -3.069,0 0.405,-1.769 -0.568,-2.159 -1.023,-3.069 -4.032,-0.11 -4.745,3.098 -6.65,5.116 -2.969,-0.834 -4.149,-0.172 -6.139,1.022 -3.397,-1.377 -7.163,-2.385 -6.65,-7.673 -2.723,6.82 8.434,10.21 14.324,7.66 z m 16.369,7.68 c -1.229,-0.477 -1.354,-2.057 -3.581,-1.535 -0.881,0.824 -2.403,1.007 -3.069,2.046 -0.209,1.232 0.934,1.112 0.511,2.558 1.198,1.503 3.315,1.299 4.604,1.535 2.307,8.564 15.859,6.966 22.508,3.581 -4.607,-2.07 -7.938,-2.978 -11.765,-5.116 -3.161,1.35 -4.614,-0.867 -5.627,-3.068 -0.406,3.775 2.986,5.459 6.138,4.092 0.823,4.367 6.861,0.549 8.185,4.604 -6.708,1.256 -17.619,2.369 -18.416,-5.115 -1.218,-0.998 -4.745,0.312 -5.116,-1.534 0.215,-1.831 1.631,-2.462 3.581,-2.558 1.442,0.092 0.638,2.431 2.558,2.046 0.253,-5.81 4.34,-11.754 10.742,-8.185 1.089,2.369 0.729,6.105 -3.069,5.115 -0.852,-0.683 -0.171,-2.898 -1.023,-3.581 -1.36,0.874 -4.303,2.835 -3.581,4.093 1.087,-0.788 1.905,-1.847 3.069,-2.558 0.329,1.547 0.799,2.952 2.558,3.069 1.931,0.226 2.401,-1.009 3.581,-1.535 0.96,-10.73 -14.549,-5.79 -12.804,2.05 z m 26.094,7.67 c 1.89,-0.326 5.096,0.662 6.138,-0.512 -2,-0.44 -4.87,-1 -6.14,0.51 z m -7.68,6.65 c 0.304,-3.023 6.126,-5.69 5.116,-6.649 -4.333,2.048 -5.952,6.913 -6.65,11.254 -1.855,-0.7 -2.94,-3.15 -5.627,-1.535 0.188,4.928 3.778,6.453 7.673,7.674 0.114,2.19 -1.702,2.085 -0.512,4.092 2.819,2.925 7.613,0.595 11.254,0 0.57,10.247 14.328,-0.317 20.973,-1.022 0.098,1.606 0.951,2.459 2.558,2.558 4.578,-2.264 8.229,-7.728 15.346,-6.65 10.055,1.522 8.835,18.619 -1.535,14.323 0.167,-2.391 2.651,-2.464 2.558,-5.115 -1.697,-4.055 -9.677,-2.69 -10.742,1.022 0.345,2.896 4.008,2.472 3.581,6.139 -2.532,-0.314 -3.273,1.16 -5.115,1.535 -0.77,3.102 0.501,5.108 3.581,5.627 2.354,0.137 2.288,-2.146 4.092,-2.558 7.404,5.803 15.156,-2.827 17.904,-8.185 1.371,-11.652 -6.91,-17.564 -15.858,-18.416 -5.102,-0.485 -9.917,2.678 -14.323,0.512 -0.041,-1.916 2.205,-1.546 1.535,-4.093 -1.038,-1.689 -4.219,-1.237 -6.139,-2.046 -2.946,2.085 -1.057,9.003 1.535,8.185 -4.1,-1.379 -1.147,-8.874 3.069,-6.139 1.183,1.439 -1.778,2.011 -1.023,4.604 3.78,2.973 10.47,-0.651 16.369,0 16.751,1.85 18.392,26.191 -0.512,26.6 -1.016,-0.349 -1.17,-1.558 -2.046,-2.046 -2.826,0.072 -3.025,2.772 -6.139,2.558 -2.163,-0.352 -1.809,-4.101 0,-4.604 1.586,-0.174 2.444,1.184 3.581,0 0.856,-0.849 0.407,-3.004 0.511,-4.604 -3.091,0.104 -3.379,-2.639 -3.581,-4.092 2.064,-0.956 7.136,-3.999 8.185,0 0.683,2.729 -2.729,1.363 -2.046,4.092 -0.091,1.797 1.728,1.683 2.046,3.069 19.679,-2.894 2.797,-25.487 -10.742,-14.835 0.291,2.019 -1.812,3.276 -4.604,3.581 -1.021,-0.514 -0.807,-2.262 -2.558,-2.046 -6.531,1.653 -12.451,3.919 -18.927,5.627 0.48,-2.526 -0.623,-3.47 -1.535,-4.604 -3.282,0.274 -8.719,2.188 -11.254,0 0.494,-1.22 2.71,-2.256 1.535,-3.581 -2.937,-1.332 -8.595,-2.65 -7.162,-6.65 2.772,-0.385 2.015,2.76 5.116,2.046 0.94,-1.1 0.34,-3.75 0.5,-5.63 z m 14.32,-6.14 c 3.89,0.106 6.283,8.587 1.535,9.719 -1.004,-0.871 -2.557,-1.194 -3.069,-2.558 0.657,-1.561 3.065,-1.368 3.069,-3.581 -3.781,-5.544 -12.069,-0.799 -12.789,3.581 -1.971,11.995 20.779,13.553 29.669,7.673 -9.769,3.041 -30.041,3.865 -28.646,-7.161 0.48,-3.801 7.191,-8.61 10.743,-4.093 -0.174,1.799 -3.892,1.874 -2.558,3.581 5.7,10.45 11.19,-9.2 2.05,-7.16 z m 56.79,35.81 c 0.78,-2.118 3.904,-1.894 3.581,-5.115 -2.126,-2.232 -6.311,-0.134 -7.162,2.046 2.01,-0.224 3.567,-3.571 5.627,-2.046 0.37,2.927 -2.927,2.188 -2.558,5.115 0.26,2.127 2.193,2.582 3.581,3.581 2.739,-0.671 3.389,-3.432 5.115,-5.115 1.019,-10.262 -12.645,-9.522 -15.346,-3.069 2.911,-4.326 15.132,-6.983 14.323,2.558 -1.22,1.93 -5.46,6.78 -7.16,2.05 z m -7.17,8.7 c -1.362,1.365 -4.756,0.7 -5.627,2.558 2.841,0.113 4.471,-0.985 6.65,-1.534 0.537,-4.288 -2.872,-4.632 -3.069,-8.186 -0.421,-1.819 3.17,-2.24 1.535,-3.58 -4.36,2.94 0.05,6.8 0.52,10.74 z m 61.9,1.02 c -1.859,0.017 -2.247,1.504 -2.046,3.58 1.639,6.356 9.764,6.427 13.3,1.535 0.506,-2.041 -1.528,-1.541 -1.023,-3.581 1.833,-0.043 2.956,-0.796 4.604,-1.023 1.013,-7.591 -6.807,-8.873 -13.812,-9.207 -2.619,-0.125 -5.911,-0.737 -8.185,-0.512 -9.009,0.894 -12.993,10.388 -9.72,16.881 -1.698,-6.714 2.304,-11.504 6.139,-14.323 8.365,-0.261 22.33,-3.272 24.554,5.115 -1.479,1.419 -4.147,1.65 -5.627,3.069 -0.439,2.037 3.158,1.386 1.535,3.069 -3.27,5.73 -14.89,1.41 -9.72,-4.62 z m -25.06,2.56 c -12.56,1.003 -32.192,1.496 -34.785,-10.743 1.31,13.59 22.37,14.54 34.78,10.74 z m 29.66,13.81 c -7.652,-0.747 -14.502,-4.457 -16.88,-10.231 -3.468,-8.417 12.696,-14.827 17.392,-7.161 -0.932,1.688 -3.496,0.609 -3.58,2.046 1.006,1.015 2.922,0.326 4.092,0 v -3.58 c -6.888,-6.215 -20.644,-2.023 -19.438,7.673 1.157,9.305 16.017,13.544 26.089,13.3 7.887,-0.191 19.343,-3.695 23.53,3.069 -0.514,1.021 -2.262,0.808 -2.046,2.558 0.869,4.954 -3.899,8.259 -6.649,11.254 4.949,-1.025 8.502,-7.136 7.673,-10.742 0.729,0.122 0.862,0.842 1.534,1.023 3.18,-14.03 -20.63,-8.13 -31.7,-9.21 z m -60.87,-12.79 c -3.055,0.571 -8.979,1.223 -11.254,-0.511 1.148,4.391 7.345,1.565 11.254,1.534 6.849,8.687 33.694,5.929 35.296,-4.093 -5.08,7.95 -27.82,11.31 -35.3,3.07 z m 140.67,26.6 c -0.094,1.611 -2.755,0.655 -2.558,2.558 0.4,2.327 4.428,1.029 5.115,3.069 -0.161,1.203 -2.425,0.304 -2.046,2.046 -0.135,1.67 1.985,1.085 2.046,2.558 -2.879,3.751 -4.193,-2.94 -5.115,-2.558 1.577,0.98 0.4,4.716 1.535,6.139 -0.277,-2.664 4.032,-0.741 4.604,-2.558 -0.756,-2.769 -0.984,-3.022 0,-5.627 -0.616,-1.771 -2.675,-2.101 -4.093,-3.069 3.901,-4.775 -3.906,-5.261 -7.673,-5.627 10.268,-9.635 -0.691,-27.955 -14.835,-22.508 -2.575,0.992 -4.585,4.137 -6.138,7.161 1.791,3.771 2.382,13.843 7.673,10.743 -4.225,-0.227 -6.956,-4.401 -4.604,-8.185 -0.122,-1.413 -1.901,-1.168 -2.558,-2.047 2.979,-2.629 4.323,-6.431 8.185,-7.161 14.143,-2.678 18.755,14.729 10.231,23.53 2.49,1.44 8.55,-0.69 10.23,1.54 z m 34.79,-8.7 c -5.792,2.495 -16.146,4.378 -23.531,2.046 -1.794,0.778 -4.057,3.769 -6.649,2.047 -0.557,-2.944 2.35,-2.425 1.534,-5.627 -0.594,-1.794 -4.693,-0.081 -5.115,-2.047 0.812,-8.585 10.461,-10.751 18.927,-8.696 -7.055,-4.935 -20.14,-0.216 -19.95,8.696 0.779,1.949 3.107,2.35 5.115,3.069 -2.194,1.633 -1.732,5.93 0.512,7.162 3.28,-0.131 4.114,-2.707 6.65,-3.581 5.377,4.111 16.884,0.506 22.508,-1.535 -4.68,7.359 2.9,9.979 4.093,15.858 2.67,0.556 5.963,3.382 9.719,3.581 5.166,0.273 11.033,-4.027 11.254,-7.162 0.165,-2.347 -3.041,-6.61 -5.115,-4.604 8.225,3.347 -0.576,11.341 -7.673,10.23 -2.324,-2.222 -4.742,-2.31 -7.674,-3.069 -0.451,-3.812 -1.872,-6.653 -5.115,-7.673 3.063,-15.107 13.493,-24.672 30.692,-24.043 -16.49,-3.24 -23.37,7.21 -30.18,15.33 z m 34.79,-0.51 c 3.941,-1.957 1.27,-10.773 -2.047,-9.719 2.975,1.146 4.541,8.126 0.512,9.207 -0.021,-2.656 -2.957,-3.545 -5.115,-2.558 -3.055,6.971 6.172,10.267 10.742,6.65 -1.028,-3.415 2.197,-2.577 2.558,-4.604 0.248,-2.294 -1.808,-2.284 -2.046,-4.093 0.968,-0.567 2.417,-0.652 3.581,-1.023 -0.951,-5.19 -6.435,-8.566 -11.766,-7.673 3.807,1.479 7.664,2.907 10.23,5.627 -0.094,1.611 -2.755,0.655 -2.558,2.558 4.098,5.426 -5.429,11.719 -10.23,6.65 0.091,-1.614 0.359,-3.051 2.046,-3.069 2.17,-0.2 2.37,3.4 4.11,2.03 z m -84.92,5.63 c 9.594,-1.723 6.003,-21.85 -4.093,-18.415 9.1,-1.4 11.38,14.21 4.09,18.42 z m -7.16,-15.35 c 0.192,-1.685 2.72,-1.032 2.558,-3.069 -1.37,0.2 -3.68,2.08 -2.56,3.07 z m 76.73,24.56 c -2.653,-1.854 1.337,-6.047 -1.534,-6.139 -1.812,1.188 0.861,4.877 -0.512,5.627 -26.158,-1.436 -2.991,-29.812 12.276,-25.577 -16.66,-9.58 -40.09,29.6 -10.24,26.09 z m 30.18,-20.98 c 0.733,3.156 9.217,7.386 12.789,6.65 5.755,-1.185 3.76,-10.99 -1.023,-6.139 0.19,0.632 3.742,-0.774 4.093,1.023 -3.151,12.508 -24.294,-7.807 -9.72,-5.627 -0.214,1.831 -2.973,1.119 -3.069,3.069 1.247,2.514 7.253,6.671 9.72,3.069 -2.248,0.685 -7.541,-0.251 -8.696,-3.581 1.614,-0.091 3.051,-0.359 3.069,-2.046 -4.28,-6.7 -8.1,-0.46 -7.16,3.59 z m -72.13,-0.51 c 0.506,-1.37 3.116,-0.636 3.069,-2.559 -4.068,-4.14 -8.846,0.766 -8.696,3.581 0.345,6.509 17.324,8.533 22.508,4.604 -6.136,1.875 -21.606,0.733 -21.484,-5.116 0.051,-2.467 2.686,-4.458 6.138,-3.069 0,1.08 -2.79,1.94 -1.54,2.57 z m -0.51,1.02 c 2.931,3.665 9.376,-0.749 9.72,-4.604 -0.113,-0.398 -0.429,-0.595 -1.023,-0.512 -0.29,4.04 -4.64,6.52 -8.7,5.11 z m -112.03,-1.02 c -2.987,-1.064 -7.744,-0.521 -7.162,3.58 1.731,3.438 7.045,2.487 10.743,1.535 -0.905,-3.799 -8.776,2.607 -9.719,-2.558 1.291,-3.443 8.253,1.195 8.696,-3.581 -0.287,-0.736 -0.798,-1.248 -1.535,-1.535 0.08,1.27 0.1,2.48 -1.02,2.56 z m 67.53,7.67 c -2.886,-0.542 -4.003,2.13 -5.627,0 -0.518,-2.393 2.052,-1.7 1.534,-4.093 -1.114,-1.613 -4.591,-0.865 -7.161,-1.022 -5.72,12.502 11.784,16.52 24.554,13.812 -8.904,-0.434 -29.935,-0.393 -23.531,-12.789 1.048,-0.791 4.58,-0.791 5.627,0 -1.69,0.748 -1.969,3.697 -1.022,5.627 2.136,0.855 4.994,-0.382 6.649,-1.534 1.973,-9.479 -13.951,-11.587 -16.369,-4.604 3.01,-4.95 17.32,-4.52 15.35,4.59 z m 9.71,-4.09 c 1.774,0.41 1.967,-0.762 3.581,-0.512 1.3,0.406 0.276,3.135 2.046,3.069 0.71,-3.74 -4.06,-5.44 -5.63,-2.56 z m 102.31,3.07 c -1.61,1.942 -3.04,6.087 -1.022,8.696 4.42,0.839 5.517,-1.645 6.138,-4.604 4.106,-0.014 6.81,1.375 7.674,4.604 -0.826,2.244 -4.859,1.28 -6.139,3.069 -0.073,2.802 1.871,3.586 3.581,4.604 15.14,-3.33 2.28,-22.8 -10.23,-16.37 z m -119.19,14.32 c -1.508,1.571 -1.03,4.012 0.512,5.115 3.257,-0.266 4.279,-3.749 8.185,-4.604 6.227,-1.362 14.378,1.191 18.416,-3.069 -5.809,1.251 -12.525,0.348 -17.904,1.534 -4.396,0.971 -6.42,4.776 -9.719,4.604 -0.301,-2.177 2.762,-0.989 2.046,-3.581 -1.884,-2.55 -7.082,-1.784 -8.696,-4.604 -0.31,-1.81 2.429,-3.184 0,-4.093 -3.21,5.48 3.1,7.4 7.15,8.7 z m 27.63,-1.02 c 3.25,0.169 7.458,2.079 9.207,2.047 -1.68,-1.63 -6.79,-4.49 -9.21,-2.05 z"
   id="path1207"
   style="fill:#d52e2e;fill-opacity:1;stroke:#000000;stroke-opacity:1;stroke-width:0.51021508;stroke-miterlimit:4;stroke-dasharray:none" />

	<path
   d="m 53.991,101.94 c 1.013,-1.63 1.99,1.031 1.535,2.558 3.215,-1.77 10.26,-1.142 8.696,3.069 -3.648,-1.864 -5.261,1.6 -9.208,1.023 2.346,-1.234 5.275,-1.887 8.185,-2.558 -1.884,-4.26 -8.576,1.93 -9.208,-4.09 z"
   id="path1209"
   style="fill:#d52e2e;fill-opacity:1;stroke:#000000;stroke-opacity:1;stroke-width:0.51021508;stroke-miterlimit:4;stroke-dasharray:none" />

	<path
   d="m 55.525,110.12 c 3.424,-0.8 7.571,0.698 7.673,3.581 0.249,7.01 -13.99,4.47 -7.673,-3.58 z m 5.116,1.02 c -3.135,-1.484 -5.926,0.569 -5.627,4.092 2.31,4.47 9.548,0.27 5.627,-4.09 z"
   id="path1211"
   style="fill:#d52e2e;fill-opacity:1;stroke:#000000;stroke-opacity:1;stroke-width:0.51021508;stroke-miterlimit:4;stroke-dasharray:none" />

	<path
   d="m 63.199,118.31 c 0.297,1.337 -3.209,3.258 -2.046,7.162 h 2.046 c -0.697,-1.519 -0.74,-3.707 0.512,-4.604 -0.027,1.415 -0.584,3.376 1.023,5.115 -5.327,3.8 -5.908,-6.74 -1.535,-7.67 z"
   id="path1213"
   style="fill:#d52e2e;fill-opacity:1;stroke:#000000;stroke-opacity:1;stroke-width:0.51021508;stroke-miterlimit:4;stroke-dasharray:none" />

	<path
   d="m 71.383,119.84 c 2.212,-1.18 6.843,6.12 1.535,6.65 2.728,-1.81 0.661,-5.53 -1.535,-6.65 z"
   id="path1215"
   style="fill:#d52e2e;fill-opacity:1;stroke:#000000;stroke-opacity:1;stroke-width:0.51021508;stroke-miterlimit:4;stroke-dasharray:none" />

	<path
   d="m 65.245,128.54 c 1.569,-1.826 3.134,2.254 5.115,2.558 5.457,0.835 12.984,-8.407 18.416,-2.046 -5.046,-5.13 -12.592,4.14 -18.416,3.069 -2.754,-0.51 -1.769,-3.02 -5.115,-3.58 z"
   id="path1217"
   style="fill:#d52e2e;fill-opacity:1;stroke:#000000;stroke-opacity:1;stroke-width:0.51021508;stroke-miterlimit:4;stroke-dasharray:none" />

	<path
   fill="#a99a6f"
   d="m 414.12,243.12 c -45.235,12.876 -103.66,4.351 -146.81,-3.069 31.082,7.218 76.798,14.094 118.68,9.719 19.118,-1.997 36.949,-4.655 46.551,-15.346 -5.159,9.794 -22.63,16.652 -36.319,19.438 -34.479,7.018 -76.341,3.444 -109.98,-2.558 -66.988,-11.951 -124.63,-34.396 -174.95,-62.408 -25.3,-14.085 -48.343,-32.379 -63.943,-54.735 28.273,33.801 67.405,56.655 109.98,75.709 42.697,19.106 91.256,33.473 144.26,41.435 -12.889,-4.037 -26.171,-5.214 -38.877,-8.185 -87.02,-20.34 -165.02,-53.65 -215.88,-111.52 -1.796,-0.448 -0.532,1.327 0,1.535 -0.721,1.016 -1.731,-1.986 -2.558,-2.558 5.403,-4.7 8.44,4.102 10.743,6.65 22.868,25.316 54.271,43.767 86.451,60.362 37.2,19.185 79.234,33.577 125.33,42.458 -34.448,-9.374 -70.111,-17.533 -99.751,-31.716 63.8,22.25 156.09,51.55 247.07,34.79 z"
   id="path1219"
   style="fill:#d52e2e;fill-opacity:1;stroke:#000000;stroke-opacity:1;stroke-width:0.51021508;stroke-miterlimit:4;stroke-dasharray:none" />

	<path
   d="m 64.733,129.56 c -0.513,5.288 3.253,6.296 6.65,7.673 1.99,-1.194 3.17,-1.856 6.139,-1.022 1.905,-2.018 2.618,-5.226 6.65,-5.116 0.455,0.91 1.428,1.3 1.023,3.069 1.498,-0.459 1.572,-0.459 3.069,0 0.244,2.265 -0.704,2.544 0,4.093 4.396,0.715 3.112,-5.172 2.046,-7.162 2.586,1.148 3.317,8.48 -1.023,8.185 -0.867,-1.009 -2.578,-1.174 -2.046,-3.581 -1.346,-0.871 -3.754,-0.68 -3.069,-3.581 -3.597,-0.187 -4,2.821 -5.115,5.115 -5.89,2.54 -17.047,-0.85 -14.324,-7.68 z"
   id="path1221"
   style="fill:#d52e2e;fill-opacity:1;stroke:#000000;stroke-opacity:1;stroke-width:0.51021508;stroke-miterlimit:4;stroke-dasharray:none" />

	<path
   d="m 108.21,142.86 c -1.179,0.526 -1.649,1.761 -3.581,1.535 -1.759,-0.117 -2.229,-1.522 -2.558,-3.069 -1.164,0.711 -1.981,1.77 -3.069,2.558 -0.723,-1.258 2.221,-3.219 3.581,-4.093 0.852,0.683 0.171,2.898 1.023,3.581 3.799,0.99 4.158,-2.746 3.069,-5.115 -6.402,-3.569 -10.489,2.375 -10.742,8.185 -1.92,0.385 -1.115,-1.954 -2.558,-2.046 -1.95,0.096 -3.366,0.727 -3.581,2.558 0.371,1.846 3.897,0.536 5.116,1.534 0.797,7.484 11.708,6.371 18.416,5.115 -1.324,-4.055 -7.362,-0.236 -8.185,-4.604 -3.152,1.367 -6.544,-0.316 -6.138,-4.092 1.013,2.201 2.466,4.418 5.627,3.068 3.828,2.139 7.158,3.046 11.765,5.116 -6.649,3.385 -20.201,4.983 -22.508,-3.581 -1.289,-0.236 -3.406,-0.032 -4.604,-1.535 0.423,-1.445 -0.721,-1.325 -0.511,-2.558 0.666,-1.039 2.188,-1.222 3.069,-2.046 2.226,-0.521 2.352,1.059 3.581,1.535 -1.746,-7.83 13.763,-12.77 12.783,-2.04 z"
   id="path1223"
   style="fill:#d52e2e;fill-opacity:1;stroke:#000000;stroke-opacity:1;stroke-width:0.51021508;stroke-miterlimit:4;stroke-dasharray:none" />

	<path
   d="m 113.33,164.86 c -3.101,0.714 -2.344,-2.431 -5.116,-2.046 -1.434,4 4.225,5.318 7.162,6.65 1.175,1.325 -1.041,2.361 -1.535,3.581 2.535,2.188 7.972,0.274 11.254,0 0.912,1.134 2.015,2.077 1.535,4.604 6.477,-1.708 12.396,-3.974 18.927,-5.627 1.75,-0.216 1.537,1.532 2.558,2.046 2.792,-0.305 4.895,-1.562 4.604,-3.581 13.539,-10.652 30.421,11.941 10.742,14.835 -0.318,-1.387 -2.137,-1.272 -2.046,-3.069 -0.683,-2.729 2.729,-1.363 2.046,-4.092 -1.049,-3.999 -6.12,-0.956 -8.185,0 0.201,1.453 0.489,4.196 3.581,4.092 -0.104,1.601 0.345,3.756 -0.511,4.604 -1.137,1.184 -1.995,-0.174 -3.581,0 -1.809,0.503 -2.163,4.252 0,4.604 3.114,0.215 3.312,-2.485 6.139,-2.558 0.875,0.488 1.03,1.697 2.046,2.046 18.903,-0.408 17.263,-24.75 0.512,-26.6 -5.899,-0.651 -12.589,2.973 -16.369,0 -0.755,-2.594 2.206,-3.165 1.023,-4.604 -4.217,-2.735 -7.169,4.76 -3.069,6.139 -2.592,0.818 -4.48,-6.1 -1.535,-8.185 1.92,0.809 5.101,0.356 6.139,2.046 0.67,2.547 -1.575,2.177 -1.535,4.093 4.406,2.166 9.222,-0.997 14.323,-0.512 8.948,0.852 17.229,6.764 15.858,18.416 -2.749,5.357 -10.5,13.987 -17.904,8.185 -1.804,0.412 -1.738,2.694 -4.092,2.558 -3.08,-0.519 -4.351,-2.525 -3.581,-5.627 1.842,-0.375 2.583,-1.85 5.115,-1.535 0.428,-3.667 -3.236,-3.243 -3.581,-6.139 1.065,-3.713 9.045,-5.077 10.742,-1.022 0.093,2.651 -2.391,2.725 -2.558,5.115 10.37,4.296 11.589,-12.801 1.535,-14.323 -7.117,-1.077 -10.768,4.387 -15.346,6.65 -1.607,-0.099 -2.46,-0.951 -2.558,-2.558 -6.646,0.705 -20.403,11.27 -20.973,1.022 -3.641,0.595 -8.435,2.925 -11.254,0 -1.19,-2.007 0.626,-1.901 0.512,-4.092 -3.896,-1.221 -7.485,-2.746 -7.673,-7.674 2.687,-1.615 3.772,0.835 5.627,1.535 0.698,-4.341 2.318,-9.206 6.65,-11.254 1.01,0.959 -4.812,3.626 -5.116,6.649 -0.15,1.85 0.45,4.5 -0.5,5.6 z"
   id="path1225"
   style="fill:#d52e2e;fill-opacity:1;stroke:#000000;stroke-opacity:1;stroke-width:0.51021508;stroke-miterlimit:4;stroke-dasharray:none" />

	<path
   d="m 126.12,160.25 c -1.334,-1.707 2.384,-1.782 2.558,-3.581 -3.551,-4.518 -10.262,0.292 -10.743,4.093 -1.394,11.026 18.878,10.202 28.646,7.161 -8.89,5.88 -31.64,4.322 -29.669,-7.673 0.72,-4.38 9.007,-9.125 12.789,-3.581 -0.004,2.213 -2.413,2.021 -3.069,3.581 0.513,1.363 2.065,1.687 3.069,2.558 4.748,-1.132 2.355,-9.612 -1.535,-9.719 9.12,-2.04 3.63,17.61 -2.06,7.16 z"
   id="path1227"
   style="fill:#d52e2e;fill-opacity:1;stroke:#000000;stroke-opacity:1;stroke-width:0.51021508;stroke-miterlimit:4;stroke-dasharray:none" />

	<path
   d="m 192.11,186.85 c 0.809,-9.541 -11.412,-6.884 -14.323,-2.558 2.702,-6.453 16.365,-7.192 15.346,3.069 -1.727,1.684 -2.376,4.444 -5.115,5.115 -1.388,-0.999 -3.321,-1.454 -3.581,-3.581 -0.369,-2.927 2.927,-2.188 2.558,-5.115 -2.06,-1.525 -3.617,1.822 -5.627,2.046 0.851,-2.18 5.036,-4.278 7.162,-2.046 0.323,3.222 -2.8,2.997 -3.581,5.115 1.7,4.73 5.94,-0.12 7.16,-2.05 z"
   id="path1229"
   style="fill:#d52e2e;fill-opacity:1;stroke:#000000;stroke-opacity:1;stroke-width:0.51021508;stroke-miterlimit:4;stroke-dasharray:none" />

	<path
   d="m 177.27,186.85 c 1.636,1.34 -1.956,1.761 -1.535,3.58 0.198,3.554 3.606,3.897 3.069,8.186 -2.179,0.549 -3.809,1.647 -6.65,1.534 0.871,-1.857 4.265,-1.192 5.627,-2.558 -0.48,-3.93 -4.89,-7.79 -0.52,-10.74 z"
   id="path1231"
   style="fill:#d52e2e;fill-opacity:1;stroke:#000000;stroke-opacity:1;stroke-width:0.51021508;stroke-miterlimit:4;stroke-dasharray:none" />

	<path
   d="m 249.4,203.22 c 1.623,-1.684 -1.975,-1.032 -1.535,-3.069 1.479,-1.419 4.147,-1.65 5.627,-3.069 -2.224,-8.388 -16.188,-5.376 -24.554,-5.115 -3.835,2.819 -7.837,7.609 -6.139,14.323 -3.273,-6.493 0.711,-15.987 9.72,-16.881 2.273,-0.226 5.565,0.387 8.185,0.512 7.005,0.334 14.824,1.616 13.812,9.207 -1.648,0.228 -2.771,0.98 -4.604,1.023 -0.505,2.04 1.529,1.54 1.023,3.581 -3.536,4.892 -11.661,4.821 -13.3,-1.535 -0.201,-2.076 0.187,-3.563 2.046,-3.58 -5.17,6.05 6.45,10.37 9.72,4.62 z"
   id="path1233"
   style="fill:#d52e2e;fill-opacity:1;stroke:#000000;stroke-opacity:1;stroke-width:0.51021508;stroke-miterlimit:4;stroke-dasharray:none" />

	<path
   d="m 276,224.2 c -0.672,-0.182 -0.805,-0.901 -1.534,-1.023 0.829,3.606 -2.724,9.717 -7.673,10.742 2.75,-2.995 7.519,-6.3 6.649,-11.254 -0.216,-1.75 1.532,-1.537 2.046,-2.558 -4.188,-6.765 -15.644,-3.261 -23.53,-3.069 -10.072,0.244 -24.932,-3.995 -26.089,-13.3 -1.206,-9.696 12.551,-13.888 19.438,-7.673 v 3.58 c -1.17,0.326 -3.086,1.015 -4.092,0 0.084,-1.437 2.648,-0.357 3.58,-2.046 -4.696,-7.666 -20.86,-1.256 -17.392,7.161 2.378,5.774 9.228,9.484 16.88,10.231 11.05,1.08 34.86,-4.82 31.7,9.21 z"
   id="path1235"
   style="fill:#d52e2e;fill-opacity:1;stroke:#000000;stroke-opacity:1;stroke-width:0.51021508;stroke-miterlimit:4;stroke-dasharray:none" />

	<path
   d="m 313.85,227.26 c 8.523,-8.802 3.911,-26.208 -10.231,-23.53 -3.861,0.73 -5.205,4.532 -8.185,7.161 0.656,0.879 2.436,0.634 2.558,2.047 -2.352,3.783 0.38,7.958 4.604,8.185 -5.291,3.1 -5.882,-6.972 -7.673,-10.743 1.553,-3.024 3.562,-6.169 6.138,-7.161 14.144,-5.447 25.103,12.873 14.835,22.508 3.767,0.366 11.574,0.852 7.673,5.627 1.418,0.969 3.477,1.299 4.093,3.069 -0.984,2.604 -0.756,2.858 0,5.627 -0.571,1.816 -4.881,-0.106 -4.604,2.558 -1.135,-1.423 0.042,-5.158 -1.535,-6.139 0.922,-0.383 2.236,6.309 5.115,2.558 -0.061,-1.473 -2.181,-0.888 -2.046,-2.558 -0.379,-1.742 1.885,-0.843 2.046,-2.046 -0.688,-2.04 -4.715,-0.742 -5.115,-3.069 -0.197,-1.902 2.464,-0.946 2.558,-2.558 -1.68,-2.23 -7.74,-0.1 -10.23,-1.54 z"
   id="path1237"
   style="fill:#d52e2e;fill-opacity:1;stroke:#000000;stroke-opacity:1;stroke-width:0.51021508;stroke-miterlimit:4;stroke-dasharray:none" />

	<path
   d="m 389.56,217.54 c -1.687,0.019 -1.955,1.455 -2.046,3.069 4.802,5.068 14.328,-1.225 10.23,-6.65 -0.197,-1.902 2.464,-0.946 2.558,-2.558 -2.566,-2.72 -6.424,-4.147 -10.23,-5.627 5.331,-0.894 10.814,2.482 11.766,7.673 -1.164,0.371 -2.613,0.456 -3.581,1.023 0.238,1.809 2.294,1.799 2.046,4.093 -0.36,2.026 -3.586,1.188 -2.558,4.604 -4.57,3.616 -13.797,0.32 -10.742,-6.65 2.158,-0.987 5.094,-0.099 5.115,2.558 4.029,-1.081 2.463,-8.062 -0.512,-9.207 3.316,-1.055 5.988,7.762 2.047,9.719 -1.74,1.39 -1.94,-2.21 -4.1,-2.03 z"
   id="path1239"
   style="fill:#d52e2e;fill-opacity:1;stroke:#000000;stroke-opacity:1;stroke-width:0.51021508;stroke-miterlimit:4;stroke-dasharray:none" />

	<path
   d="m 304.65,206.8 c 10.096,-3.435 13.687,16.692 4.093,18.415 7.29,-4.21 5.01,-19.82 -4.09,-18.42 z"
   id="path1241"
   style="fill:#d52e2e;fill-opacity:1;stroke:#000000;stroke-opacity:1;stroke-width:0.51021508;stroke-miterlimit:4;stroke-dasharray:none" />

	<path
   d="m 337.9,210.38 c -3.452,-1.389 -6.087,0.603 -6.138,3.069 -0.122,5.85 15.349,6.991 21.484,5.116 -5.184,3.929 -22.163,1.904 -22.508,-4.604 -0.149,-2.815 4.628,-7.721 8.696,-3.581 0.047,1.923 -2.563,1.188 -3.069,2.559 -1.25,-0.64 1.54,-1.5 1.54,-2.57 z"
   id="path1243"
   style="fill:#d52e2e;fill-opacity:1;stroke:#000000;stroke-opacity:1;stroke-width:0.51021508;stroke-miterlimit:4;stroke-dasharray:none" />

	<path
   d="m 276,216.01 c 2.418,-6.982 18.342,-4.875 16.369,4.604 -1.655,1.152 -4.514,2.39 -6.649,1.534 -0.946,-1.93 -0.668,-4.879 1.022,-5.627 -1.047,-0.791 -4.579,-0.791 -5.627,0 -6.403,12.396 14.627,12.355 23.531,12.789 -12.77,2.708 -30.273,-1.31 -24.554,-13.812 2.57,0.157 6.047,-0.591 7.161,1.022 0.518,2.393 -2.052,1.7 -1.534,4.093 1.624,2.13 2.741,-0.542 5.627,0 1.97,-9.1 -12.34,-9.53 -15.35,-4.59 z"
   id="path1245"
   style="fill:#d52e2e;fill-opacity:1;stroke:#000000;stroke-opacity:1;stroke-width:0.51021508;stroke-miterlimit:4;stroke-dasharray:none" />

	<path
   d="m 277.02,225.22 c 2.429,0.909 -0.31,2.283 0,4.093 1.614,2.819 6.812,2.054 8.696,4.604 0.716,2.592 -2.347,1.404 -2.046,3.581 3.299,0.172 5.323,-3.634 9.719,-4.604 5.379,-1.187 12.096,-0.283 17.904,-1.534 -4.038,4.261 -12.189,1.707 -18.416,3.069 -3.905,0.854 -4.928,4.338 -8.185,4.604 -1.542,-1.104 -2.02,-3.544 -0.512,-5.115 -4.04,-1.31 -10.35,-3.23 -7.15,-8.7 z"
   id="path1247"
   style="fill:#d52e2e;fill-opacity:1;stroke:#000000;stroke-opacity:1;stroke-width:0.51021508;stroke-miterlimit:4;stroke-dasharray:none" />

</g>
    </g>
  </g>
</svg>
