<?xml version="1.0" encoding="UTF-8" standalone="no"?>
<!-- Created with Inkscape (http://www.inkscape.org/) -->

<svg
   width="95.860001mm"
   height="106.86mm"
   viewBox="0 0 95.860001 106.86"
   version="1.1"
   id="svg13356"
   inkscape:version="1.1.1 (3bf5ae0d25, 2021-09-20)"
   sodipodi:docname="doc_v2.svg"
   xmlns:inkscape="http://www.inkscape.org/namespaces/inkscape"
   xmlns:sodipodi="http://sodipodi.sourceforge.net/DTD/sodipodi-0.dtd"
   xmlns:xlink="http://www.w3.org/1999/xlink"
   xmlns="http://www.w3.org/2000/svg"
   xmlns:svg="http://www.w3.org/2000/svg">
  <sodipodi:namedview
     id="namedview13358"
     pagecolor="#ffffff"
     bordercolor="#999999"
     borderopacity="1"
     inkscape:pageshadow="0"
     inkscape:pageopacity="0"
     inkscape:pagecheckerboard="0"
     inkscape:document-units="mm"
     showgrid="false"
     inkscape:zoom="0.72337262"
     inkscape:cx="-4.8384469"
     inkscape:cy="156.90392"
     inkscape:window-width="1920"
     inkscape:window-height="1001"
     inkscape:window-x="-9"
     inkscape:window-y="-9"
     inkscape:window-maximized="1"
     inkscape:current-layer="layer1" />
  <defs
     id="defs13353">
    <radialGradient
       id="radialGradient2666"
       gradientUnits="userSpaceOnUse"
       cy="45.941002"
       cx="24.377001"
       gradientTransform="matrix(1,0,0,0.14554,0,39.255)"
       r="23.077">
      <stop
         id="stop3478"
         stop-color="#2e3436"
         offset="0" />
      <stop
         id="stop3480"
         stop-color="#2e3436"
         stop-opacity="0"
         offset="1" />
    </radialGradient>
    <linearGradient
       id="linearGradient2946"
       gradientUnits="userSpaceOnUse"
       x2="0"
       y1="4.2188001"
       y2="43.780998">
      <stop
         id="stop3435"
         stop-color="#ffffff"
         stop-opacity=".8"
         offset="0" />
      <stop
         id="stop3437"
         stop-color="#ffffff"
         stop-opacity="0"
         offset="1" />
    </linearGradient>
    <linearGradient
       id="linearGradient2948"
       y2="33.905998"
       gradientUnits="userSpaceOnUse"
       x2="15.298"
       gradientTransform="translate(0.70639,-1.5)"
       y1="-58.012001"
       x1="4.0938001">
      <stop
         id="stop3458"
         stop-color="#eeeeec"
         offset="0" />
      <stop
         id="stop3460"
         stop-color="#eeeeec"
         stop-opacity="0"
         offset="1" />
    </linearGradient>
    <path
       id="XMLID_1_"
       d="m 159.91,201.46 c 46.575,34.697 81.758,46.493 113.89,40.593 32.136,-5.896 43.344,-20.908 51.146,-43.534 7.796,-22.623 -3.806,-55.9 -3.806,-55.9 l 3.648,1.54 c 0.02,0.054 8.407,20.434 8.079,43.782 -0.328,23.455 -13.369,56.591 -48.773,68.401 -29.503,9.84 -60.632,-2.016 -84.554,-14.339 -23.979,-12.357 -40.692,-27.127 -40.738,-27.167 l 1.1,-13.37" />
    <polyline
       id="XMLID_3_"
       points="308.5 78.451 322.07 80.844 279.64 321.55 266.06 319.15 308.5 78.451" />
    <path
       id="XMLID_5_"
       d="m 159.91,201.46 c 46.575,34.697 81.758,46.493 113.89,40.593 32.136,-5.896 43.344,-20.908 51.146,-43.534 7.796,-22.623 -3.806,-55.9 -3.806,-55.9 l 3.648,1.54 c 0.02,0.054 8.407,20.434 8.079,43.782 -0.328,23.455 -13.369,56.591 -48.773,68.401 -29.503,9.84 -60.632,-2.016 -84.554,-14.339 -23.979,-12.357 -40.692,-27.127 -40.738,-27.167 l 1.1,-13.37" />
    <polyline
       id="XMLID_7_"
       points="288.96 78.451 302.54 80.844 260.1 321.55 246.52 319.15 288.96 78.451" />
    <path
       id="XMLID_9_"
       d="m 159.91,201.46 c 46.575,34.697 81.758,46.493 113.89,40.593 32.136,-5.896 43.344,-20.908 51.146,-43.534 7.796,-22.623 -3.806,-55.9 -3.806,-55.9 l 3.648,1.54 c 0.02,0.054 8.407,20.434 8.079,43.782 -0.328,23.455 -13.369,56.591 -48.773,68.401 -29.503,9.84 -60.632,-2.016 -84.554,-14.339 -23.979,-12.357 -40.692,-27.127 -40.738,-27.167 l 1.1,-13.37" />
    <polyline
       id="XMLID_11_"
       points="208.39 15.168 221.96 17.562 179.52 258.26 165.95 255.87 208.39 15.168" />
    <path
       id="XMLID_13_"
       d="m 159.91,201.46 c 46.575,34.697 81.758,46.493 113.89,40.593 32.136,-5.896 43.344,-20.908 51.146,-43.534 7.796,-22.623 -3.806,-55.9 -3.806,-55.9 l 3.648,1.54 c 0.02,0.054 8.407,20.434 8.079,43.782 -0.328,23.455 -13.369,56.591 -48.773,68.401 -29.503,9.84 -60.632,-2.016 -84.554,-14.339 -23.979,-12.357 -40.692,-27.127 -40.738,-27.167 l 1.1,-13.37" />
    <polyline
       id="XMLID_15_"
       points="324.36 19.323 338.14 19.323 338.16 263.73 324.38 263.73 324.36 19.323" />
    <path
       id="XMLID_17_"
       d="m 159.91,201.46 c 46.575,34.697 81.758,46.493 113.89,40.593 32.136,-5.896 43.344,-20.908 51.146,-43.534 7.796,-22.623 -3.806,-55.9 -3.806,-55.9 l 3.648,1.54 c 0.02,0.054 8.407,20.434 8.079,43.782 -0.328,23.455 -13.369,56.591 -48.773,68.401 -29.503,9.84 -60.632,-2.016 -84.554,-14.339 -23.979,-12.357 -40.692,-27.127 -40.738,-27.167 l 1.1,-13.37" />
    <path
       id="XMLID_19_"
       d="m 15.174,283.02 c 0,-21.585 17.498,-39.086 39.085,-39.086 21.588,0 39.088,17.501 39.088,39.086 0,21.587 -17.5,39.088 -39.088,39.088 -21.587,0 -39.085,-17.5 -39.085,-39.09" />
    <path
       id="XMLID_21_"
       d="m 27.332,278.46 c 0,-15.084 12.227,-27.31 27.31,-27.31 15.083,0 27.311,12.226 27.311,27.31 0,15.081 -12.227,27.309 -27.311,27.309 -15.083,-0.01 -27.31,-12.23 -27.31,-27.31" />
    <path
       id="XMLID_23_"
       d="m 29.986,278.4 c 0,-13.058 10.586,-23.642 23.642,-23.642 13.059,0 23.643,10.584 23.643,23.642 0,13.059 -10.584,23.645 -23.643,23.645 -13.056,0.01 -23.642,-10.58 -23.642,-23.64" />
    <polyline
       id="XMLID_25_"
       points="53.635 306.74 44 333.92 31.726 329.57 41.361 302.39 53.635 306.74" />
    <path
       id="XMLID_27_"
       d="m 145.21,22.162 c 0,0 10.14,0.641 12.064,14.307 1.923,13.666 -0.962,13.344 -0.962,13.344 0,0 -11.426,6.265 -29.575,8.857 -4.487,0.642 -8.856,-8.657 -10.137,-12.383 -1.283,-3.726 -3.088,-9.177 1.602,-12.062 4.69,-2.886 15.59,-8.857 27.01,-12.063" />
    <path
       id="XMLID_29_"
       d="m 114.68,41.279 c 2.124,0 -26.368,8.856 -35.868,34.264 -7.837,20.966 25.574,91.267 116.1,186.28 l 7.729,-12.161 c -90.53,-95.01 -122.55,-154.16 -112.41,-174.12 10.138,-19.958 31.698,-23.166 29.575,-23.166 0,0 2.003,-3.646 0.841,-7.05 -1.16,-3.404 -5.96,-4.045 -5.96,-4.045" />
    <path
       id="XMLID_31_"
       d="m 203.6,25.689 c -2.886,3.848 -20.596,14.949 -27.331,16.55 -6.731,1.604 -9.817,-2.565 -11.743,-6.09 -1.923,-3.528 -5.017,-16.77 2.247,-21.239 13.023,-8.016 27.65,-10.581 27.65,-10.581 0,0 12.69,3.327 9.17,21.36" />
  </defs>
  <g
     inkscape:label="Calque 1"
     inkscape:groupmode="layer"
     id="layer1"
     transform="translate(7.4891398,-77.499794)">
    <g
       id="g2798">
      <ellipse
         style="fill:#ececec;fill-opacity:1;stroke:#000000;stroke-width:1.03196;stroke-miterlimit:4;stroke-dasharray:none;paint-order:stroke markers fill"
         id="path14757"
         cx="40.440861"
         cy="130.92979"
         rx="47.414021"
         ry="52.914021" />
      <g
         id="g8646"
         transform="matrix(0.88410896,0,0,0.92274951,-65.542234,-7.0095835)">
        <path
           d="m 108.6211,130.48198 c 8.70473,5.88223 15.28033,7.88202 21.2857,6.88179 6.00613,-0.99956 8.10087,-3.54457 9.55904,-7.38039 1.45705,-3.83531 -0.71133,-9.47681 -0.71133,-9.47681 l 0.6818,0.26108 c 0.004,0.009 1.57124,3.46421 1.50994,7.42243 -0.0613,3.97636 -2.49863,9.59396 -9.11553,11.59612 -5.51402,1.66819 -11.33194,-0.34177 -15.80289,-2.43091 -4.48161,-2.0949 -7.60522,-4.59888 -7.61382,-4.60566 l 0.20559,-2.26664"
           fill="#d1d3d4"
           id="path13996"
           style="fill:#d52e2e;fill-opacity:1;stroke-width:0.178003" />
        <g
           clip-path="url(#XMLID_34_)"
           id="g14030"
           style="fill:#d52e2e;fill-opacity:1"
           transform="matrix(0.18689706,0,0,0.16953147,78.734388,96.328166)">
          <defs
             id="defs14013">
            <path
               id="path14383"
               d="m 159.91,201.46 c 46.575,34.697 81.758,46.493 113.89,40.593 32.136,-5.896 43.344,-20.908 51.146,-43.534 7.796,-22.623 -3.806,-55.9 -3.806,-55.9 l 3.648,1.54 c 0.02,0.054 8.407,20.434 8.079,43.782 -0.328,23.455 -13.369,56.591 -48.773,68.401 -29.503,9.84 -60.632,-2.016 -84.554,-14.339 -23.979,-12.357 -40.692,-27.127 -40.738,-27.167 l 1.1,-13.37" />
          </defs>
          <clipPath
             id="XMLID_35_">
            <use
               xlink:href="#XMLID_5_"
               id="use14015"
               x="0"
               y="0"
               width="100%"
               height="100%" />
          </clipPath>
          <polyline
             clip-path="url(#XMLID_35_)"
             points="268.33 319.54 266.06 319.14 308.51 78.443 310.77 78.842"
             fill="#6d6f71"
             id="polyline14018"
             style="fill:#d52e2e;fill-opacity:1" />
          <polyline
             clip-path="url(#XMLID_35_)"
             points="270.59 319.94 268.33 319.54 310.77 78.842 313.03 79.24"
             fill="#808284"
             id="polyline14020"
             style="fill:#d52e2e;fill-opacity:1" />
          <polyline
             clip-path="url(#XMLID_35_)"
             points="272.85 320.34 270.59 319.94 313.03 79.24 315.3 79.64"
             fill="#939598"
             id="polyline14022"
             style="fill:#d52e2e;fill-opacity:1" />
          <polyline
             clip-path="url(#XMLID_35_)"
             points="275.12 320.74 272.85 320.34 315.3 79.64 317.56 80.041"
             fill="#a7a9ac"
             id="polyline14024"
             style="fill:#d52e2e;fill-opacity:1" />
          <polyline
             clip-path="url(#XMLID_35_)"
             points="277.38 321.14 275.12 320.74 317.56 80.041 319.82 80.438"
             fill="#bcbec0"
             id="polyline14026"
             style="fill:#d52e2e;fill-opacity:1" />
          <polyline
             clip-path="url(#XMLID_35_)"
             points="279.64 321.54 277.38 321.14 319.82 80.438 322.09 80.837"
             fill="#d1d3d4"
             id="polyline14028"
             style="fill:#d52e2e;fill-opacity:1" />
        </g>
        <g
           clip-path="url(#XMLID_36_)"
           id="g14056"
           style="fill:#d52e2e;fill-opacity:1"
           transform="matrix(0.18689706,0,0,0.16953147,78.734388,96.328166)">
          <defs
             id="defs14039">
            <path
               id="path14395"
               d="m 159.91,201.46 c 46.575,34.697 81.758,46.493 113.89,40.593 32.136,-5.896 43.344,-20.908 51.146,-43.534 7.796,-22.623 -3.806,-55.9 -3.806,-55.9 l 3.648,1.54 c 0.02,0.054 8.407,20.434 8.079,43.782 -0.328,23.455 -13.369,56.591 -48.773,68.401 -29.503,9.84 -60.632,-2.016 -84.554,-14.339 -23.979,-12.357 -40.692,-27.127 -40.738,-27.167 l 1.1,-13.37" />
          </defs>
          <clipPath
             id="XMLID_37_">
            <use
               xlink:href="#XMLID_9_"
               id="use14041"
               x="0"
               y="0"
               width="100%"
               height="100%" />
          </clipPath>
          <polyline
             clip-path="url(#XMLID_37_)"
             points="300.27 80.451 302.53 80.849 260.09 321.55 257.82 321.15"
             fill="#6d6f71"
             id="polyline14044"
             style="fill:#d52e2e;fill-opacity:1" />
          <polyline
             clip-path="url(#XMLID_37_)"
             points="298.01 80.053 300.27 80.451 257.82 321.15 255.56 320.75"
             fill="#808284"
             id="polyline14046"
             style="fill:#d52e2e;fill-opacity:1" />
          <polyline
             clip-path="url(#XMLID_37_)"
             points="295.74 79.654 298.01 80.053 255.56 320.75 253.3 320.35"
             fill="#939598"
             id="polyline14048"
             style="fill:#d52e2e;fill-opacity:1" />
          <polyline
             clip-path="url(#XMLID_37_)"
             points="293.48 79.256 295.74 79.654 253.3 320.35 251.04 319.95"
             fill="#a7a9ac"
             id="polyline14050"
             style="fill:#d52e2e;fill-opacity:1" />
          <polyline
             clip-path="url(#XMLID_37_)"
             points="291.22 78.854 293.48 79.256 251.04 319.95 248.77 319.55"
             fill="#bcbec0"
             id="polyline14052"
             style="fill:#d52e2e;fill-opacity:1" />
          <polyline
             clip-path="url(#XMLID_37_)"
             points="288.95 78.456 291.22 78.854 248.77 319.55 246.51 319.15"
             fill="#d1d3d4"
             id="polyline14054"
             style="fill:#d52e2e;fill-opacity:1" />
        </g>
        <g
           clip-path="url(#XMLID_38_)"
           id="g14082"
           style="fill:#d52e2e;fill-opacity:1"
           transform="matrix(0.18689706,0,0,0.16953147,78.734388,96.328166)">
          <defs
             id="defs14065">
            <path
               id="path14407"
               d="m 159.91,201.46 c 46.575,34.697 81.758,46.493 113.89,40.593 32.136,-5.896 43.344,-20.908 51.146,-43.534 7.796,-22.623 -3.806,-55.9 -3.806,-55.9 l 3.648,1.54 c 0.02,0.054 8.407,20.434 8.079,43.782 -0.328,23.455 -13.369,56.591 -48.773,68.401 -29.503,9.84 -60.632,-2.016 -84.554,-14.339 -23.979,-12.357 -40.692,-27.127 -40.738,-27.167 l 1.1,-13.37" />
          </defs>
          <clipPath
             id="XMLID_39_">
            <use
               xlink:href="#XMLID_13_"
               id="use14067"
               x="0"
               y="0"
               width="100%"
               height="100%" />
          </clipPath>
          <polyline
             clip-path="url(#XMLID_39_)"
             points="168.22 256.28 165.96 255.88 208.4 15.178 210.66 15.577"
             fill="#6d6f71"
             id="polyline14070"
             style="fill:#d52e2e;fill-opacity:1" />
          <polyline
             clip-path="url(#XMLID_39_)"
             points="170.48 256.67 168.22 256.28 210.66 15.577 212.92 15.979"
             fill="#808284"
             id="polyline14072"
             style="fill:#d52e2e;fill-opacity:1" />
          <polyline
             clip-path="url(#XMLID_39_)"
             points="172.74 257.07 170.48 256.67 212.92 15.979 215.18 16.375"
             fill="#939598"
             id="polyline14074"
             style="fill:#d52e2e;fill-opacity:1" />
          <polyline
             clip-path="url(#XMLID_39_)"
             points="175 257.47 172.74 257.07 215.18 16.375 217.44 16.775"
             fill="#a7a9ac"
             id="polyline14076"
             style="fill:#d52e2e;fill-opacity:1" />
          <polyline
             clip-path="url(#XMLID_39_)"
             points="177.26 257.87 175 257.47 217.44 16.775 219.7 17.174"
             fill="#bcbec0"
             id="polyline14078"
             style="fill:#d52e2e;fill-opacity:1" />
          <polyline
             clip-path="url(#XMLID_39_)"
             points="179.52 258.27 177.26 257.87 219.7 17.174 221.96 17.572"
             fill="#d1d3d4"
             id="polyline14080"
             style="fill:#d52e2e;fill-opacity:1" />
        </g>
        <g
           clip-path="url(#XMLID_40_)"
           id="g14104"
           style="fill:#d52e2e;fill-opacity:1"
           transform="matrix(0.18689706,0,0,0.16953147,78.734388,96.328166)">
          <defs
             id="defs14091">
            <path
               id="path14419"
               d="m 159.91,201.46 c 46.575,34.697 81.758,46.493 113.89,40.593 32.136,-5.896 43.344,-20.908 51.146,-43.534 7.796,-22.623 -3.806,-55.9 -3.806,-55.9 l 3.648,1.54 c 0.02,0.054 8.407,20.434 8.079,43.782 -0.328,23.455 -13.369,56.591 -48.773,68.401 -29.503,9.84 -60.632,-2.016 -84.554,-14.339 -23.979,-12.357 -40.692,-27.127 -40.738,-27.167 l 1.1,-13.37" />
          </defs>
          <clipPath
             id="XMLID_41_">
            <use
               xlink:href="#XMLID_17_"
               id="use14093"
               x="0"
               y="0"
               width="100%"
               height="100%" />
          </clipPath>
          <rect
             clip-path="url(#XMLID_41_)"
             height="244.41"
             width="2.2969999"
             y="19.305"
             x="331.26001"
             fill="#939598"
             id="rect14096"
             style="fill:#d52e2e;fill-opacity:1" />
          <rect
             clip-path="url(#XMLID_41_)"
             height="244.41"
             width="2.299"
             y="19.305"
             x="328.95999"
             fill="#a7a9ac"
             id="rect14098"
             style="fill:#d52e2e;fill-opacity:1" />
          <rect
             clip-path="url(#XMLID_41_)"
             height="244.41"
             width="2.2969999"
             y="19.305"
             x="326.66"
             fill="#bcbec0"
             id="rect14100"
             style="fill:#d52e2e;fill-opacity:1" />
          <rect
             clip-path="url(#XMLID_41_)"
             height="244.41"
             width="2.2969999"
             y="19.305"
             x="324.35999"
             fill="#d1d3d4"
             id="rect14102"
             style="fill:#d52e2e;fill-opacity:1" />
        </g>
        <path
           stroke="#000000"
           stroke-width="0.289966"
           stroke-miterlimit="3.864"
           d="m 108.6211,130.48198 c 8.70473,5.88223 15.28033,7.88202 21.2857,6.88179 6.00613,-0.99956 8.10087,-3.54457 9.55904,-7.38039 1.45705,-3.83531 -0.71133,-9.47681 -0.71133,-9.47681 l 0.6818,0.26108 c 0.004,0.009 1.57124,3.46421 1.50994,7.42243 -0.0613,3.97636 -2.49863,9.59396 -9.11553,11.59612 -5.51402,1.66819 -11.33194,-0.34177 -15.80289,-2.43091 -4.48161,-2.0949 -7.60522,-4.59888 -7.61382,-4.60566 l 0.20559,-2.26664 z"
           fill="none"
           id="path14106"
           style="fill:#d52e2e;fill-opacity:1" />
        <ellipse
           cy="144.74635"
           cx="88.301086"
           id="circle14108"
           style="fill:#d52e2e;fill-opacity:1;stroke-width:0.178003"
           rx="8.308322"
           ry="7.5363517" />
        <ellipse
           stroke-width="0.289966"
           stroke="#000000"
           cy="144.74635"
           cx="88.301086"
           stroke-miterlimit="3.864"
           fill="none"
           id="circle14110"
           style="fill:#d52e2e;fill-opacity:1"
           rx="8.308322"
           ry="7.5363517" />
        <ellipse
           cy="144.47002"
           cx="88.301277"
           fill="#ffffff"
           id="circle14112"
           style="fill:#d52e2e;fill-opacity:1;stroke-width:0.178003"
           rx="7.6437159"
           ry="6.9334979" />
        <ellipse
           stroke-width="0.266612"
           stroke="#000000"
           cy="144.47002"
           cx="88.301277"
           stroke-miterlimit="3.864"
           fill="none"
           id="circle14114"
           style="fill:#d52e2e;fill-opacity:1"
           rx="7.6437159"
           ry="6.9334979" />
        <polyline
           clip-path="url(#XMLID_42_)"
           points="38.479 246.52 40.508 245.15 84.222 309.96 82.197 311.33"
           fill="#c5c7c9"
           id="polyline14146"
           style="fill:#d52e2e;fill-opacity:1"
           transform="matrix(0.18689706,0,0,0.16953147,78.734388,96.328166)" />
        <polyline
           clip-path="url(#XMLID_42_)"
           points="36.455 247.89 38.479 246.52 82.197 311.33 80.173 312.7"
           fill="#c3c5c7"
           id="polyline14148"
           style="fill:#d52e2e;fill-opacity:1"
           transform="matrix(0.18689706,0,0,0.16953147,78.734388,96.328166)" />
        <polyline
           clip-path="url(#XMLID_42_)"
           points="34.43 249.25 36.455 247.89 80.173 312.7 78.145 314.06"
           fill="#c0c1c3"
           id="polyline14150"
           style="fill:#d52e2e;fill-opacity:1"
           transform="matrix(0.18689706,0,0,0.16953147,78.734388,96.328166)" />
        <polyline
           clip-path="url(#XMLID_42_)"
           points="32.404 250.62 34.43 249.25 78.145 314.06 76.119 315.43"
           fill="#bdbfc1"
           id="polyline14152"
           style="fill:#d52e2e;fill-opacity:1"
           transform="matrix(0.18689706,0,0,0.16953147,78.734388,96.328166)" />
        <polyline
           clip-path="url(#XMLID_42_)"
           points="30.379 251.98 32.404 250.62 76.119 315.43 74.094 316.8"
           fill="#bbbcbf"
           id="polyline14154"
           style="fill:#d52e2e;fill-opacity:1"
           transform="matrix(0.18689706,0,0,0.16953147,78.734388,96.328166)" />
        <polyline
           clip-path="url(#XMLID_42_)"
           points="28.354 253.35 30.379 251.98 74.094 316.8 72.069 318.16"
           fill="#b8babc"
           id="polyline14156"
           style="fill:#d52e2e;fill-opacity:1"
           transform="matrix(0.18689706,0,0,0.16953147,78.734388,96.328166)" />
        <polyline
           clip-path="url(#XMLID_42_)"
           points="26.33 254.72 28.354 253.35 72.069 318.16 70.044 319.52"
           fill="#b5b7b9"
           id="polyline14158"
           style="fill:#d52e2e;fill-opacity:1"
           transform="matrix(0.18689706,0,0,0.16953147,78.734388,96.328166)" />
        <polyline
           clip-path="url(#XMLID_42_)"
           points="24.305 256.08 26.33 254.72 70.044 319.52 68.019 320.89"
           fill="#b2b4b7"
           id="polyline14160"
           style="fill:#d52e2e;fill-opacity:1"
           transform="matrix(0.18689706,0,0,0.16953147,78.734388,96.328166)" />
        <ellipse
           stroke-width="0.266612"
           stroke="#000000"
           cy="144.30896"
           cx="88.87561"
           stroke-miterlimit="3.864"
           fill="none"
           id="circle14186"
           style="fill:#d52e2e;fill-opacity:1"
           rx="7.3052459"
           ry="6.6264768" />
        <ellipse
           cy="143.52573"
           cx="88.757492"
           fill="#ffffff"
           id="circle14188"
           style="fill:#d52e2e;fill-opacity:1;stroke-width:0.178003"
           rx="5.5233688"
           ry="5.0101633" />
        <ellipse
           stroke-width="0.289966"
           stroke="#000000"
           cy="143.52573"
           cx="88.757492"
           stroke-miterlimit="3.864"
           fill="none"
           id="circle14190"
           style="fill:#d52e2e;fill-opacity:1"
           rx="5.5233688"
           ry="5.0101633" />
        <polyline
           clip-path="url(#XMLID_43_)"
           points="57.471 306.62 55.154 307.51 35.573 256.5 37.893 255.61"
           fill="#b5b7b9"
           id="polyline14212"
           style="fill:#d52e2e;fill-opacity:1"
           transform="matrix(0.18689706,0,0,0.16953147,78.734388,96.328166)" />
        <polyline
           clip-path="url(#XMLID_43_)"
           points="59.791 305.73 57.471 306.62 37.893 255.61 40.21 254.72"
           fill="#babcbe"
           id="polyline14214"
           style="fill:#d52e2e;fill-opacity:1"
           transform="matrix(0.18689706,0,0,0.16953147,78.734388,96.328166)" />
        <polyline
           clip-path="url(#XMLID_43_)"
           points="62.108 304.84 59.791 305.73 40.21 254.72 42.53 253.83"
           fill="#bfc1c3"
           id="polyline14216"
           style="fill:#d52e2e;fill-opacity:1"
           transform="matrix(0.18689706,0,0,0.16953147,78.734388,96.328166)" />
        <polyline
           clip-path="url(#XMLID_43_)"
           points="64.426 303.95 62.108 304.84 42.53 253.83 44.848 252.95"
           fill="#c4c5c8"
           id="polyline14218"
           style="fill:#d52e2e;fill-opacity:1"
           transform="matrix(0.18689706,0,0,0.16953147,78.734388,96.328166)" />
        <polyline
           clip-path="url(#XMLID_43_)"
           points="66.746 303.06 64.426 303.95 44.848 252.95 47.167 252.05"
           fill="#c9cacc"
           id="polyline14220"
           style="fill:#d52e2e;fill-opacity:1"
           transform="matrix(0.18689706,0,0,0.16953147,78.734388,96.328166)" />
        <polyline
           clip-path="url(#XMLID_43_)"
           points="69.063 302.17 66.746 303.06 47.167 252.05 49.484 251.16"
           fill="#cecfd1"
           id="polyline14222"
           style="fill:#d52e2e;fill-opacity:1"
           transform="matrix(0.18689706,0,0,0.16953147,78.734388,96.328166)" />
        <polyline
           clip-path="url(#XMLID_43_)"
           points="71.383 301.28 69.063 302.17 49.484 251.16 51.804 250.27"
           fill="#d4d5d6"
           id="polyline14224"
           style="fill:#d52e2e;fill-opacity:1"
           transform="matrix(0.18689706,0,0,0.16953147,78.734388,96.328166)" />
        <ellipse
           stroke-width="0.289966"
           stroke="#000000"
           cy="143.5359"
           cx="88.946815"
           stroke-miterlimit="3.864"
           fill="none"
           id="circle14242"
           style="fill:#d52e2e;fill-opacity:1"
           rx="5.1041584"
           ry="4.6299043" />
        <path
           clip-path="url(#XMLID_44_)"
           d="m 93.552895,143.52573 c 0,2.40141 -2.148942,4.34984 -4.795591,4.34984 -2.646837,0 -4.795218,-1.94843 -4.795218,-4.34984 0,-2.40091 2.148381,-4.3495 4.795218,-4.3495 2.646649,0 4.795591,1.94961 4.795591,4.35018 m 0.509108,-0.017 c 0,-2.65333 -2.37434,-4.80723 -5.29984,-4.80723 -2.925687,0 -5.300214,2.1539 -5.300214,4.80723 0,2.65385 2.374527,4.80775 5.300214,4.80775 2.9255,0 5.29984,-2.15305 5.29984,-4.80792"
           fill="#e7e7e8"
           id="path14250"
           style="fill:#d52e2e;fill-opacity:1;stroke-width:0.178003" />
        <path
           clip-path="url(#XMLID_44_)"
           d="m 93.047899,143.52573 c 0,2.14864 -1.922423,3.8921 -4.290595,3.8921 -2.368547,0 -4.290596,-1.74346 -4.290596,-3.8921 0,-2.14797 1.921862,-3.89177 4.290596,-3.89177 2.368172,0 4.290595,1.74448 4.290595,3.89245 m 0.509482,-0.017 c 0,-2.4009 -2.148382,-4.34933 -4.795218,-4.34933 -2.64721,0 -4.795592,1.94843 -4.795592,4.34933 0,2.40142 2.148382,4.34984 4.795592,4.34984 2.646836,0 4.795218,-1.94792 4.795218,-4.35018"
           fill="#d9dbdc"
           id="path14252"
           style="fill:#d52e2e;fill-opacity:1;stroke-width:0.178003" />
        <path
           clip-path="url(#XMLID_44_)"
           d="m 92.54309,143.52573 c 0,1.8957 -1.696277,3.43437 -3.785786,3.43437 -2.09007,0 -3.786348,-1.53867 -3.786348,-3.43437 0,-1.8957 1.696278,-3.43369 3.786348,-3.43369 2.089509,-0.002 3.785786,1.53765 3.785786,3.43301 m 0.509482,0.008 c 0,-2.14848 -1.922236,-3.89211 -4.290596,-3.89211 -2.368546,0 -4.290783,1.74363 -4.290783,3.89211 0,2.14847 1.922237,3.89159 4.290783,3.89159 2.368546,0.002 4.290596,-1.74278 4.290596,-3.89075"
           fill="#cdced0"
           id="path14254"
           style="fill:#d52e2e;fill-opacity:1;stroke-width:0.178003" />
        <path
           clip-path="url(#XMLID_44_)"
           d="m 92.038281,143.52573 c 0,1.64276 -1.469945,2.97663 -3.280977,2.97663 -1.811407,0 -3.281352,-1.3337 -3.281352,-2.97663 0,-1.64259 1.469945,-2.97596 3.281352,-2.97596 1.811032,-0.002 3.280977,1.33252 3.280977,2.97528 m 0.509295,0.008 c 0,-1.89604 -1.696278,-3.43437 -3.785413,-3.43437 -2.09007,0 -3.785974,1.53833 -3.785974,3.43437 0,1.89519 1.695904,3.43386 3.785974,3.43386 2.089322,0.002 3.785413,-1.53765 3.785413,-3.43302"
           fill="#c0c2c4"
           id="path14256"
           style="fill:#d52e2e;fill-opacity:1;stroke-width:0.178003" />
        <path
           clip-path="url(#XMLID_44_)"
           d="m 91.533472,143.52573 c 0,1.39032 -1.243799,2.51822 -2.776168,2.51822 -1.53293,0 -2.776543,-1.1279 -2.776543,-2.51822 0,-1.38982 1.243613,-2.51822 2.776543,-2.51822 1.532369,-0.002 2.776168,1.12738 2.776168,2.51754 m 0.509482,0.008 c 0,-1.64276 -1.470132,-2.97613 -3.280791,-2.97613 -1.811033,0 -3.281165,1.3332 -3.281165,2.97613 0,1.64259 1.470132,2.97612 3.281165,2.97612 1.810659,-0.002 3.280791,-1.33591 3.280791,-2.97867"
           fill="#b3b5b7"
           id="path14258"
           style="fill:#d52e2e;fill-opacity:1;stroke-width:0.178003" />
        <path
           clip-path="url(#XMLID_44_)"
           d="m 91.028664,143.52573 c 0,1.13755 -1.017842,2.06048 -2.27136,2.06048 -1.253706,0 -2.271921,-0.92293 -2.271921,-2.06048 0,-1.13722 1.018028,-2.05981 2.271921,-2.05981 1.253518,0 2.27136,0.92225 2.27136,2.05981 m 0.48182,0.008 c 0,-1.39015 -1.2438,-2.51822 -2.776169,-2.51822 -1.532369,0 -2.776169,1.12807 -2.776169,2.51822 0,1.38982 1.2438,2.51822 2.776169,2.51822 1.532369,0.002 2.776169,-1.12738 2.776169,-2.51754"
           fill="#a7a9ac"
           id="path14260"
           style="fill:#d52e2e;fill-opacity:1;stroke-width:0.178003" />
        <path
           clip-path="url(#XMLID_44_)"
           d="m 90.523855,143.52573 c 0,0.88495 -0.79151,1.60258 -1.766551,1.60258 -0.975229,0 -1.766925,-0.71763 -1.766925,-1.60258 0,-0.88445 0.791696,-1.60208 1.766925,-1.60208 0.974855,0 1.766551,0.71712 1.766551,1.60208 m 0.509481,0.008 c 0,-1.13738 -1.017281,-2.06048 -2.271173,-2.06048 -1.253893,0 -2.27136,0.92293 -2.27136,2.06048 0,1.13739 1.017467,2.06032 2.27136,2.06032 1.253705,0 2.271173,-0.92225 2.271173,-2.05981"
           fill="#9b9da0"
           id="path14262"
           style="fill:#d52e2e;fill-opacity:1;stroke-width:0.178003" />
        <path
           clip-path="url(#XMLID_44_)"
           d="m 90.019046,143.52573 c 0,0.63167 -0.565364,1.14484 -1.261742,1.14484 -0.696753,0 -1.262116,-0.51317 -1.262116,-1.14484 0,-0.63202 0.56555,-1.14434 1.262116,-1.14434 0.696378,0 1.261742,0.51198 1.261742,1.14434 m 0.509481,0.008 c 0,-0.88495 -0.791135,-1.60258 -1.766551,-1.60258 -0.975603,0 -1.766738,0.71763 -1.766738,1.60258 0,0.88445 0.791135,1.60208 1.766738,1.60208 0.975416,0 1.766551,-0.71712 1.766551,-1.60208"
           fill="#8f9194"
           id="path14264"
           style="fill:#d52e2e;fill-opacity:1;stroke-width:0.178003" />
        <path
           clip-path="url(#XMLID_44_)"
           d="m 89.514424,143.52573 c 0,0.37924 -0.339219,0.68694 -0.75712,0.68694 -0.418089,0 -0.757307,-0.3077 -0.757307,-0.68694 0,-0.37857 0.339031,-0.68677 0.757307,-0.68677 0.417714,0 0.75712,0.30685 0.75712,0.6866 m 0.509294,0.008 c 0,-0.63218 -0.565364,-1.14484 -1.261555,-1.14484 -0.696939,0 -1.261929,0.51266 -1.261929,1.14484 0,0.63151 0.564803,1.14434 1.261929,1.14434 0.696191,0 1.261555,-0.51198 1.261555,-1.14434"
           fill="#848688"
           id="path14266"
           style="fill:#d52e2e;fill-opacity:1;stroke-width:0.178003" />
        <path
           clip-path="url(#XMLID_44_)"
           d="m 89.009428,143.52573 c 0,0.12681 -0.112886,0.2287 -0.252124,0.2287 -0.139613,0 -0.252685,-0.10206 -0.252685,-0.2287 0,-0.12613 0.113072,-0.22904 0.252685,-0.22904 0.139425,0 0.252124,0.10172 0.252124,0.22887 m 0.509481,-0.017 c 0,-0.37873 -0.339031,-0.68643 -0.756746,-0.68643 -0.418089,0 -0.75712,0.3077 -0.75712,0.68643 0,0.37925 0.339031,0.68695 0.75712,0.68695 0.417528,0 0.756746,-0.30686 0.756746,-0.68661"
           fill="#797a7d"
           id="path14268"
           style="fill:#d52e2e;fill-opacity:1;stroke-width:0.178003" />
        <path
           clip-path="url(#XMLID_44_)"
           d="m 89.0141,143.50877 c 0,-0.12613 -0.112886,-0.22903 -0.252124,-0.22903 -0.139612,0 -0.252498,0.1029 -0.252498,0.22903 0,0.12664 0.112886,0.22921 0.252498,0.22921 0.139238,0 0.252124,-0.10172 0.252124,-0.22887"
           fill="#6d6f71"
           id="path14270"
           style="fill:#d52e2e;fill-opacity:1;stroke-width:0.178003" />
        <ellipse
           stroke-width="0.289966"
           stroke="#000000"
           cy="143.52573"
           cx="88.757301"
           stroke-miterlimit="3.864"
           fill="none"
           id="circle14272"
           style="fill:#d52e2e;fill-opacity:1"
           rx="4.418807"
           ry="4.0082326" />
        <polyline
           points="51.529 305.49 53.805 306.18 45.214 334.28 42.937 333.59"
           clip-path="url(#XMLID_45_)"
           id="polyline14280"
           style="fill:#d52e2e;fill-opacity:1"
           transform="matrix(0.18689706,0,0,0.16953147,78.734388,96.328166)" />
        <polyline
           clip-path="url(#XMLID_45_)"
           points="49.253 304.79 51.529 305.49 42.937 333.59 40.661 332.89"
           fill="#4f5051"
           id="polyline14282"
           style="fill:#d52e2e;fill-opacity:1"
           transform="matrix(0.18689706,0,0,0.16953147,78.734388,96.328166)" />
        <polyline
           clip-path="url(#XMLID_45_)"
           points="46.979 304.09 49.253 304.79 40.661 332.89 38.386 332.2"
           fill="#717375"
           id="polyline14284"
           style="fill:#d52e2e;fill-opacity:1"
           transform="matrix(0.18689706,0,0,0.16953147,78.734388,96.328166)" />
        <polyline
           clip-path="url(#XMLID_45_)"
           points="44.701 303.4 46.979 304.09 38.386 332.2 36.109 331.5"
           fill="#8f9194"
           id="polyline14286"
           style="fill:#d52e2e;fill-opacity:1"
           transform="matrix(0.18689706,0,0,0.16953147,78.734388,96.328166)" />
        <polyline
           clip-path="url(#XMLID_45_)"
           points="42.426 302.7 44.701 303.4 36.109 331.5 33.835 330.8"
           fill="#afb1b4"
           id="polyline14288"
           style="fill:#d52e2e;fill-opacity:1"
           transform="matrix(0.18689706,0,0,0.16953147,78.734388,96.328166)" />
        <polyline
           clip-path="url(#XMLID_45_)"
           points="40.151 302.01 42.426 302.7 33.835 330.8 31.56 330.11"
           fill="#d1d3d4"
           id="polyline14290"
           style="fill:#d52e2e;fill-opacity:1"
           transform="matrix(0.18689706,0,0,0.16953147,78.734388,96.328166)" />
        <rect
           transform="matrix(0.36398665,-0.93140417,0.95199602,0.30611039,0,0)"
           height="2.409867"
           width="4.9470191"
           stroke="#000000"
           stroke-miterlimit="3.864"
           y="134.50635"
           x="-119.20229"
           stroke-width="0.29023"
           fill="none"
           id="rect14292"
           style="fill:#d52e2e;fill-opacity:1" />
        <path
           d="m 105.87371,100.08532 c 0,0 1.89514,0.10867 2.25473,2.42549 0.3594,2.31682 -0.1798,2.26223 -0.1798,2.26223 0,0 -2.13548,1.06211 -5.52748,1.50154 -0.83861,0.10884 -1.65516,-1.46764 -1.89457,-2.09931 -0.23979,-0.63168 -0.577143,-1.55579 0.2994,-2.04489 0.87655,-0.48927 2.91373,-1.50154 5.04809,-2.04506"
           fill="#ffffff"
           id="path14294"
           style="fill:#d52e2e;fill-opacity:1;stroke-width:0.178003" />
        <path
           d="m 105.27564,100.36149 c 0,0 1.88486,0.10884 2.24445,2.42566 0.35959,2.31613 -0.17942,2.26188 -0.17942,2.26188"
           clip-path="url(#XMLID_46_)"
           stroke="#000000"
           stroke-miterlimit="3.864"
           stroke-width="0.289966"
           fill="none"
           id="path14302"
           style="fill:#d52e2e;fill-opacity:1" />
        <path
           stroke="#000000"
           stroke-width="0.289966"
           stroke-miterlimit="3.864"
           d="m 105.87371,100.08532 c 0,0 1.89514,0.10867 2.25473,2.42549 0.3594,2.31682 -0.1798,2.26223 -0.1798,2.26223 0,0 -2.13548,1.06211 -5.52748,1.50154 -0.83861,0.10884 -1.65516,-1.46764 -1.89457,-2.09931 -0.23979,-0.63168 -0.577143,-1.55579 0.2994,-2.04489 0.87655,-0.48927 2.91373,-1.50154 5.04809,-2.04506 z"
           fill="none"
           id="path14304"
           style="fill:#d52e2e;fill-opacity:1" />
        <path
           d="m 138.71339,119.37936 c 0.004,0.009 1.57629,3.46421 1.51462,7.42243 -0.0613,3.97619 -1.78001,8.49895 -8.3971,10.50145 -5.51403,1.66802 -11.4082,-0.0475 -15.87934,-2.13694 -4.4816,-2.09422 -7.6054,-4.59803 -7.61344,-4.60481 l 0.41454,-0.41129 c 0,0 0.76703,0.61455 2.08428,1.48662 5.57944,3.69426 13.74067,7.27697 20.79417,5.14274 7.99695,-2.41972 9.00283,-8.90566 7.26319,-15.03388 -0.37454,-1.31912 -0.75619,-2.15814 -0.75619,-2.15814 l 0.57752,-0.20682"
           id="path14306"
           style="fill:#d52e2e;fill-opacity:1;stroke-width:0.178003" />
        <path
           d="m 100.16774,103.32626 c 0.39697,0 -4.928099,1.50137 -6.703621,5.80882 -1.464712,3.5544 4.779706,15.47263 21.698751,31.58032 l 1.44453,-2.06167 C 99.687604,122.54655 93.70316,112.51876 95.598297,109.13491 c 1.894762,-3.38351 5.924263,-3.92736 5.527483,-3.92736 0,0 0.37435,-0.61812 0.15718,-1.1952 -0.2168,-0.57709 -1.11391,-0.68576 -1.11391,-0.68576"
           fill="#d1d3d4"
           id="path14308"
           style="fill:#d52e2e;fill-opacity:1;stroke-width:0.178003" />
        <path
           clip-path="url(#XMLID_47_)"
           d="m 97.130853,118.48593 c 0,0 6.979297,11.62019 17.883427,21.02699 l 0.52743,-0.67626 c 0,0 -9.842,-7.9629 -18.411044,-20.35056"
           fill="#ffffff"
           id="path14316"
           style="fill:#d52e2e;fill-opacity:1;stroke-width:0.178003" />
        <path
           stroke="#000000"
           stroke-width="0.289966"
           stroke-miterlimit="3.864"
           d="m 100.16774,103.32626 c 0.39697,0 -4.928099,1.50137 -6.703621,5.80882 -1.464712,3.5544 4.779706,15.47263 21.698751,31.58032 l 1.44453,-2.06167 C 99.687604,122.54655 93.70316,112.51876 95.598297,109.13491 c 1.894762,-3.38351 5.924263,-3.92736 5.527483,-3.92736 0,0 0.37435,-0.61812 0.15718,-1.1952 -0.2168,-0.57709 -1.11391,-0.68576 -1.11391,-0.68576 z"
           fill="none"
           id="path14318"
           style="fill:#d52e2e;fill-opacity:1" />
        <path
           d="m 87.721333,153.17546 c -0.06392,0.17563 -2.960262,8.2255 -2.960262,11.0092 0,4.08995 2.036243,9.93234 6.686616,12.45039 8.04162,4.35493 12.573503,-10.67929 30.583833,3.07615 2.61899,1.9998 6.10163,5.06119 9.2015,6.32997 5.39236,2.20628 12.17803,0.0844 14.19521,-3.21008 4.12052,-6.7287 2.30257,-12.45463 1.25763,-14.87181 -0.91505,-2.11779 -7.31104,-12.94712 -9.45587,-16.5617 -4.10482,1.01736 -9.31925,-0.19394 -15.02783,-3.96246 -3.00755,-1.98623 -5.94669,-4.38035 -8.38028,-6.94723 0,0 0.51322,-1.41202 1.29707,-1.9374 0.63806,-0.4279 1.9299,-0.58539 1.9299,-0.58539 0.7117,0.74915 12.99028,13.07748 20.17927,9.28473 7.43495,-3.92212 4.04072,-18.51793 3.86391,-19.20623 0,0 1.17297,-0.85223 2.07493,-1.01159 0.79656,-0.14054 2.07475,0.13732 2.07475,0.13732 0,0 1.11615,4.34594 1.03186,9.32406 -0.10504,6.19502 -2.05419,10.6693 -5.27031,13.11157 0.86383,1.45593 2.39116,4.03705 3.98034,6.76328 5.54038,9.50055 11.0088,17.16676 4.16818,28.33889 -3.27313,5.34532 -12.61593,7.74318 -19.67092,4.85605 -7.71884,-3.15921 -14.93587,-14.16333 -24.02374,-11.51966 -5.38301,1.56613 -10.268128,5.11799 -16.192765,1.90926 -6.489066,-3.51438 -8.760799,-11.02632 -8.760799,-15.76642 0,-3.03885 2.055307,-9.14199 3.174446,-12.21983 0,0 1.48172,-0.16478 2.339578,0.12105 0.763661,0.25429 1.705809,1.09008 1.705809,1.09008 z"
           id="path14320"
           style="fill:#d52e2e;fill-opacity:1;stroke-width:0.178003" />
        <path
           stroke="#000000"
           stroke-width="0.289966"
           stroke-miterlimit="3.864"
           d="m 87.721333,153.17546 c -0.06392,0.17563 -2.960262,8.2255 -2.960262,11.0092 0,4.08995 2.036243,9.93234 6.686616,12.45039 8.04162,4.35493 12.573503,-10.67929 30.583833,3.07615 2.61899,1.9998 6.10163,5.06119 9.2015,6.32997 5.39236,2.20628 12.17803,0.0844 14.19521,-3.21008 4.12052,-6.7287 2.30257,-12.45463 1.25763,-14.87181 -0.91505,-2.11779 -7.31104,-12.94712 -9.45587,-16.5617 -4.10482,1.01736 -9.31925,-0.19394 -15.02783,-3.96246 -3.00755,-1.98623 -5.94669,-4.38035 -8.38028,-6.94723 0,0 0.51322,-1.41202 1.29707,-1.9374 0.63806,-0.4279 1.9299,-0.58539 1.9299,-0.58539 0.7117,0.74915 12.99028,13.07748 20.17927,9.28473 7.43495,-3.92212 4.04072,-18.51793 3.86391,-19.20623 0,0 1.17297,-0.85223 2.07493,-1.01159 0.79656,-0.14054 2.07475,0.13732 2.07475,0.13732 0,0 1.11615,4.34594 1.03186,9.32406 -0.10504,6.19502 -2.05419,10.6693 -5.27031,13.11157 0.86383,1.45593 2.39116,4.03705 3.98034,6.76328 5.54038,9.50055 11.0088,17.16676 4.16818,28.33889 -3.27313,5.34532 -12.61593,7.74318 -19.67092,4.85605 -7.71884,-3.15921 -14.93587,-14.16333 -24.02374,-11.51966 -5.38301,1.56613 -10.268128,5.11799 -16.192765,1.90926 -6.489066,-3.51438 -8.760799,-11.02632 -8.760799,-15.76642 0,-3.03885 2.055307,-9.14199 3.174446,-12.21983 0,0 1.48172,-0.16478 2.339578,0.12105 0.763661,0.25429 1.705809,1.09008 1.705809,1.09008 z"
           fill="none"
           id="path14322"
           style="fill:#d52e2e;fill-opacity:1" />
        <path
           d="m 87.49986,177.14382 c 0,0 1.359302,2.0949 4.973892,2.78269 2.01176,0.3828 4.551504,0.19157 4.551504,0.19157 0,0 -3.169774,-0.35059 -5.079489,-0.95769 -1.829535,-0.57979 -4.445907,-2.01572 -4.445907,-2.01572"
           fill="#ffffff"
           id="path14324"
           style="fill:#d52e2e;fill-opacity:1;stroke-width:0.178003" />
        <path
           d="m 146.236,185.20504 c 3.48955,-2.78269 3.81307,-7.67723 3.81307,-7.67723 0,0 1.47126,4.12877 -2.75729,8.16141 -4.22836,4.03299 -8.88583,2.59095 -8.88583,2.59095 0,0 4.05566,-0.0661 7.82911,-3.07361"
           fill="#ffffff"
           id="path14326"
           style="fill:#d52e2e;fill-opacity:1;stroke-width:0.178003" />
        <path
           d="m 126.97252,148.82359 c 0,0 3.60151,2.39971 9.10301,1.82551 5.5015,-0.5742 -0.31605,-0.56878 -2.85542,-0.6705 -2.53993,-0.10138 -3.70803,-0.7717 -4.23527,-0.9631 -0.52705,-0.19158 -2.01288,-0.19158 -2.01288,-0.19158"
           fill="#ffffff"
           id="path14328"
           style="fill:#d52e2e;fill-opacity:1;stroke-width:0.178003" />
        <path
           d="m 106.26993,130.29041 3.57273,4.00162 c 0,0 0.3594,-1.69362 2.26182,-0.54318 l -3.58842,-3.70223 c 0,0 -1.38491,-1.13586 -2.2465,0.24412 z"
           fill="#bcbec0"
           id="path14330"
           style="fill:#d52e2e;fill-opacity:1;stroke-width:0.178003" />
        <path
           stroke="#000000"
           stroke-width="0.289966"
           stroke-miterlimit="3.864"
           d="m 106.26993,130.29041 3.57273,4.00162 c 0,0 0.3594,-1.69362 2.26182,-0.54318 l -3.58842,-3.70223 c 0,0 -1.38491,-1.13586 -2.2465,0.24412 z"
           fill="none"
           id="path14332"
           style="fill:#d52e2e;fill-opacity:1" />
        <path
           d="m 144.58757,127.85763 -2.44219,0.87699 c -7.90014,-24.34133 -16.35349,-29.729043 -17.6057,-30.213903 -1.25165,-0.486556 -8.78098,1.058893 -8.78098,1.058893 l -1.16232,-2.024375 c 0,0 6.11434,-1.235207 7.83361,-1.073134 1.71926,0.162072 3.14902,0 4.6898,1.559689 1.54078,1.55952 8.21731,6.39286 14.42584,21.59322 1.56807,3.83481 2.59974,6.6575 3.04268,8.22228 z"
           fill="#d1d3d4"
           id="path14334"
           style="fill:#d52e2e;fill-opacity:1;stroke-width:0.178003" />
        <path
           stroke="#000000"
           stroke-width="0.289966"
           stroke-miterlimit="3.864"
           d="m 144.58757,127.85763 -2.44219,0.87699 c -7.90014,-24.34133 -16.35349,-29.729043 -17.6057,-30.213903 -1.25165,-0.486556 -8.78098,1.058893 -8.78098,1.058893 l -1.16232,-2.024375 c 0,0 6.11434,-1.235207 7.83361,-1.073134 1.71926,0.162072 3.14902,0 4.6898,1.559689 1.54078,1.55952 8.21731,6.39286 14.42584,21.59322 1.56807,3.83481 2.59974,6.6575 3.04268,8.22228 z"
           fill="none"
           id="path14336"
           style="fill:#d52e2e;fill-opacity:1" />
        <path
           d="m 140.63283,125.44011 c 0.4721,-3.13091 2.22388,-3.30247 2.22388,-3.30247 l -1.8043,-4.5109 c 0,0 -2.64403,-1.49408 -2.80121,2.0649 l 2.38106,5.74881 z"
           fill="#bcbec0"
           id="path14338"
           style="fill:#d52e2e;fill-opacity:1;stroke-width:0.178003" />
        <path
           stroke="#000000"
           stroke-width="0.289966"
           stroke-miterlimit="3.864"
           d="m 140.63283,125.44011 c 0.4721,-3.13091 2.22388,-3.30247 2.22388,-3.30247 l -1.8043,-4.5109 c 0,0 -2.64403,-1.49408 -2.80121,2.0649 l 2.38106,5.74881 z"
           fill="none"
           id="path14340"
           style="fill:#d52e2e;fill-opacity:1" />
        <path
           d="m 126.13522,99.120688 c 0,0 3.24902,1.744142 5.49533,5.088822 2.24595,3.3452 4.7427,8.10208 4.7427,8.10208 0,0 -4.87464,-7.73318 -6.48775,-9.68465 -0.9401,-1.13688 -3.75103,-3.506252 -3.75103,-3.506252"
           fill="#ffffff"
           id="path14342"
           style="fill:#d52e2e;fill-opacity:1;stroke-width:0.178003" />
        <path
           d="m 116.78663,100.68326 c -0.53939,0.65236 -3.84933,2.53433 -5.10808,2.80575 -1.25801,0.27192 -1.83477,-0.43485 -2.19474,-1.03245 -0.3594,-0.59811 -0.93766,-2.843044 0.41996,-3.60068 2.43396,-1.358964 5.16771,-1.793812 5.16771,-1.793812 0,0 2.37172,0.564031 1.71384,3.621192"
           fill="#ffffff"
           id="path14344"
           style="fill:#d52e2e;fill-opacity:1;stroke-width:0.178003" />
        <ellipse
           clip-path="url(#XMLID_48_)"
           rx="1.8762594"
           stroke="#000000"
           ry="2.4697344"
           cy="101.10828"
           cx="110.70126"
           stroke-miterlimit="3.864"
           stroke-width="0.289966"
           fill="none"
           id="ellipse14352"
           style="fill:#d52e2e;fill-opacity:1" />
        <path
           stroke="#000000"
           stroke-width="0.289966"
           stroke-miterlimit="3.864"
           d="m 116.78663,100.68326 c -0.53939,0.65236 -3.84933,2.53433 -5.10808,2.80575 -1.25801,0.27192 -1.83477,-0.43485 -2.19474,-1.03245 -0.3594,-0.59811 -0.93766,-2.843044 0.41996,-3.60068 2.43396,-1.358964 5.16771,-1.793812 5.16771,-1.793812 0,0 2.37172,0.564031 1.71384,3.621192 z"
           fill="none"
           id="path14354"
           style="fill:#d52e2e;fill-opacity:1" />
        <path
           d="m 110.32186,101.10828 c 0,-0.50504 0.2368,-0.91429 0.52854,-0.91429 0.29138,0 0.52799,0.40925 0.52799,0.91429 0,0.50435 -0.23661,0.9136 -0.52799,0.9136 -0.29155,-1.7e-4 -0.52891,-0.40942 -0.52891,-0.9136 z"
           id="path14356"
           style="fill:#d52e2e;fill-opacity:1;stroke-width:0.178003" />
        <path
           stroke="#000000"
           stroke-width="0.289966"
           stroke-miterlimit="3.864"
           d="m 110.32186,101.10828 c 0,-0.50504 0.2368,-0.91429 0.52854,-0.91429 0.29138,0 0.52799,0.40925 0.52799,0.91429 0,0.50435 -0.23661,0.9136 -0.52799,0.9136 -0.29155,-1.7e-4 -0.52891,-0.40942 -0.52891,-0.9136 z"
           fill="none"
           id="path14358"
           style="fill:#d52e2e;fill-opacity:1" />
      </g>
    </g>
  </g>
</svg>
