<?xml version="1.0" encoding="UTF-8" standalone="no"?>
<!-- Created with Inkscape (http://www.inkscape.org/) -->

<svg
   width="92.904991mm"
   height="103.90499mm"
   viewBox="0 0 92.904991 103.90499"
   version="1.1"
   id="svg5"
   inkscape:version="1.1.1 (3bf5ae0d25, 2021-09-20)"
   sodipodi:docname="Gallerie_v2.svg"
   xmlns:inkscape="http://www.inkscape.org/namespaces/inkscape"
   xmlns:sodipodi="http://sodipodi.sourceforge.net/DTD/sodipodi-0.dtd"
   xmlns="http://www.w3.org/2000/svg"
   xmlns:svg="http://www.w3.org/2000/svg">
  <sodipodi:namedview
     id="namedview7"
     pagecolor="#ffffff"
     bordercolor="#999999"
     borderopacity="1"
     inkscape:pageshadow="0"
     inkscape:pageopacity="0"
     inkscape:pagecheckerboard="0"
     inkscape:document-units="mm"
     showgrid="false"
     inkscape:zoom="0.36168631"
     inkscape:cx="-487.99193"
     inkscape:cy="-211.50925"
     inkscape:window-width="1920"
     inkscape:window-height="1001"
     inkscape:window-x="-9"
     inkscape:window-y="-9"
     inkscape:window-maximized="1"
     inkscape:current-layer="layer1" />
  <defs
     id="defs2" />
  <g
     inkscape:label="Calque 1"
     inkscape:groupmode="layer"
     id="layer1"
     transform="translate(-55.977436,-101.83231)">
    <g
       id="g2384">
      <ellipse
         style="fill:#e6e6e6;fill-opacity:1;stroke:#000000;stroke-width:1;stroke-miterlimit:4;stroke-dasharray:none;stroke-opacity:1;paint-order:stroke fill markers"
         id="path882"
         cx="102.42993"
         cy="153.78481"
         rx="45.952496"
         ry="51.452496" />
      <path
         id="path3052-7-4"
         d="m 127.71951,129.51631 c -1.33085,0 -2.50247,0.67314 -3.24327,1.69045 -0.47506,-0.16642 -1.04361,-0.27147 -1.64507,-0.2817 -0.97821,-0.0163 -1.97066,1.33704 -3.24326,1.31449 -1.06066,-0.0163 -2.35598,-1.29404 -3.55457,-1.31449 -1.09629,-0.0163 -2.0802,0.91178 -3.24327,0.89224 -1.1204,-0.0163 -2.28063,-0.68489 -3.42237,-0.70441 -1.14035,-0.0164 -2.30058,0.91177 -3.42098,0.89223 -1.16307,-0.0163 -2.27922,-1.0144 -3.37688,-1.03303 -0.0354,-8.1e-4 -0.0982,7.2e-4 -0.1322,0 v 0.0455 c -1.07918,0.0511 -2.14557,1.01457 -3.288733,1.03264 -1.12042,0.0233 -2.280637,-0.91076 -3.420973,-0.89178 -1.140324,0.0233 -2.301977,0.68592 -3.422385,0.70391 -1.163077,0.0233 -2.191071,-0.91024 -3.287325,-0.89178 -1.197189,0.0284 -2.449844,1.2975 -3.510538,1.31556 -1.271134,0.0284 -2.309086,-1.33175 -3.287313,-1.31556 -0.601437,0 -1.175722,0.11577 -1.644368,0.28168 -0.772061,-1.01752 -1.957453,-1.69028 -3.28802,-1.69039 -2.28278,-3.6e-4 -4.079424,1.94311 -4.043452,4.31992 0.0301,1.98196 1.351749,3.67991 3.110433,4.17876 v 0.42196 c -0.238601,0.9977 -1.108187,2.11563 -1.11089,3.19448 -0.003,1.14049 0.891784,2.21485 0.888657,3.42746 -0.003,1.16598 -0.663436,2.33349 -0.666419,3.52055 -0.0032,1.18857 0.936001,2.40265 0.933014,3.57016 -0.0032,1.21115 -0.93017,2.38013 -0.933014,3.52059 -2.85e-4,0.0341 -0.0014,0.10387 0,0.14145 h 0.0446 c 0.06255,1.12246 0.987897,2.28395 1.022022,3.47554 0.03331,1.166 -0.878275,2.33349 -0.84429,3.52054 0.03386,1.1886 0.722012,2.35608 0.755282,3.52213 0.01826,0.64458 -0.217697,1.28172 -0.444208,1.87825 -1.682901,0.5452 -2.881515,2.19226 -2.843692,4.13212 0.04621,2.37711 1.938403,4.28392 4.221038,4.27342 1.330425,-0.0163 2.50672,-0.67018 3.243666,-1.69045 0.474356,0.16361 1.042503,0.27374 1.64394,0.28111 0.978227,0.0163 1.970672,-1.3298 3.243231,-1.31477 1.060694,0.0163 2.357419,1.25316 3.554621,1.2682 1.096253,0.0164 2.080165,-0.95413 3.243242,-0.93915 1.120408,0.0163 2.280648,0.73778 3.422385,0.75129 1.140324,0.0163 2.256483,-0.90603 3.37689,-0.89252 1.163079,0.0163 2.324739,0.97221 3.420979,0.98719 0.0354,0 0.0982,-0.002 0.13365,0 v -0.0456 c 1.07775,-0.0568 2.14413,-1.00822 3.28729,-1.0323 1.12041,-0.0284 2.28209,0.91661 3.42098,0.89105 1.14035,-0.0233 2.25791,-0.77382 3.37832,-0.79786 1.16307,-0.0233 2.23656,0.91656 3.33139,0.89255 1.1972,-0.0284 2.4072,-1.24566 3.46645,-1.26821 1.27114,-0.0284 2.35458,1.28927 3.33139,1.26821 0.60145,0 1.1318,-0.1125 1.60101,-0.28114 0.7763,1.01276 2.00198,1.64838 3.33138,1.64235 2.2835,0 4.08925,-1.94287 4.04376,-4.31998 -0.0161,-0.93306 -0.34552,-1.78506 -0.8446,-2.48831 0.0215,-0.20096 0.0431,-0.44183 0.0431,-0.65809 0.001,-1.01877 -1.28959,-2.10218 -1.28818,-3.42745 0.001,-1.10289 1.1986,-2.36808 1.20005,-3.61528 0.001,-1.14193 -0.93415,-2.21632 -0.93275,-3.42739 0.001,-1.16602 0.66544,-2.38159 0.66544,-3.56869 10e-4,-1.18853 -0.93415,-2.35603 -0.93274,-3.52207 0.001,-1.21106 0.93274,-2.42669 0.93274,-3.56864 10e-4,-0.0341 0.003,-0.0574 0,-0.0931 h -0.0431 c -0.064,-1.12372 -0.98536,-2.28526 -1.02234,-3.47532 -0.0323,-1.16598 0.83608,-2.33349 0.80051,-3.52209 -0.0323,-1.00525 -0.49333,-2.01345 -0.66686,-3.00519 1.31523,-0.71523 2.20246,-2.18629 2.17827,-3.84966 -0.0376,-2.3771 -1.93939,-4.32028 -4.22142,-4.32028 z m -47.631941,8.07677 h 44.610501 l 0.44335,30.52078 H 80.530915 l -0.44389,-30.52078 z m 1.28848,1.36134 0.445014,27.46899 h 42.076747 l -0.44334,-27.46899 z m 31.146991,1.92483 c 1.96357,0 3.55462,1.68293 3.55462,3.75648 0,2.0751 -1.59105,3.75652 -3.55462,3.75652 -1.96212,0 -3.55463,-1.68142 -3.55463,-3.75652 0,-2.07355 1.59251,-3.75648 3.55463,-3.75648 z m -2.265,12.67894 c 4.83433,0.0574 11.41888,3.94431 11.41888,3.94431 l 0.22193,6.90142 -38.078503,-0.28111 0.08812,-9.62565 c 0,0 3.947053,-0.90303 6.665605,0.65663 2.717174,1.56124 4.81582,3.39588 7.375134,3.00522 2.560764,-0.38904 6.463734,-4.03598 11.330704,-4.55437 0.30416,-0.0341 0.65551,-0.0511 0.97827,-0.0456 z"
         fill-rule="evenodd"
         style="fill:#d52e2e;fill-opacity:1;stroke:#000000;stroke-width:0.5;stroke-miterlimit:4;stroke-dasharray:none;stroke-opacity:1" />
    </g>
  </g>
</svg>
