<?xml version="1.0" encoding="UTF-8" standalone="no"?>
<!-- Created with Inkscape (http://www.inkscape.org/) -->

<svg
   width="210mm"
   height="297mm"
   viewBox="0 0 210 297"
   version="1.1"
   id="svg12047"
   inkscape:version="1.1.1 (3bf5ae0d25, 2021-09-20)"
   sodipodi:docname="Poste rdr2.svg"
   xmlns:inkscape="http://www.inkscape.org/namespaces/inkscape"
   xmlns:sodipodi="http://sodipodi.sourceforge.net/DTD/sodipodi-0.dtd"
   xmlns="http://www.w3.org/2000/svg"
   xmlns:svg="http://www.w3.org/2000/svg">
  <sodipodi:namedview
     id="namedview12049"
     pagecolor="#ffffff"
     bordercolor="#999999"
     borderopacity="1"
     inkscape:pageshadow="0"
     inkscape:pageopacity="0"
     inkscape:pagecheckerboard="0"
     inkscape:document-units="mm"
     showgrid="false"
     inkscape:zoom="0.72337262"
     inkscape:cx="397.44385"
     inkscape:cy="561.95105"
     inkscape:window-width="1920"
     inkscape:window-height="1001"
     inkscape:window-x="-9"
     inkscape:window-y="-9"
     inkscape:window-maximized="1"
     inkscape:current-layer="layer1" />
  <defs
     id="defs12044" />
  <g
     inkscape:label="Calque 1"
     inkscape:groupmode="layer"
     id="layer1">
    <g
       id="g861"
       transform="matrix(1.0343782,0,0,1.0308679,-1.7898792,-2.8404218)">
      <ellipse
         style="fill:#ececec;fill-opacity:1;stroke:#000000;stroke-width:1;stroke-miterlimit:4;stroke-dasharray:none;paint-order:stroke markers fill"
         id="path12368"
         cx="98.380516"
         cy="143.88051"
         rx="45.837738"
         ry="51.337738" />
      <path
         id="rect3174"
         style="fill:#d52e2e;fill-opacity:1;stroke:#000000;stroke-width:0.148317;stroke-miterlimit:4;stroke-dasharray:none;stroke-opacity:1"
         sodipodi:nodetypes="ccscccccccccccccccccccccccccccc"
         d="m 73.464235,124.895 c -3.671811,0 -6.648411,2.45448 -6.648411,5.49064 0.08242,8.32588 2.14e-4,17.13718 0,25.62295 0,2.92212 2.752335,5.28713 6.232886,5.46207 l 49.44755,0.0276 c 3.5447,-0.11794 6.37142,-2.53025 6.37142,-5.49064 v -26.5664 c -0.53744,-2.58884 -3.25883,-4.54718 -6.54425,-4.54718 -16.27752,0.007 -32.574993,10e-5 -48.859195,0 z m -0.103862,2.88824 h 49.170557 l -23.789113,19.64641 c -0.43409,0.35849 -1.12413,0.35849 -1.55819,0 L 73.360166,127.78324 Z m 52.183397,1.40197 v 26.62316 c 0,1.58626 -0.69198,2.48221 -2.07766,2.80252 l -16.75952,-13.86935 18.83718,-15.55681 z m -55.022272,0.11345 18.524692,15.29962 -16.932398,13.98373 c -1.159035,-0.32304 -1.562482,-1.09355 -1.592519,-2.1441 v -27.13835 z m 20.880469,17.21495 5.78275,4.80431 c 0.43409,0.35848 1.12414,0.35848 1.55818,0 l 5.609053,-4.63228 14.61208,12.06842 H 76.580428 l 14.820419,-12.23955 z" />
    </g>
  </g>
</svg>
