<?xml version="1.0" encoding="UTF-8" standalone="no"?>
<!-- Created with Inkscape (http://www.inkscape.org/) -->

<svg
   width="210mm"
   height="297mm"
   viewBox="0 0 210 297"
   version="1.1"
   id="svg9734"
   inkscape:version="1.1.1 (3bf5ae0d25, 2021-09-20)"
   sodipodi:docname="Spectacle rdr2.svg"
   xmlns:inkscape="http://www.inkscape.org/namespaces/inkscape"
   xmlns:sodipodi="http://sodipodi.sourceforge.net/DTD/sodipodi-0.dtd"
   xmlns="http://www.w3.org/2000/svg"
   xmlns:svg="http://www.w3.org/2000/svg">
  <sodipodi:namedview
     id="namedview9736"
     pagecolor="#ffffff"
     bordercolor="#999999"
     borderopacity="1"
     inkscape:pageshadow="0"
     inkscape:pageopacity="0"
     inkscape:pagecheckerboard="0"
     inkscape:document-units="mm"
     showgrid="false"
     inkscape:zoom="0.72337262"
     inkscape:cx="397.44385"
     inkscape:cy="561.95105"
     inkscape:window-width="1920"
     inkscape:window-height="1001"
     inkscape:window-x="-9"
     inkscape:window-y="-9"
     inkscape:window-maximized="1"
     inkscape:current-layer="layer1" />
  <defs
     id="defs9731" />
  <g
     inkscape:label="Calque 1"
     inkscape:groupmode="layer"
     id="layer1">
    <g
       id="g13459">
      <ellipse
         style="fill:#ececec;stroke:#000000;stroke-width:1.03207;stroke-miterlimit:4;stroke-dasharray:none;paint-order:stroke markers fill"
         id="path10057"
         cx="90.15593"
         cy="174.79262"
         rx="47.413967"
         ry="52.913967" />
      <g
         id="layer1-5"
         transform="matrix(0.29075322,0,0,0.29490163,37.839188,96.466456)"
         style="fill:#d52e2e;fill-opacity:1;stroke:#000000;stroke-opacity:1">
        <path
           id="path8089"
           stroke="#000000"
           fill="#ffffff"
           d="m 175.8,376.54 c 2.9407,-0.48902 13.897,-2.9527 24.347,-5.4749 10.45,-2.5222 21.25,-5.0866 24,-5.6986 16.038,-3.5696 30.646,-10.129 36.357,-16.324 3.8025,-4.1252 4.1433,-4.9439 4.1433,-9.9522 0,-3.0015 -0.4836,-6.724 -1.0748,-8.2723 -0.5912,-1.5483 -1.3213,-6.4199 -1.6225,-10.826 -0.5213,-7.6258 -0.3648,-8.4425 3.2585,-17 6.2787,-14.829 5.0437,-24.593 -4.7413,-37.489 -2.7125,-3.575 -6.2679,-9.2877 -7.9007,-12.695 l -2.9688,-6.195 1.524,-7.305 c 3.1201,-14.956 1.459,-25.433 -5.5949,-35.291 -1.8587,-2.5975 -4.1697,-5.9133 -5.1356,-7.3684 -2.5967,-3.9119 -5.7934,-12.889 -6.8175,-19.146 -1.7568,-10.733 -3.8757,-15.748 -7.3494,-17.396 -6.8963,-3.2725 -30.375,-7.5694 -52.577,-9.6223 -24.662,-2.2804 -60.208,0.88438 -79.089,7.0413 -10.66,3.4762 -16.326,6.9459 -18.635,11.41 -3.1609,6.1125 -1.5506,11.8 8.6441,30.533 8.5453,15.702 18.214,41.313 19.266,51.034 0.14882,1.375 -0.12511,8.125 -0.60874,15 -1.7901,25.447 -1.4949,28.487 3.8365,39.5 2.3008,4.7526 6.3226,10.211 12.527,17 9.1689,10.034 11.932,14.585 18.712,30.819 3.4237,8.1983 8.7275,14.872 15.833,19.921 5.2471,3.7287 11.533,5.9197 14.668,5.1128 0.9093,-0.23402 4.0593,-0.82559 7,-1.3146 z"
           style="fill:#d52e2e;fill-opacity:1;stroke:#000000;stroke-opacity:1" />
        <path
           id="path8087"
           d="m 174.09,363.64 c -3.6154,-2.2047 -5.7808,-8.2051 -4.7822,-13.252 1.858,-9.3891 12.792,-28.991 22.42,-40.195 6.6602,-7.7501 14.169,-10.312 22.756,-7.7636 2.5129,0.74581 4.4984,0.60619 8,-0.56257 2.5616,-0.85502 5.0849,-1.9606 5.6074,-2.4567 1.6515,-1.5683 7.4603,-0.99546 9.3,0.91708 8.1111,8.432 18.243,20.196 20.521,23.825 3.3772,5.3823 5.6471,13.687 4.9741,18.197 -0.3502,2.3471 -1.4283,3.9315 -3.6216,5.3224 -2.7921,1.7706 -4.0767,1.8987 -12.123,1.2092 -18.943,-1.6233 -24.692,-0.46063 -45,9.1003 -9.932,4.676 -18.58,7.5296 -22.799,7.5224 -1.2107,-0.002 -3.5742,-0.841 -5.2523,-1.8643 z"
           style="fill:#d52e2e;fill-opacity:1;stroke:#000000;stroke-opacity:1" />
        <path
           id="path8085"
           d="m 203.96,355.59 c 18.177,-9.7289 27.899,-11.663 42.134,-8.3844 12.41,2.8584 9.3281,-0.87142 -3.4938,-4.2283 -10.303,-2.6974 -26.836,-0.57829 -32.034,4.1062 -0.8683,0.78242 -2.0158,1.4226 -2.5501,1.4226 -0.7941,0 -11.184,7.8028 -14.821,11.131 -2.4722,2.262 2.3993,0.43065 10.765,-4.0469 z"
           style="fill:#d52e2e;fill-opacity:1;stroke:#000000;stroke-opacity:1" />
        <path
           id="path8083"
           d="m 224.42,307.12 c 3.1459,-1.3119 7.1863,-2.6986 8.9786,-3.0814 3.7356,-0.79791 3.4895,-2.1002 -0.5653,-2.9908 -1.8287,-0.40167 -4.4831,0.15098 -7.7385,1.6112 -4.0192,1.8028 -6.8615,2.2342 -15.051,2.2844 -7.4262,0.0455 -10.577,0.45853 -11.916,1.5619 -1.672,1.378 -1.339,1.5473 4.0959,2.0819 12.516,1.231 16.33,0.97887 22.196,-1.4672 z"
           style="fill:#d52e2e;fill-opacity:1;stroke:#000000;stroke-opacity:1" />
        <path
           id="path8081"
           d="m 162.74,354.52 c -1.7497,-8.1586 -1.2813,-17.739 1.2233,-25.02 1.2728,-3.6998 5.913,-12.1 10.771,-19.5 7.6442,-11.643 12.416,-20.691 14.372,-27.25 0.369,-1.2375 1.0662,-2.25 1.5495,-2.25 1.0227,0 -1.3321,8.5288 -4.1153,14.905 -1.0575,2.4227 -5.8452,10.523 -10.639,18 -12.326,19.225 -14.853,27.562 -12.161,40.115 0.6037,2.815 0.8727,5.3432 0.5977,5.6182 -0.275,0.275 -0.994,-1.8032 -1.5977,-4.6182 z"
           style="fill:#d52e2e;fill-opacity:1;stroke:#000000;stroke-opacity:1" />
        <path
           id="path8077"
           d="m 160.69,311.8 c -0.0903,-3.8341 2.1208,-12.653 4.2043,-16.77 1.1054,-2.1839 4.8862,-7.7406 8.4019,-12.348 7.7102,-10.105 8.7138,-11.968 10.817,-20.083 1.9473,-7.515 1.7416,-12.796 -0.4746,-12.183 -0.825,0.22813 -6.675,0.45313 -13,0.5 -10.579,0.0784 -11.952,0.31409 -17.138,2.9427 -3.101,1.5716 -8.051,4.8472 -11,7.279 -2.949,2.4318 -6.3744,4.6822 -7.6119,5.0009 -3.4322,0.88386 -7.2064,-0.44103 -8.304,-2.915 -1.3483,-3.039 2.4559,-13.352 6.9976,-18.971 4.0615,-5.0246 19.644,-18.447 24.297,-20.929 6.843,-3.6502 15.059,-1.4756 19.198,5.0814 3.6915,5.8477 3.1959,5.8817 -2.3743,0.16295 -5.5594,-5.7076 -8.6305,-6.368 -15.301,-3.2904 -3.8681,1.7845 -14.629,10.164 -14.715,11.458 -0.0267,0.40397 3.0805,-1.5485 6.9049,-4.3389 8.5773,-6.2582 13.008,-7.169 18.865,-3.8776 2.646,1.4872 4.9266,3.9345 6.6964,7.1861 1.476,2.712 2.5266,5.0794 2.3345,5.261 -0.192,0.18154 -3.0491,-0.10734 -6.3491,-0.64195 -10.981,-1.779 -20.618,0.34897 -29.965,6.6172 -4.9823,3.341 -6.5312,3.9874 -6.52,2.7208 0.0139,-1.5681 0.4669,-2.5312 3.899,-8.2893 1.3468,-2.2596 1.3231,-2.3031 -0.5,-0.91931 -5.174,3.9271 -6.9008,6.0164 -9.5444,11.547 -6.7699,14.164 -0.0544,17.387 12.631,6.0611 7.9916,-7.1353 20.182,-11.29 28.998,-9.8818 2.7513,0.43938 7.2523,0.80377 10.002,0.80976 l 5,0.0109 -0.077,5 c -0.192,12.425 -3.9156,20.463 -17.134,36.987 -3.9009,4.8763 -5.1967,7.5655 -6.9873,14.5 -1.209,4.6824 -2.2214,7.5231 -2.25,6.3126 z"
           style="fill:#d52e2e;fill-opacity:1;stroke:#000000;stroke-opacity:1" />
        <path
           id="path8075"
           d="m 242.13,297.26 c -2.6278,-4.5375 -5.6136,-9.3232 -6.6349,-10.635 l -1.8571,-2.3849 v 2.5881 c 0,2.0472 -0.8881,3.0289 -4.25,4.6975 -2.3375,1.1602 -6.2579,3.2063 -8.712,4.5469 -4.9887,2.7252 -6.1809,2.5709 -12.858,-1.6634 -2.4934,-1.5812 -6.0399,-3.1576 -7.8813,-3.503 -1.8413,-0.34544 -4.0119,-1.576 -4.8234,-2.7347 -1.6547,-2.3624 -2.0248,-10.662 -0.4756,-10.662 0.55,0 1,1.9553 1,4.345 0,2.8824 0.5891,4.8654 1.75,5.8911 1.413,1.2483 7.3059,2.8858 11.533,3.2048 0.4307,0.0325 1.3574,1.1841 2.0593,2.5591 1.6994,3.3293 5.8728,3.0004 12.653,-0.99719 2.801,-1.6516 5.4964,-3.0028 5.9897,-3.0028 1.7778,0 2.1563,-2.167 1.4807,-8.4764 -0.505,-4.7153 -1.1227,-6.5354 -2.3266,-6.8556 -1.1954,-0.31795 -1.0756,-0.46736 0.4425,-0.55196 2.0836,-0.11611 4.4585,2.9616 10.714,13.884 2.2361,3.9046 7.8865,18 7.2156,18 -0.1325,0 -2.391,-3.7125 -5.0189,-8.25 z"
           style="fill:#d52e2e;fill-opacity:1;stroke:#000000;stroke-opacity:1" />
        <path
           id="path8073"
           d="m 115.3,297 c -2.1039,-6.1746 -1.5212,-17.777 1.394,-27.753 2.5961,-8.8848 4.0268,-9.7514 1.6798,-1.0175 -2.1684,8.0692 -2.9886,20.77 -1.7559,27.189 1.3145,6.8453 0.71911,7.56 -1.3178,1.5819 z"
           style="fill:#d52e2e;fill-opacity:1;stroke:#000000;stroke-opacity:1" />
        <path
           id="path8071"
           d="m 260.39,295.93 c -0.4125,-0.416 -0.75,-1.6037 -0.75,-2.6394 0,-3.6393 -2.9674,-7.5534 -8.2077,-10.826 -13.278,-8.2926 -15.078,-10.197 -21.311,-22.538 -4.5694,-9.0474 -5.6293,-11.964 -4.8186,-13.259 1.4336,-2.2905 6.5942,-2.6019 12.09,-0.72943 2.5324,0.86287 5.6492,1.5689 6.9262,1.5689 1.277,0 2.3218,0.45 2.3218,1 0,1.4668 -4.4314,1.2212 -10.665,-0.59106 -5.5242,-1.6059 -10.335,-1.2774 -10.335,0.70574 0,0.59212 0.843,2.271 1.8734,3.731 1.0303,1.4599 3.2436,5.3814 4.9185,8.7144 3.3481,6.6631 8.3695,11.734 15.834,15.988 6.8869,3.9259 10.094,7.1494 11.951,12.013 1.5701,4.1112 1.6779,8.3791 0.1734,6.8618 z"
           style="fill:#d52e2e;fill-opacity:1;stroke:#000000;stroke-opacity:1" />
        <path
           id="path8069"
           d="m 224.22,280.06 c 0.5806,-13.717 -0.8995,-19.861 -8.2966,-34.443 -3.4552,-6.8113 -6.2642,-12.886 -6.2423,-13.5 0.022,-0.6137 0.8534,0.45918 1.8479,2.3842 0.9944,1.925 3.5927,6.425 5.774,10 6.7017,10.984 8.4421,17.258 8.3977,30.276 -0.017,5.0734 -0.4521,10.574 -0.9664,12.224 -0.6681,2.1438 -0.8149,0.16277 -0.5143,-6.941 z"
           style="fill:#d52e2e;fill-opacity:1;stroke:#000000;stroke-opacity:1" />
        <path
           id="path8067"
           d="m 204.67,277.39 c -1.3621,-0.54349 -3.4996,-0.7314 -4.75,-0.41756 -1.3768,0.34554 -2.2736,0.11735 -2.2736,-0.57849 0,-1.4499 8.6813,-0.60775 10.287,0.99796 1.3398,1.3398 0.097,1.3391 -3.2634,-0.002 z"
           style="fill:#d52e2e;fill-opacity:1;stroke:#000000;stroke-opacity:1" />
        <path
           id="path8065"
           d="m 204.22,272.02 c -6.064,-7.9503 -8.0641,-13.376 -8.2825,-22.468 l -0.2051,-8.5441 1.4637,8.3941 c 1.009,5.7862 2.829,11.145 5.8578,17.25 2.4167,4.8708 4.2663,8.8559 4.1101,8.8559 -0.1561,0 -1.481,-1.5694 -2.944,-3.4876 z"
           style="fill:#d52e2e;fill-opacity:1;stroke:#000000;stroke-opacity:1" />
        <path
           id="path8063"
           d="m 237.64,242.87 c -2.479,-1.2909 -7.204,-2.8159 -10.5,-3.3888 -3.2961,-0.5729 -7.0366,-1.4824 -8.3122,-2.0211 l -2.3193,-0.97946 2.3193,-4.1513 c 1.2756,-2.2832 3.5775,-5.0819 5.1152,-6.2193 2.5569,-1.8913 3.0204,-1.9416 5.4233,-0.58859 2.4351,1.3711 14.281,17.246 14.281,19.138 0,1.1575 -0.8122,0.91547 -6.0071,-1.7898 z"
           style="fill:#d52e2e;fill-opacity:1;stroke:#000000;stroke-opacity:1" />
        <path
           id="path8061"
           d="m 242,237.98 c -4.7914,-9.5143 -8.8493,-14.248 -13.267,-15.476 -3.7115,-1.0318 -2.8176,-1.6984 -12.075,9.0051 -3.4975,4.0438 -3.0168,1.5856 0.8439,-4.3154 4.7488,-7.2585 12.088,-8.4902 17.411,-2.9221 2.7944,2.923 12.181,20.123 11.405,20.899 -0.2548,0.25472 -2.1977,-2.981 -4.3176,-7.1905 z"
           style="fill:#d52e2e;fill-opacity:1;stroke:#000000;stroke-opacity:1" />
        <path
           id="path8059"
           d="m 130.66,242.81 c 0.13059,-5.3335 2.4505,-14.899 4.505,-18.575 3.0765,-5.5044 6.294,-8.4442 18.099,-16.536 7.7538,-5.315 11.548,-8.2585 22.187,-17.211 3.7675,-3.1703 3.9953,-3.1402 3.8917,0.51492 -0.055,1.9404 -0.6183,3.4978 -1.2651,3.4978 -0.6413,0 -1.9623,2.0852 -2.9356,4.6338 -2.0965,5.4897 -7.4381,11.114 -14.15,14.898 -9.7981,5.5247 -21.316,13.611 -23.151,16.253 -2.507,3.6107 -5.2012,9.21 -5.2012,10.81 0,0.70804 -0.45,1.5655 -1,1.9054 -0.55,0.33992 -0.99109,0.25398 -0.98019,-0.19098 z"
           style="fill:#d52e2e;fill-opacity:1;stroke:#000000;stroke-opacity:1" />
        <path
           id="path8055"
           d="m 193.73,230.19 c -1.3093,-2.3006 -3.6046,-5.758 -5.1006,-7.683 -5.3563,-6.8921 -10.008,-18.376 -9.9233,-24.5 0.034,-2.4755 0.4338,-1.9443 2.2864,3.0378 1.2349,3.3208 4.6215,10.296 7.5259,15.5 4.636,8.3069 8.4715,16.949 7.8141,17.606 -0.1221,0.12212 -1.2932,-1.6603 -2.6025,-3.961 z"
           style="fill:#d52e2e;fill-opacity:1;stroke:#000000;stroke-opacity:1" />
        <path
           id="path8053"
           d="m 208.22,227.26 c -0.2828,-1.7875 -0.6543,-10.773 -0.8255,-19.968 l -0.3112,-16.718 2.0301,1.8417 c 4.5009,4.0831 13.404,9.0855 19.795,11.121 7.4537,2.3748 11.727,5.8888 14.324,11.78 0.8955,2.0311 2.7045,5.7788 4.0198,8.3282 3.1863,6.1758 3.0462,8.1131 -0.2353,3.2542 -1.4448,-2.1392 -2.957,-4.1146 -3.3605,-4.3896 -0.4035,-0.275 -1.4796,-1.956 -2.3913,-3.7355 -1.5955,-3.1141 -2.4041,-3.5231 -9.1534,-4.63 -1.6676,-0.2735 -6.0154,-1.8782 -9.6617,-3.5659 -3.6464,-1.6877 -7.2896,-3.0686 -8.096,-3.0686 -0.8065,0 -2.1726,-1.0125 -3.0358,-2.25 -1.494,-2.1417 -1.5836,-1.889 -1.8614,5.25 -0.1605,4.125 -0.207,10.312 -0.1033,13.75 0.2048,6.7877 -0.316,8.1662 -1.1333,3 z"
           style="fill:#d52e2e;fill-opacity:1;stroke:#000000;stroke-opacity:1" />
      </g>
    </g>
  </g>
</svg>
