<?xml version="1.0" encoding="UTF-8" standalone="no"?>
<!-- Created with Inkscape (http://www.inkscape.org/) -->

<svg
   width="95.860405mm"
   height="106.86001mm"
   viewBox="0 0 95.860405 106.86001"
   version="1.1"
   id="svg6507"
   inkscape:version="1.1.1 (3bf5ae0d25, 2021-09-20)"
   sodipodi:docname="tailleur_v2.svg"
   xmlns:inkscape="http://www.inkscape.org/namespaces/inkscape"
   xmlns:sodipodi="http://sodipodi.sourceforge.net/DTD/sodipodi-0.dtd"
   xmlns="http://www.w3.org/2000/svg"
   xmlns:svg="http://www.w3.org/2000/svg">
  <sodipodi:namedview
     id="namedview6509"
     pagecolor="#ffffff"
     bordercolor="#999999"
     borderopacity="1"
     inkscape:pageshadow="0"
     inkscape:pageopacity="0"
     inkscape:pagecheckerboard="0"
     inkscape:document-units="mm"
     showgrid="false"
     inkscape:zoom="0.72337262"
     inkscape:cx="208.05322"
     inkscape:cy="212.20046"
     inkscape:window-width="1920"
     inkscape:window-height="1001"
     inkscape:window-x="-9"
     inkscape:window-y="-9"
     inkscape:window-maximized="1"
     inkscape:current-layer="layer1" />
  <defs
     id="defs6504" />
  <g
     inkscape:label="Calque 1"
     inkscape:groupmode="layer"
     id="layer1"
     transform="translate(-49.981229,-89.981221)">
    <g
       id="g4887">
      <ellipse
         style="fill:#e6e6e6;fill-opacity:0.937255;stroke:#000000;stroke-width:4.15212;stroke-miterlimit:4;stroke-dasharray:none;paint-order:stroke markers fill"
         id="path7398"
         cx="97.91143"
         cy="143.41122"
         rx="45.854141"
         ry="51.353943" />
      <g
         id="g3883"
         transform="matrix(0.12454622,0,0,0.08276205,51.134819,82.421539)"
         style="fill:#d52e2e;fill-opacity:1">
        <path
           id="path2985"
           d="M 336.09375,244.78125 298.40625,257.5 284.625,285.15625 l 31.6875,3 4.84375,0.4375 -3.59375,3.28125 -37.5,34.5 94.53125,94.03125 z m 81.90625,0.1875 -38.5,175.625 94.53125,-94.03125 -37.5,-34.5 -3.59375,-3.28125 4.84375,-0.4375 31.6875,-3 -13.78125,-27.65625 z m -125.34375,14.5 L 247,274.875 c -11.27898,2.91862 -19.1106,10.40569 -22.3125,24.09375 L 87.625,601.25 c 21.60388,15.39552 45.25021,24.72972 69.53125,32.09375 L 247.75,421.0625 c 1.59272,42.5342 7.6272,83.59041 -2.03125,129.875 L 230,626.65625 c 37.70358,20.61426 90.05456,22.57197 130.53125,32.09375 5.13981,-21.13133 12.20968,-43.93733 16.5,-71.15625 4.28738,27.3014 11.37969,50.16412 16.53125,71.34375 40.47669,-9.52178 92.82767,-11.47949 130.53125,-32.09375 L 508.375,551.125 c -9.65845,-46.28459 -3.62397,-87.3408 -2.03125,-129.875 l 90.59375,212.28125 c 24.28104,-7.36403 47.92737,-16.69823 69.53125,-32.09375 L 529.40625,299.15625 c -3.2019,-13.68806 -11.03352,-21.17513 -22.3125,-24.09375 l -45.65625,-15.40625 13.28125,26.59375 1.40625,2.8125 -3.125,0.3125 -30,2.8125 35.625,32.71875 1.65625,1.53125 -1.59375,1.59375 -100.875,100.3125 -0.75,3.40625 -0.78125,-3.59375 -100.875,-100.3125 -1.59375,-1.59375 1.65625,-1.53125 35.625,-32.71875 -30,-2.8125 -3.125,-0.3125 1.40625,-2.8125 z m -132.8125,338.0625 c 2.09209,0 3.8125,1.63389 3.8125,3.65625 0,2.02236 -1.72041,3.6875 -3.8125,3.6875 -2.09209,0 -3.78125,-1.66514 -3.78125,-3.6875 0,-2.02236 1.68916,-3.65625 3.78125,-3.65625 z m 434.40625,0.1875 c 2.09209,0 3.78125,1.63389 3.78125,3.65625 0,2.02236 -1.68916,3.6875 -3.78125,3.6875 -2.09209,0 -3.8125,-1.66514 -3.8125,-3.6875 0,-2.02236 1.72041,-3.65625 3.8125,-3.65625 z m -439.625,11.8125 c 2.09209,0 3.8125,1.63389 3.8125,3.65625 0,2.02236 -1.72041,3.65625 -3.8125,3.65625 -2.09209,0 -3.78125,-1.63389 -3.78125,-3.65625 0,-2.02236 1.68916,-3.65625 3.78125,-3.65625 z m 444.84375,0.1875 c 2.09209,0 3.78125,1.63389 3.78125,3.65625 0,2.02236 -1.68916,3.65625 -3.78125,3.65625 -2.09209,0 -3.8125,-1.63389 -3.8125,-3.65625 0,-2.02236 1.72041,-3.65625 3.8125,-3.65625 z"
           style="fill:#d52e2e;fill-opacity:1;stroke:#000000;stroke-width:1px;stroke-linecap:butt;stroke-linejoin:miter;stroke-opacity:1"
           inkscape:connector-curvature="0" />
        <circle
           transform="translate(85.714286,-15)"
           id="path3821"
           style="fill:#d52e2e;fill-opacity:1;stroke:#ffffff;stroke-width:0;stroke-linecap:round;stroke-linejoin:miter;stroke-miterlimit:4;stroke-dasharray:none;stroke-dashoffset:0"
           cx="290.35715"
           cy="476.29074"
           r="6.0714288" />
        <circle
           transform="translate(84.330709,43.186547)"
           id="path3821-0"
           style="fill:#d52e2e;fill-opacity:1;stroke:#ffffff;stroke-width:0;stroke-linecap:round;stroke-linejoin:miter;stroke-miterlimit:4;stroke-dasharray:none;stroke-dashoffset:0"
           cx="290.35715"
           cy="476.29074"
           r="6.0714288" />
        <path
           sodipodi:nodetypes="ccccccccccc"
           inkscape:connector-curvature="0"
           d="m 366.68537,263.43304 -6.81853,-19.69797 c 11.45901,2.86869 22.91801,3.13558 34.37702,-0.0539 l -6.81853,19.69797 z m 20.73996,3.10283 6.56599,72.11994 -16.93597,76.79854 -16.93597,-76.74467 6.69226,-71.86741 z"
           style="fill:#d52e2e;fill-opacity:1;stroke:#000000;stroke-width:1px;stroke-linecap:butt;stroke-linejoin:miter;stroke-opacity:1"
           id="path3841-9" />
        <path
           sodipodi:nodetypes="cccccccccc"
           inkscape:connector-curvature="0"
           d="m 484.24699,668.35004 40.67859,538.54896 -114.57342,2.8865 -15.13184,-378.43595 c -3.26094,-19.24142 -8.96838,-26.03705 -15.35519,-29.37653 -6.38682,3.33948 -12.09425,10.13511 -15.35519,29.37653 l -12.2747,378.43595 -118.85913,-2.8865 34.96431,-535.69182 c 66.4854,14.82208 133.85781,21.028 215.90657,-2.85714 z"
           style="fill:#d52e2e;fill-opacity:1;stroke:#000000;stroke-width:0.87911px;stroke-linecap:butt;stroke-linejoin:miter;stroke-opacity:1"
           id="path3862-4" />
      </g>
    </g>
  </g>
</svg>
