<?xml version="1.0" encoding="UTF-8" standalone="no"?>
<!-- Created with Inkscape (http://www.inkscape.org/) -->

<svg
   width="95.859993mm"
   height="106.86002mm"
   viewBox="0 0 95.859993 106.86002"
   version="1.1"
   id="svg866"
   inkscape:version="1.1.1 (3bf5ae0d25, 2021-09-20)"
   sodipodi:docname="Train_v2.svg"
   xmlns:inkscape="http://www.inkscape.org/namespaces/inkscape"
   xmlns:sodipodi="http://sodipodi.sourceforge.net/DTD/sodipodi-0.dtd"
   xmlns="http://www.w3.org/2000/svg"
   xmlns:svg="http://www.w3.org/2000/svg">
  <sodipodi:namedview
     id="namedview868"
     pagecolor="#ffffff"
     bordercolor="#999999"
     borderopacity="1"
     inkscape:pageshadow="0"
     inkscape:pageopacity="0"
     inkscape:pagecheckerboard="0"
     inkscape:document-units="mm"
     showgrid="false"
     inkscape:zoom="0.3732674"
     inkscape:cx="4.0185669"
     inkscape:cy="279.96016"
     inkscape:window-width="1920"
     inkscape:window-height="1001"
     inkscape:window-x="-9"
     inkscape:window-y="-9"
     inkscape:window-maximized="1"
     inkscape:current-layer="layer1" />
  <defs
     id="defs863" />
  <g
     inkscape:label="Calque 1"
     inkscape:groupmode="layer"
     id="layer1"
     transform="translate(-51.04175,-93.878504)">
    <g
       id="g1511">
      <g
         id="g1016"
         transform="translate(189.96659,-58.832935)">
        <ellipse
           style="fill:#e6e6e6;fill-opacity:1;stroke:#000000;stroke-width:1.00728;stroke-miterlimit:4;stroke-dasharray:none;stroke-dashoffset:0;stroke-opacity:1;paint-order:stroke markers fill"
           id="path6304"
           cx="-91.049156"
           cy="202.99698"
           rx="47.454967"
           ry="52.900177"
           transform="matrix(0.99940346,-0.03453596,0,1,0,0)" />
      </g>
      <path
         id="path12"
         d="m 95.7627,101.83555 c -1.28928,-0.0116 -2.609964,0.17961 -3.892957,0.59034 -5.174381,1.95402 -7.911537,6.72712 -6.50762,11.32494 -2.576985,2.37549 -3.43284,5.74539 -2.236215,8.77257 -0.505665,-0.11511 -1.011324,-0.11511 -1.516976,0 -2.576991,0.38327 -4.854024,1.62727 -6.279924,3.46644 -3.035219,0.74824 -5.195742,3.01125 -5.379784,5.65489 -2.391841,0.91959 -4.248644,2.54423 -5.260589,4.55608 V 146.2378 H 60.82567 v 11.74797 h -2.83499 v -1.53832 h -0.708747 c -0.27598,0 -0.509083,0.1949 -0.509083,0.42513 v 4.05771 c 0,0.22891 0.233103,0.42382 0.509083,0.42382 h 0.708747 v -1.68876 h 2.83499 v 1.68876 l 12.596902,-0.0171 c -4.323234,1.93468 -4.179549,7.10164 0.190019,8.86364 H 56.773476 l -6.33e-4,0.84895 h 80.685877 v -0.84895 h -17.25056 c 2.04776,-0.8241 3.35431,-2.55995 3.35431,-4.45667 0,-1.83918 -1.22174,-3.52792 -3.1533,-4.38995 h 12.97599 v -1.68875 h 2.8251 v 1.68875 h 0.71923 c 0.29837,0 0.52923,-0.19491 0.52923,-0.42383 v -4.0577 c 0,-0.23021 -0.23086,-0.42513 -0.52923,-0.42513 h -0.71923 v 1.53831 h -2.8251 v -10.06046 h 2.0462 v -1.68744 h -6.09933 v 1.68744 h 2.02736 v 8.52221 h -8.00582 v -9.28745 h 0.89826 v -0.9222 h -3.01512 v -8.34824 h 6.0695 v -2.53639 h -9.12394 v 10.88463 h -8.92442 v -2.96937 c 0,-3.46645 -6.27835,-3.46645 -6.27835,0 v 2.96937 h -9.932607 v -5.13033 h -1.915856 c -1.564089,-2.93143 -6.528039,-2.93143 -8.115688,0 H 81.10892 v 5.13033 H 70.757177 v -10.38624 c 1.541011,-0.74693 2.649068,-1.94907 3.154726,-3.36704 3.381011,0.86203 7.033705,-0.0366 9.332727,-2.2787 3.910223,1.07265 8.147084,-0.5023 9.802263,-3.62471 4.277693,1.32117 8.991957,-0.7286 10.143037,-4.40696 1.1715,-0.21061 2.24721,-0.68807 3.14389,-1.33949 0.43657,-0.34403 0.85585,-0.66712 1.24687,-1.03078 0.59831,-0.5171 1.10083,-1.07472 1.5374,-1.68769 0.71295,-0.9387 1.24217,-1.97299 1.58764,-3.02667 0.11464,-0.44056 0.17902,-0.86229 0.17902,-1.32208 0,-2.50958 -2.03991,-4.71424 -4.9608,-5.34644 -1.27514,-3.96626 -5.55284,-6.54412 -10.161876,-6.58545 z M 79.063351,161.3707 h 8.13453 c -1.955112,0.86204 -3.143881,2.5508 -3.143881,4.38997 0,1.91504 1.284564,3.6391 3.354306,4.48152 h -8.55538 c 2.069749,-0.84242 3.384152,-2.58479 3.384152,-4.48152 0,-1.83917 -1.242162,-3.52793 -3.173727,-4.38997 z m 13.745469,0 h 8.14552 c -1.955107,0.86204 -3.175284,2.5508 -3.175284,4.38997 0,1.91504 1.317534,3.6391 3.363724,4.48152 h -8.514551 c 2.047771,-0.84242 3.333905,-2.58479 3.333905,-4.48152 0,-1.83917 -1.22175,-3.52793 -3.153314,-4.38997 z m 13.80515,0 h 8.13453 c -1.95355,0.86204 -3.1643,2.5508 -3.1643,4.38997 0,1.91504 1.30813,3.6391 3.35432,4.48152 h -8.51458 c 2.04778,-0.84242 3.34491,-2.58479 3.34491,-4.48152 0,-1.83917 -1.22332,-3.52793 -3.15488,-4.38997 z"
         style="fill:#d52e2e;fill-opacity:1;stroke:#000000;stroke-width:0.968517;stroke-miterlimit:4;stroke-dasharray:none;stroke-opacity:1" />
    </g>
  </g>
</svg>
